<svg width="264" height="64" viewBox="0 0 264 64" fill="none" xmlns="http://www.w3.org/2000/svg">
<g clip-path="url(#clip0_970_1484)">
<path fill-rule="evenodd" clip-rule="evenodd" d="M101.72 54.8078C102.256 55.0238 102.836 55.1318 103.46 55.1318C103.884 55.1318 104.3 55.0758 104.708 54.9638C105.124 54.8438 105.508 54.6758 105.86 54.4598C106.22 54.2358 106.54 53.9758 106.82 53.6798L105.992 52.8398C105.688 53.1998 105.316 53.4798 104.876 53.6798C104.444 53.8718 103.984 53.9678 103.496 53.9678C103.048 53.9678 102.632 53.8878 102.248 53.7278C101.864 53.5678 101.528 53.3438 101.24 53.0558C100.952 52.7678 100.728 52.4318 100.568 52.0478C100.416 51.6638 100.34 51.2478 100.34 50.7998C100.34 50.3438 100.416 49.9238 100.568 49.5398C100.728 49.1558 100.948 48.8238 101.228 48.5438C101.508 48.2558 101.836 48.0318 102.212 47.8718C102.596 47.7118 103.012 47.6318 103.46 47.6318C103.948 47.6318 104.416 47.7318 104.864 47.9318C105.312 48.1238 105.692 48.4078 106.004 48.7838L106.844 47.9198C106.58 47.6158 106.268 47.3558 105.908 47.1398C105.556 46.9238 105.168 46.7598 104.744 46.6478C104.328 46.5278 103.9 46.4678 103.46 46.4678C102.844 46.4678 102.268 46.5798 101.732 46.8038C101.196 47.0198 100.724 47.3278 100.316 47.7278C99.9166 48.1198 99.6046 48.5798 99.3806 49.1078C99.1646 49.6278 99.0566 50.1918 99.0566 50.7998C99.0566 51.4078 99.1646 51.9758 99.3806 52.5038C99.6046 53.0238 99.9166 53.4838 100.316 53.8838C100.724 54.2758 101.192 54.5838 101.72 54.8078ZM114.045 55.1318C113.437 55.1318 112.869 55.0238 112.341 54.8078C111.813 54.5838 111.345 54.2758 110.937 53.8838C110.537 53.4838 110.225 53.0238 110.001 52.5038C109.785 51.9758 109.677 51.4078 109.677 50.7998C109.677 50.1918 109.785 49.6278 110.001 49.1078C110.225 48.5798 110.537 48.1198 110.937 47.7278C111.345 47.3278 111.813 47.0198 112.341 46.8038C112.869 46.5798 113.437 46.4678 114.045 46.4678C114.653 46.4678 115.221 46.5798 115.749 46.8038C116.285 47.0198 116.753 47.3278 117.153 47.7278C117.553 48.1198 117.865 48.5798 118.089 49.1078C118.313 49.6278 118.425 50.1918 118.425 50.7998C118.425 51.4078 118.313 51.9758 118.089 52.5038C117.865 53.0238 117.553 53.4838 117.153 53.8838C116.753 54.2758 116.285 54.5838 115.749 54.8078C115.221 55.0238 114.653 55.1318 114.045 55.1318ZM114.057 53.9678C114.489 53.9678 114.889 53.8878 115.257 53.7278C115.633 53.5678 115.961 53.3478 116.241 53.0678C116.521 52.7798 116.741 52.4438 116.901 52.0598C117.061 51.6678 117.141 51.2478 117.141 50.7998C117.141 50.3438 117.061 49.9238 116.901 49.5398C116.741 49.1558 116.521 48.8238 116.241 48.5438C115.961 48.2558 115.633 48.0318 115.257 47.8718C114.889 47.7118 114.489 47.6318 114.057 47.6318C113.617 47.6318 113.209 47.7118 112.833 47.8718C112.457 48.0318 112.129 48.2558 111.849 48.5438C111.569 48.8238 111.349 49.1558 111.189 49.5398C111.037 49.9238 110.961 50.3438 110.961 50.7998C110.961 51.2478 111.037 51.6678 111.189 52.0598C111.349 52.4438 111.569 52.7798 111.849 53.0678C112.129 53.3478 112.457 53.5678 112.833 53.7278C113.209 53.8878 113.617 53.9678 114.057 53.9678ZM121.912 54.9998V46.5998H125.716C126.276 46.5998 126.764 46.7038 127.18 46.9118C127.604 47.1198 127.932 47.4118 128.164 47.7878C128.404 48.1558 128.524 48.5878 128.524 49.0838C128.524 49.6358 128.368 50.1118 128.056 50.5118C127.744 50.9118 127.324 51.1998 126.796 51.3758L128.668 54.9998H127.276L125.536 51.5558H123.172V54.9998H121.912ZM123.172 50.4998H125.62C126.116 50.4998 126.512 50.3758 126.808 50.1278C127.112 49.8718 127.264 49.5278 127.264 49.0958C127.264 48.6798 127.112 48.3438 126.808 48.0878C126.512 47.8318 126.116 47.7038 125.62 47.7038H123.172V50.4998ZM90.237 54.9998V46.5998H96.429V47.7038H91.497V50.2238H94.737V51.2918H91.497V53.8958H96.477V54.9998H90.237ZM82.3464 53.8718H80.6184V47.7278H82.3464C82.7864 47.7278 83.1944 47.8078 83.5704 47.9678C83.9464 48.1198 84.2744 48.3358 84.5544 48.6158C84.8424 48.8878 85.0624 49.2118 85.2144 49.5878C85.3744 49.9638 85.4544 50.3678 85.4544 50.7998C85.4544 51.2398 85.3744 51.6478 85.2144 52.0238C85.0624 52.3918 84.8424 52.7158 84.5544 52.9958C84.2744 53.2678 83.9464 53.4838 83.5704 53.6438C83.1944 53.7958 82.7864 53.8718 82.3464 53.8718ZM79.3584 46.5998V54.9998H82.3224C82.9544 54.9998 83.5384 54.8958 84.0744 54.6878C84.6184 54.4718 85.0904 54.1758 85.4904 53.7998C85.8904 53.4238 86.1984 52.9838 86.4144 52.4798C86.6384 51.9678 86.7504 51.4078 86.7504 50.7998C86.7504 50.1998 86.6384 49.6438 86.4144 49.1318C86.1904 48.6198 85.8784 48.1758 85.4784 47.7998C85.0784 47.4238 84.6104 47.1318 84.0744 46.9238C83.5384 46.7078 82.9544 46.5998 82.3224 46.5998H79.3584Z" fill="white"/>
<path fill-rule="evenodd" clip-rule="evenodd" d="M138.627 54.4072C138.153 54.8731 137.763 55.3444 137.423 55.8212C136.175 57.5685 135.856 58.842 136.066 59.7464C136.28 60.6706 137.018 61.1058 137.613 61.2248L137.852 60.75C137.422 60.6639 136.81 60.232 136.665 59.6074C136.516 58.9631 136.71 57.8776 137.923 56.1788C138.204 55.7855 138.599 55.3875 139.083 54.9849C139.089 54.99 139.096 54.995 139.102 55C139.697 55.4736 140.988 55.856 142.352 55.75C143.731 55.6428 145.315 55.0504 147.078 53.7917C148.022 53.1619 149.318 52.058 150.132 50.7808C150.541 50.1398 150.839 49.4374 150.897 48.7167C150.914 48.4932 150.909 48.2695 150.877 48.0473C151.64 47.5453 152.315 47.0399 152.855 46.5318C153.444 45.9779 153.894 45.3995 154.109 44.7952C154.329 44.1759 154.206 43.6195 153.852 43L153.406 43.2296C153.668 43.687 153.691 44.1318 153.529 44.5894C153.361 45.062 152.989 45.5606 152.434 46.0836C151.995 46.496 151.38 46.9104 150.675 47.3273C150.566 47.0719 150.416 46.821 150.221 46.577L149.74 46.9615C149.918 47.1833 150.047 47.4089 150.136 47.6368C149.601 47.9372 149.031 48.2389 148.459 48.5419C148.003 48.7833 147.545 49.0256 147.102 49.2687C146.39 49.6599 145.649 50.0536 144.907 50.4484C143.621 51.1323 142.328 51.8198 141.162 52.5038C140.372 52.9669 139.72 53.4356 139.168 53.91C138.99 53.5748 138.849 53.1218 138.839 52.5639C138.828 51.9545 138.955 51.2347 139.318 50.4464C139.867 50.4738 140.449 50.4733 141.034 50.4299C142.582 50.3153 144.212 49.8962 145.275 48.833C146.281 47.8271 146.591 46.9958 146.399 46.3301C146.212 45.6823 145.805 45.3659 145.352 45.25C144.933 45.1157 144.022 45.1785 143.15 45.6174C142.257 46.0667 141.148 46.918 139.898 48.4184C139.505 48.8901 139.193 49.3548 138.95 49.8065C138.236 49.7517 137.599 49.6514 137.124 49.5458L136.99 50.1465C137.438 50.2459 138.016 50.3403 138.666 50.4001C138.337 51.1875 138.212 51.9241 138.224 52.5746C138.237 53.3154 138.387 53.9481 138.627 54.4072ZM139.67 54.5259C140.333 54.0355 141.114 53.5384 141.973 53.0347C143.13 52.356 144.4 51.6807 145.677 51.002C146.422 50.6057 147.17 50.2082 147.898 49.8082C148.734 49.3493 149.545 48.8872 150.291 48.4223C150.292 48.5041 150.29 48.586 150.283 48.668C150.237 49.2549 149.989 49.8602 149.613 50.45C148.859 51.6324 147.635 52.6809 146.733 53.2823L146.725 53.2881C145.043 54.4889 143.612 54.9021 142.352 55C141.112 55.0964 140.119 54.8578 139.67 54.5259ZM140.988 49.8162C140.531 49.8501 140.075 49.8565 139.636 49.8433C139.835 49.5084 140.078 49.1638 140.371 48.8124C141.582 47.3589 142.553 46.7321 143.352 46.3301C144.164 45.9219 144.752 45.9228 144.977 46C145.203 46.0772 145.504 46.2351 145.602 46.577C145.697 46.9061 145.803 47.4345 144.84 48.3978C143.934 49.3038 142.487 49.7053 140.988 49.8162Z" fill="white"/>
<path fill-rule="evenodd" clip-rule="evenodd" d="M173.542 55.1318C172.918 55.1318 172.338 55.0238 171.802 54.8078C171.274 54.5838 170.806 54.2758 170.398 53.8838C169.998 53.4838 169.686 53.0238 169.462 52.5038C169.246 51.9758 169.138 51.4078 169.138 50.7998C169.138 50.1918 169.246 49.6278 169.462 49.1078C169.686 48.5798 169.998 48.1198 170.398 47.7278C170.806 47.3278 171.278 47.0198 171.814 46.8038C172.35 46.5798 172.926 46.4678 173.542 46.4678C173.982 46.4678 174.41 46.5278 174.826 46.6478C175.25 46.7598 175.638 46.9238 175.99 47.1398C176.35 47.3558 176.662 47.6158 176.926 47.9198L176.086 48.7838C175.774 48.4078 175.394 48.1238 174.946 47.9318C174.498 47.7318 174.03 47.6318 173.542 47.6318C173.094 47.6318 172.678 47.7118 172.294 47.8718C171.918 48.0318 171.59 48.2558 171.31 48.5438C171.03 48.8238 170.81 49.1558 170.65 49.5398C170.498 49.9238 170.422 50.3438 170.422 50.7998C170.422 51.2478 170.498 51.6638 170.65 52.0478C170.81 52.4318 171.034 52.7678 171.322 53.0558C171.61 53.3438 171.946 53.5678 172.33 53.7278C172.714 53.8878 173.13 53.9678 173.578 53.9678C174.066 53.9678 174.526 53.8718 174.958 53.6798C175.398 53.4798 175.77 53.1998 176.074 52.8398L176.902 53.6798C176.622 53.9758 176.302 54.2358 175.942 54.4598C175.59 54.6758 175.206 54.8438 174.79 54.9638C174.382 55.0758 173.966 55.1318 173.542 55.1318ZM182.424 54.8078C182.96 55.0238 183.54 55.1318 184.164 55.1318C184.588 55.1318 185.004 55.0758 185.412 54.9638C185.828 54.8438 186.212 54.6758 186.564 54.4598C186.924 54.2358 187.244 53.9758 187.524 53.6798L186.696 52.8398C186.392 53.1998 186.02 53.4798 185.58 53.6798C185.148 53.8718 184.688 53.9678 184.2 53.9678C183.752 53.9678 183.336 53.8878 182.952 53.7278C182.568 53.5678 182.232 53.3438 181.944 53.0558C181.656 52.7678 181.432 52.4318 181.272 52.0478C181.12 51.6638 181.044 51.2478 181.044 50.7998C181.044 50.3438 181.12 49.9238 181.272 49.5398C181.432 49.1558 181.652 48.8238 181.932 48.5438C182.212 48.2558 182.54 48.0318 182.916 47.8718C183.3 47.7118 183.716 47.6318 184.164 47.6318C184.652 47.6318 185.12 47.7318 185.568 47.9318C186.016 48.1238 186.396 48.4078 186.708 48.7838L187.548 47.9198C187.284 47.6158 186.972 47.3558 186.612 47.1398C186.26 46.9238 185.872 46.7598 185.448 46.6478C185.032 46.5278 184.604 46.4678 184.164 46.4678C183.548 46.4678 182.972 46.5798 182.436 46.8038C181.9 47.0198 181.428 47.3278 181.02 47.7278C180.62 48.1198 180.308 48.5798 180.084 49.1078C179.868 49.6278 179.76 50.1918 179.76 50.7998C179.76 51.4078 179.868 51.9758 180.084 52.5038C180.308 53.0238 180.62 53.4838 181.02 53.8838C181.428 54.2758 181.896 54.5838 182.424 54.8078ZM222.071 54.8078C222.599 55.0238 223.167 55.1318 223.775 55.1318C224.383 55.1318 224.951 55.0238 225.479 54.8078C226.015 54.5838 226.483 54.2758 226.883 53.8838C227.283 53.4838 227.595 53.0238 227.819 52.5038C228.043 51.9758 228.155 51.4078 228.155 50.7998C228.155 50.1918 228.043 49.6278 227.819 49.1078C227.595 48.5798 227.283 48.1198 226.883 47.7278C226.483 47.3278 226.015 47.0198 225.479 46.8038C224.951 46.5798 224.383 46.4678 223.775 46.4678C223.167 46.4678 222.599 46.5798 222.071 46.8038C221.543 47.0198 221.075 47.3278 220.667 47.7278C220.267 48.1198 219.955 48.5798 219.731 49.1078C219.515 49.6278 219.407 50.1918 219.407 50.7998C219.407 51.4078 219.515 51.9758 219.731 52.5038C219.955 53.0238 220.267 53.4838 220.667 53.8838C221.075 54.2758 221.543 54.5838 222.071 54.8078ZM224.987 53.7278C224.619 53.8878 224.219 53.9678 223.787 53.9678C223.347 53.9678 222.939 53.8878 222.563 53.7278C222.187 53.5678 221.859 53.3478 221.579 53.0678C221.299 52.7798 221.079 52.4438 220.919 52.0598C220.767 51.6678 220.691 51.2478 220.691 50.7998C220.691 50.3438 220.767 49.9238 220.919 49.5398C221.079 49.1558 221.299 48.8238 221.579 48.5438C221.859 48.2558 222.187 48.0318 222.563 47.8718C222.939 47.7118 223.347 47.6318 223.787 47.6318C224.219 47.6318 224.619 47.7118 224.987 47.8718C225.363 48.0318 225.691 48.2558 225.971 48.5438C226.251 48.8238 226.471 49.1558 226.631 49.5398C226.791 49.9238 226.871 50.3438 226.871 50.7998C226.871 51.2478 226.791 51.6678 226.631 52.0598C226.471 52.4438 226.251 52.7798 225.971 53.0678C225.691 53.3478 225.363 53.5678 224.987 53.7278ZM259.388 55.1198C258.716 55.1198 258.068 54.9878 257.444 54.7238C256.82 54.4598 256.268 54.0878 255.788 53.6078L256.556 52.7198C257.012 53.1678 257.476 53.4998 257.948 53.7158C258.428 53.9318 258.928 54.0398 259.448 54.0398C259.856 54.0398 260.212 53.9838 260.516 53.8718C260.828 53.7518 261.068 53.5838 261.236 53.3678C261.404 53.1518 261.488 52.9078 261.488 52.6358C261.488 52.2598 261.356 51.9718 261.092 51.7718C260.828 51.5718 260.392 51.4198 259.784 51.3158L258.38 51.0878C257.612 50.9518 257.036 50.7038 256.652 50.3438C256.276 49.9838 256.088 49.5038 256.088 48.9038C256.088 48.4238 256.216 48.0038 256.472 47.6438C256.728 47.2758 257.088 46.9918 257.552 46.7918C258.024 46.5918 258.568 46.4918 259.184 46.4918C259.792 46.4918 260.388 46.5918 260.972 46.7918C261.564 46.9838 262.096 47.2638 262.568 47.6318L261.872 48.5918C260.968 47.9038 260.052 47.5598 259.124 47.5598C258.756 47.5598 258.436 47.6118 258.164 47.7158C257.892 47.8198 257.68 47.9678 257.528 48.1598C257.376 48.3438 257.3 48.5598 257.3 48.8078C257.3 49.1518 257.416 49.4158 257.648 49.5998C257.88 49.7758 258.264 49.9038 258.8 49.9838L260.156 50.2118C261.044 50.3558 261.696 50.6158 262.112 50.9918C262.528 51.3678 262.736 51.8838 262.736 52.5398C262.736 53.0518 262.596 53.5038 262.316 53.8958C262.036 54.2798 261.644 54.5798 261.14 54.7958C260.636 55.0118 260.052 55.1198 259.388 55.1198ZM246.849 54.9998V46.5998H253.041V47.7038H248.109V50.2238H251.349V51.2918H248.109V53.8958H253.089V54.9998H246.849ZM241.712 46.5998V54.9998H242.972V46.5998H241.712ZM231.642 54.9998V46.5998H235.446C236.006 46.5998 236.494 46.7038 236.91 46.9118C237.334 47.1198 237.662 47.4118 237.894 47.7878C238.134 48.1558 238.254 48.5878 238.254 49.0838C238.254 49.6358 238.098 50.1118 237.786 50.5118C237.474 50.9118 237.054 51.1998 236.526 51.3758L238.398 54.9998H237.006L235.266 51.5558H232.902V54.9998H231.642ZM232.902 50.4998H235.35C235.846 50.4998 236.242 50.3758 236.538 50.1278C236.842 49.8718 236.994 49.5278 236.994 49.0958C236.994 48.6798 236.842 48.3438 236.538 48.0878C236.242 47.8318 235.846 47.7038 235.35 47.7038H232.902V50.4998ZM213.092 55.1198C212.42 55.1198 211.772 54.9878 211.148 54.7238C210.524 54.4598 209.972 54.0878 209.492 53.6078L210.26 52.7198C210.716 53.1678 211.18 53.4998 211.652 53.7158C212.132 53.9318 212.632 54.0398 213.152 54.0398C213.56 54.0398 213.916 53.9838 214.22 53.8718C214.532 53.7518 214.772 53.5838 214.94 53.3678C215.108 53.1518 215.192 52.9078 215.192 52.6358C215.192 52.2598 215.06 51.9718 214.796 51.7718C214.532 51.5718 214.096 51.4198 213.488 51.3158L212.084 51.0878C211.316 50.9518 210.74 50.7038 210.356 50.3438C209.98 49.9838 209.792 49.5038 209.792 48.9038C209.792 48.4238 209.92 48.0038 210.176 47.6438C210.432 47.2758 210.792 46.9918 211.256 46.7918C211.728 46.5918 212.272 46.4918 212.888 46.4918C213.496 46.4918 214.092 46.5918 214.676 46.7918C215.268 46.9838 215.8 47.2638 216.272 47.6318L215.576 48.5918C214.672 47.9038 213.756 47.5598 212.828 47.5598C212.46 47.5598 212.14 47.6118 211.868 47.7158C211.596 47.8198 211.384 47.9678 211.232 48.1598C211.08 48.3438 211.004 48.5598 211.004 48.8078C211.004 49.1518 211.12 49.4158 211.352 49.5998C211.584 49.7758 211.968 49.9038 212.504 49.9838L213.86 50.2118C214.748 50.3558 215.4 50.6158 215.816 50.9918C216.232 51.3678 216.44 51.8838 216.44 52.5398C216.44 53.0518 216.3 53.5038 216.02 53.8958C215.74 54.2798 215.348 54.5798 214.844 54.7958C214.34 55.0118 213.756 55.1198 213.092 55.1198ZM201.511 54.7238C202.135 54.9878 202.783 55.1198 203.455 55.1198C204.119 55.1198 204.703 55.0118 205.207 54.7958C205.711 54.5798 206.103 54.2798 206.383 53.8958C206.663 53.5038 206.803 53.0518 206.803 52.5398C206.803 51.8838 206.595 51.3678 206.179 50.9918C205.763 50.6158 205.111 50.3558 204.223 50.2118L202.867 49.9838C202.331 49.9038 201.947 49.7758 201.715 49.5998C201.483 49.4158 201.367 49.1518 201.367 48.8078C201.367 48.5598 201.443 48.3438 201.595 48.1598C201.747 47.9678 201.959 47.8198 202.231 47.7158C202.503 47.6118 202.823 47.5598 203.191 47.5598C204.119 47.5598 205.035 47.9038 205.939 48.5918L206.635 47.6318C206.163 47.2638 205.631 46.9838 205.039 46.7918C204.455 46.5918 203.859 46.4918 203.251 46.4918C202.635 46.4918 202.091 46.5918 201.619 46.7918C201.155 46.9918 200.795 47.2758 200.539 47.6438C200.283 48.0038 200.155 48.4238 200.155 48.9038C200.155 49.5038 200.343 49.9838 200.719 50.3438C201.103 50.7038 201.679 50.9518 202.447 51.0878L203.851 51.3158C204.459 51.4198 204.895 51.5718 205.159 51.7718C205.423 51.9718 205.555 52.2598 205.555 52.6358C205.555 52.9078 205.471 53.1518 205.303 53.3678C205.135 53.5838 204.895 53.7518 204.583 53.8718C204.279 53.9838 203.923 54.0398 203.515 54.0398C202.995 54.0398 202.495 53.9318 202.015 53.7158C201.543 53.4998 201.079 53.1678 200.623 52.7198L199.855 53.6078C200.335 54.0878 200.887 54.4598 201.511 54.7238ZM190.916 54.9998V46.5998H197.108V47.7038H192.176V50.2238H195.416V51.2918H192.176V53.8958H197.156V54.9998H190.916ZM161.986 46.5998L158.518 54.9998H159.826L160.81 52.5398H164.566L165.538 54.9998H166.906L163.474 46.5998H161.986ZM164.158 51.4958H161.218L162.694 47.7998L164.158 51.4958Z" fill="white"/>
<path d="M263.093 36.5624H253.159L255.566 33.6742V11.0748L253.159 8.68652H263.093L260.73 11.0748V33.6742L263.093 36.5624Z" fill="white"/>
<path d="M237.986 23.0839L243.5 32.23C244.551 33.8929 245.382 34.3306 247.57 34.3306C246.914 35.906 245.513 37 243.282 37C241.269 37 240 36.3436 238.643 33.8929L233.129 24.0029C232.779 24.0467 232.429 24.0467 232.079 24.0467H229.409V33.6741L231.947 36.5624H221.839L224.245 33.6741V11.0748L221.839 8.68652H232.079C238.862 8.68652 243.238 11.8373 243.238 16.3885C243.238 19.408 241.312 21.8149 237.986 23.0839ZM229.409 23.2152H231.641C235.536 23.2152 238.074 20.4583 238.074 16.3885C238.074 12.3625 235.536 9.51798 231.685 9.51798H229.409V23.2152Z" fill="white"/>
<path d="M201.015 37.0001C192.919 37.0001 187.318 32.0737 187.318 22.6902C187.318 13.1754 192.919 8.24902 201.015 8.24902C209.067 8.24902 214.669 13.1754 214.669 22.6902C214.669 32.0737 209.067 37.0001 201.015 37.0001ZM201.015 36.2561C205.829 36.2561 209.067 32.5988 209.067 22.6902C209.067 12.6502 205.873 8.99296 201.015 8.99296C196.114 8.99296 192.919 12.6502 192.919 22.6902C192.919 32.5988 196.158 36.2561 201.015 36.2561Z" fill="white"/>
<path d="M180.093 36.5624H170.159L172.566 33.6742V11.0748L170.159 8.68652H180.093L177.73 11.0748V33.6742L180.093 36.5624Z" fill="white"/>
<path d="M154.912 23.0839L160.425 32.23C161.476 33.8929 162.307 34.3306 164.495 34.3306C163.839 35.906 162.438 37 160.207 37C158.194 37 156.925 36.3436 155.568 33.8929L150.054 24.0029C149.704 24.0467 149.354 24.0467 149.004 24.0467H146.334V33.6741L148.873 36.5624H138.764L141.171 33.6741V11.0748L138.764 8.68652H149.004C155.787 8.68652 160.163 11.8373 160.163 16.3885C160.163 19.408 158.237 21.8149 154.912 23.0839ZM146.334 23.2152H148.566C152.461 23.2152 154.999 20.4583 154.999 16.3885C154.999 12.3625 152.461 9.51798 148.61 9.51798H146.334V23.2152Z" fill="white"/>
<path d="M120.866 24.5718H117.803V33.6742L121.041 36.5624H110.232L112.639 33.6742V11.0748L110.232 8.68652H120.866C127.649 8.68652 132.025 11.8373 132.025 16.6511C132.025 21.4648 127.649 24.5718 120.866 24.5718ZM120.429 9.51799H117.803V23.7404H120.385C124.324 23.7404 126.862 20.9834 126.862 16.6511C126.862 12.3625 124.324 9.51799 120.429 9.51799Z" fill="white"/>
<path d="M102.35 33.6742L104.407 36.5624H94.4728L96.8359 33.6742L94.3853 27.11H84.0577L81.4758 33.6742L83.8826 36.5624H78.5L80.5568 33.6742L90.5343 8.68652C91.9046 8.68652 93.1328 9.53225 93.6215 10.8124L102.35 33.6742ZM89.3528 13.7191L84.4078 26.2785H94.079L89.3528 13.7191Z" fill="white"/>
<g opacity="0.48">
<path d="M37.5854 26.3L32.0002 20.7148L26.415 26.3H29.6394L32.0003 23.9391L34.3612 26.3H37.5854Z" fill="white"/>
<path d="M53.6593 11.4808C53.6593 12.1104 53.1489 12.6207 52.5193 12.6207C51.8897 12.6207 51.3794 12.1104 51.3794 11.4808C51.3794 10.8512 51.8897 10.3408 52.5193 10.3408C53.1489 10.3408 53.6593 10.8512 53.6593 11.4808Z" fill="white"/>
<path d="M11.4798 12.6208C12.1094 12.6208 12.6197 12.1104 12.6197 11.4808C12.6197 10.8512 12.1094 10.3408 11.4798 10.3408C10.8502 10.3408 10.3398 10.8512 10.3398 11.4808C10.3398 12.1104 10.8502 12.6208 11.4798 12.6208Z" fill="white"/>
<path d="M37.5854 37.6997L32.0002 43.2849L26.415 37.6997H29.6394L32.0003 40.0606L34.3612 37.6997H37.5854Z" fill="white"/>
<path d="M53.6593 52.5194C53.6593 51.8898 53.1489 51.3794 52.5193 51.3794C51.8897 51.3794 51.3794 51.8898 51.3794 52.5194C51.3794 53.149 51.8897 53.6593 52.5193 53.6593C53.1489 53.6593 53.6593 53.149 53.6593 52.5194Z" fill="white"/>
<path d="M11.4798 51.3794C12.1094 51.3794 12.6197 51.8898 12.6197 52.5194C12.6197 53.149 12.1094 53.6593 11.4798 53.6593C10.8502 53.6593 10.3398 53.149 10.3398 52.5194C10.3398 51.8898 10.8502 51.3794 11.4798 51.3794Z" fill="white"/>
<path d="M20.7153 32.0002L26.3006 26.415V29.6394L23.9397 32.0002L26.3006 34.3611V37.5855L20.7153 32.0002Z" fill="white"/>
<path fill-rule="evenodd" clip-rule="evenodd" d="M58.22 29.639L60.581 32L58.22 34.361V36.4798L58.3002 36.5599H61.6391V39.8988L64 42.2599L61.6391 44.6207V47.9595H58.3002L55.9392 50.3205L53.5783 47.9595H50.2394V44.6207L48.2935 42.6747L46.8196 44.1486V46.8196H44.1486L42.6747 48.2935L44.6206 50.2395H47.9595V53.5784L50.3204 55.9393L47.9595 58.3002V61.6391H44.6206L42.2597 64.0001L39.8987 61.6391H36.5599V58.2192H34.3616L32.0006 60.5802L29.6397 58.2192H27.4401V61.6391H24.1013L21.7403 64.0001L19.3794 61.6391H16.0405V58.3002L13.6796 55.9393L16.0405 53.5784V50.2395H19.3794L21.3253 48.2936L19.8513 46.8196H17.18V44.1483L15.7065 42.6748L13.7606 44.6207V47.9595H10.4217L8.06076 50.3205L5.69979 47.9595H2.36094V44.6207L0 42.2597L2.36094 39.8988V36.5599H5.78121V34.361L3.42027 32L5.78121 29.6391V27.4402H2.36094V24.1013L0 21.7403L2.36094 19.3794V16.0405H5.69979L8.06076 13.6796L10.4217 16.0405H13.7606V19.3794L15.7065 21.3253L17.18 19.8517V17.1805H19.8513L21.3253 15.7065L19.3794 13.7606H16.0405V10.4217L13.6796 8.06076L16.0405 5.69982V2.36097H19.3794L21.7403 0L24.1013 2.36097H27.4401V5.78086H29.6397L32.0006 3.41989L34.3616 5.78086H36.5599V2.36097H39.8987L42.2597 0L44.6206 2.36097H47.9595V5.69982L50.3204 8.06076L47.9595 10.4217V13.7606H44.6206L42.6747 15.7065L44.1486 17.1805H46.8196V19.8515L48.2935 21.3253L50.2394 19.3794V16.0405H53.5783L55.9392 13.6796L58.3002 16.0405H61.6391V19.3794L64 21.7403L61.6391 24.1013V27.4402H58.3002L58.22 27.5203V29.639ZM6.64433 32L8.06089 30.5834V28.5801H10.0642L11.4807 27.1635L12.8974 28.5801H14.9007V30.5832L16.3172 32L14.9007 33.4169V35.4199H12.8974L11.4807 36.8365L10.0642 35.4199H8.06089V33.4166L6.64433 32ZM19.5418 32L17.1809 29.6391V26.3002H19.8513L21.521 27.9699L27.9696 21.5213L26.2998 19.8515V17.1805H23.6288L22.1551 15.7068L24.1012 13.7606H26.3008L26.2998 17.1805H29.6397L32.0006 19.5414L34.3615 17.1805H37.6999V19.8517L36.0305 21.5211L42.4792 27.9697L44.1486 26.3002H46.8196V23.6292L48.2935 22.1553L50.2394 24.1013V26.3002H46.8196L46.8204 29.639L44.4595 32L46.8204 34.361L46.8196 37.6999H50.2394V39.8988L48.2935 41.8447L46.8196 40.3708V37.6999H44.1486L42.4792 36.0304L36.0305 42.479L37.6999 44.1483V46.8196H34.3615L32.0006 44.4586L29.6397 46.8196H26.3008V50.2395H24.1012L22.1551 48.2933L23.6288 46.8196H26.3008L26.2998 44.1486L27.9696 42.4787L21.521 36.0301L19.8513 37.6999H17.1809V34.361L19.5418 32ZM47.6835 32L49.1001 30.5834V28.5801H51.1034L52.5199 27.1635L53.9366 28.5801H55.9398L55.9399 30.5832L57.3564 32L55.9399 33.4169L55.9398 35.4199H53.9366L52.5199 36.8365L51.1034 35.4199H49.1001V33.4166L47.6835 32ZM17.18 23.629L17.1809 26.3002H13.7606V24.1013L15.7065 22.1554L17.18 23.629ZM40.3711 17.1805H37.6999V13.7606H39.8988L41.8449 15.7067L40.3711 17.1805ZM36.8368 11.4806L35.4203 10.0638L35.4202 8.06079L33.417 8.06078L32.0004 6.64419L30.5838 8.06078H28.5805V10.0641L27.1639 11.4806L28.5805 12.8972V14.9006H30.5838L32.0004 16.3171L33.4172 14.9006H35.4203L35.4205 12.897L36.8368 11.4806ZM55.9387 17.8637C58.0797 17.8637 59.8153 19.5994 59.8153 21.7404C59.8153 23.8813 58.0797 25.617 55.9387 25.617C53.7977 25.617 52.0621 23.8813 52.0621 21.7404C52.0621 19.5994 53.7977 17.8637 55.9387 17.8637ZM11.9378 21.7404C11.9378 19.5994 10.2022 17.8637 8.06122 17.8637C5.92023 17.8637 4.18461 19.5994 4.18461 21.7404C4.18461 23.8813 5.92023 25.617 8.06122 25.617C10.2022 25.617 11.9378 23.8813 11.9378 21.7404ZM25.6176 8.0608C25.6176 5.9198 23.8819 4.18419 21.741 4.18419C19.6 4.18419 17.8643 5.9198 17.8643 8.0608C17.8643 10.2018 19.6 11.9374 21.741 11.9374C23.8819 11.9374 25.6176 10.2018 25.6176 8.0608ZM42.259 4.18419C44.4 4.18419 46.1356 5.9198 46.1356 8.0608C46.1356 10.2018 44.4 11.9374 42.259 11.9374C40.118 11.9374 38.3823 10.2018 38.3823 8.0608C38.3823 5.9198 40.118 4.18419 42.259 4.18419ZM21.7399 24.0203C22.999 24.0203 24.0198 22.9995 24.0198 21.7404C24.0198 20.4812 22.999 19.4604 21.7399 19.4604C20.4807 19.4604 19.4599 20.4812 19.4599 21.7404C19.4599 22.9995 20.4807 24.0203 21.7399 24.0203ZM44.5397 21.7404C44.5397 22.9995 43.5189 24.0203 42.2597 24.0203C41.0006 24.0203 39.9798 22.9995 39.9798 21.7404C39.9798 20.4812 41.0006 19.4604 42.2597 19.4604C43.5189 19.4604 44.5397 20.4812 44.5397 21.7404ZM17.18 40.3711L17.1809 37.6999H13.7606V39.8988L15.7065 41.8447L17.18 40.3711ZM40.3711 46.8196H37.6999L37.7005 50.2395H39.8988L41.8449 48.2933L40.3711 46.8196ZM36.8368 52.5194L35.4203 53.9362L35.4202 55.9393H33.417L32.0004 57.3559L30.5838 55.9393H28.5805V53.936L27.1639 52.5194L28.5805 51.1029V49.0995H30.5838L32.0004 47.683L33.4172 49.0995H35.4203L35.4205 51.1031L36.8368 52.5194ZM55.9387 46.1363C58.0797 46.1363 59.8153 44.4007 59.8153 42.2597C59.8153 40.1187 58.0797 38.3831 55.9387 38.3831C53.7977 38.3831 52.0621 40.1187 52.0621 42.2597C52.0621 44.4007 53.7977 46.1363 55.9387 46.1363ZM11.9378 42.2597C11.9378 44.4007 10.2022 46.1363 8.06122 46.1363C5.92023 46.1363 4.18461 44.4007 4.18461 42.2597C4.18461 40.1187 5.92023 38.3831 8.06122 38.3831C10.2022 38.3831 11.9378 40.1187 11.9378 42.2597ZM25.6176 55.9393C25.6176 58.0803 23.8819 59.8159 21.741 59.8159C19.6 59.8159 17.8643 58.0803 17.8643 55.9393C17.8643 53.7983 19.6 52.0627 21.741 52.0627C23.8819 52.0627 25.6176 53.7983 25.6176 55.9393ZM42.259 59.8159C44.4 59.8159 46.1356 58.0803 46.1356 55.9393C46.1356 53.7983 44.4 52.0627 42.259 52.0627C40.118 52.0627 38.3823 53.7983 38.3823 55.9393C38.3823 58.0803 40.118 59.8159 42.259 59.8159ZM21.7399 39.9798C22.999 39.9798 24.0198 41.0005 24.0198 42.2597C24.0198 43.5189 22.999 44.5396 21.7399 44.5396C20.4807 44.5396 19.4599 43.5189 19.4599 42.2597C19.4599 41.0005 20.4807 39.9798 21.7399 39.9798ZM44.5397 42.2597C44.5397 41.0005 43.5189 39.9798 42.2597 39.9798C41.0006 39.9798 39.9798 41.0005 39.9798 42.2597C39.9798 43.5189 41.0006 44.5396 42.2597 44.5396C43.5189 44.5396 44.5397 43.5189 44.5397 42.2597Z" fill="white"/>
<path d="M51.3794 31.9998C51.3794 31.3702 51.8898 30.8599 52.5193 30.8599C53.1489 30.8599 53.6593 31.3702 53.6593 31.9998C53.6593 32.6294 53.1489 33.1398 52.5193 33.1398C51.8898 33.1398 51.3794 32.6294 51.3794 31.9998Z" fill="white"/>
<path fill-rule="evenodd" clip-rule="evenodd" d="M27.1636 32.0001L28.5802 30.5835V28.5802H30.5835L32.0001 27.1636L33.4167 28.5802H35.42V30.5833L36.8365 32.0001L35.42 33.417V35.42H33.4167L32.0001 36.8366L30.5835 35.42H28.5802V33.4167L27.1636 32.0001ZM30.8596 32.0001C30.8596 31.3705 31.37 30.8601 31.9996 30.8601C32.6292 30.8601 33.1395 31.3705 33.1395 32.0001C33.1395 32.6297 32.6292 33.1401 31.9996 33.1401C31.37 33.1401 30.8596 32.6297 30.8596 32.0001Z" fill="white"/>
<path d="M40.0611 32.0001L37.7002 29.6393V26.415L43.2853 32.0001L37.7002 37.5852V34.361L40.0611 32.0001Z" fill="white"/>
<path d="M10.3398 31.9999C10.3398 31.3703 10.8502 30.8599 11.4798 30.8599C12.1094 30.8599 12.6197 31.3703 12.6197 31.9999C12.6197 32.6295 12.1094 33.1399 11.4798 33.1399C10.8502 33.1399 10.3398 32.6295 10.3398 31.9999Z" fill="white"/>
<path d="M42.2588 9.77096C43.2031 9.77096 43.9687 9.00539 43.9687 8.06102C43.9687 7.11664 43.2031 6.35107 42.2588 6.35107C41.3144 6.35107 40.5488 7.11664 40.5488 8.06102C40.5488 9.00539 41.3144 9.77096 42.2588 9.77096Z" fill="white"/>
<path d="M31.9994 12.6208C32.629 12.6208 33.1393 12.1104 33.1393 11.4808C33.1393 10.8512 32.629 10.3408 31.9994 10.3408C31.3698 10.3408 30.8594 10.8512 30.8594 11.4808C30.8594 12.1104 31.3698 12.6208 31.9994 12.6208Z" fill="white"/>
<path d="M21.7408 9.77096C22.6851 9.77096 23.4507 9.00539 23.4507 8.06102C23.4507 7.11664 22.6851 6.35107 21.7408 6.35107C20.7964 6.35107 20.0308 7.11664 20.0308 8.06102C20.0308 9.00539 20.7964 9.77096 21.7408 9.77096Z" fill="white"/>
<path d="M9.77096 21.7403C9.77096 22.6846 9.00539 23.4502 8.06101 23.4502C7.11664 23.4502 6.35107 22.6846 6.35107 21.7403C6.35107 20.7959 7.11664 20.0303 8.06101 20.0303C9.00539 20.0303 9.77096 20.7959 9.77096 21.7403Z" fill="white"/>
<path d="M9.77096 42.2597C9.77096 41.3153 9.00539 40.5498 8.06101 40.5498C7.11664 40.5498 6.35107 41.3153 6.35107 42.2597C6.35107 43.2041 7.11664 43.9697 8.06101 43.9697C9.00539 43.9697 9.77096 43.2041 9.77096 42.2597Z" fill="white"/>
<path d="M57.6484 42.2597C57.6484 41.3153 56.8829 40.5498 55.9385 40.5498C54.9941 40.5498 54.2285 41.3153 54.2285 42.2597C54.2285 43.2041 54.9941 43.9697 55.9385 43.9697C56.8829 43.9697 57.6484 43.2041 57.6484 42.2597Z" fill="white"/>
<path d="M42.2588 54.2295C43.2031 54.2295 43.9687 54.9951 43.9687 55.9395C43.9687 56.8838 43.2031 57.6494 42.2588 57.6494C41.3144 57.6494 40.5488 56.8838 40.5488 55.9395C40.5488 54.9951 41.3144 54.2295 42.2588 54.2295Z" fill="white"/>
<path d="M57.6484 21.7403C57.6484 22.6846 56.8829 23.4502 55.9385 23.4502C54.9941 23.4502 54.2285 22.6846 54.2285 21.7403C54.2285 20.7959 54.9941 20.0303 55.9385 20.0303C56.8829 20.0303 57.6484 20.7959 57.6484 21.7403Z" fill="white"/>
<path d="M31.9994 51.3794C32.629 51.3794 33.1393 51.8898 33.1393 52.5194C33.1393 53.149 32.629 53.6593 31.9994 53.6593C31.3698 53.6593 30.8594 53.149 30.8594 52.5194C30.8594 51.8898 31.3698 51.3794 31.9994 51.3794Z" fill="white"/>
<path d="M21.7408 54.2295C22.6851 54.2295 23.4507 54.9951 23.4507 55.9395C23.4507 56.8838 22.6851 57.6494 21.7408 57.6494C20.7964 57.6494 20.0308 56.8838 20.0308 55.9395C20.0308 54.9951 20.7964 54.2295 21.7408 54.2295Z" fill="white"/>
</g>
</g>
<defs>
<clipPath id="clip0_970_1484">
<rect width="264" height="64" fill="white"/>
</clipPath>
</defs>
</svg>
