<svg width="386" height="248" viewBox="0 0 386 248" fill="none" xmlns="http://www.w3.org/2000/svg">
<mask id="mask0_940_12047" style="mask-type:alpha" maskUnits="userSpaceOnUse" x="0" y="0" width="386" height="248">
<rect width="386" height="248" rx="24" fill="#D9D9D9"/>
</mask>
<g mask="url(#mask0_940_12047)">
<rect width="386" height="248" rx="24" fill="#6C6050"/>
<path d="M303.964 269.751L290.001 255.788L276.038 269.751H284.099L290.001 263.848L295.904 269.751H303.964Z" fill="white" fill-opacity="0.24"/>
<path d="M303.964 298.25L290.001 312.213L276.038 298.25H284.099L290.001 304.152L295.904 298.25H303.964Z" fill="white" fill-opacity="0.24"/>
<path d="M261.789 284L275.752 270.037V278.098L269.85 284L275.752 289.902V297.963L261.789 284Z" fill="white" fill-opacity="0.24"/>
<path fill-rule="evenodd" clip-rule="evenodd" d="M355.55 278.098L361.452 284L355.55 289.903V295.199L355.75 295.4H364.098V303.747L370 309.65L364.098 315.552V323.899H355.751L349.848 329.801L343.946 323.899H335.599V315.552L330.734 310.687L327.049 314.371V321.049H320.372L316.687 324.734L321.552 329.599H329.899V337.946L335.801 343.848L329.899 349.751V358.098H321.552L315.649 364L309.747 358.098H301.4V349.548H295.904L290.002 355.45L284.099 349.548H278.6V358.098H270.253L264.351 364L258.448 358.098H250.101V349.751L244.199 343.848L250.101 337.946V329.599H258.449L263.313 324.734L259.628 321.049H252.95V314.371L249.266 310.687L244.401 315.552V323.899H236.054L230.152 329.801L224.249 323.899H215.902V315.552L210 309.649L215.902 303.747V295.4H224.453V289.903L218.551 284L224.453 278.098V272.6H215.902V264.253L210 258.351L215.902 252.448V244.101H224.249L230.152 238.199L236.054 244.101H244.401V252.448L249.266 257.313L252.95 253.629V246.951H259.628L263.313 243.266L258.449 238.402H250.101V230.054L244.199 224.152L250.101 218.25V209.902H258.448L264.351 204L270.253 209.902H278.6V218.452H284.099L290.002 212.55L295.904 218.452H301.4V209.902H309.747L315.649 204L321.552 209.902H329.899V218.25L335.801 224.152L329.899 230.054V238.402H321.552L316.687 243.266L320.372 246.951H327.049V253.629L330.734 257.313L335.599 252.448V244.101H343.946L349.848 238.199L355.751 244.101H364.098V252.448L370 258.351L364.098 264.253V272.6H355.75L355.55 272.801V278.098ZM226.611 284L230.152 280.459V275.45H235.16L238.702 271.909L242.243 275.45H247.252V280.458L250.793 284L247.252 287.542V292.55H242.243L238.702 296.091L235.16 292.55H230.152V287.542L226.611 284ZM258.854 284L252.952 278.098V269.751H259.628L263.802 273.925L279.924 257.803L275.749 253.629V246.951H269.072L265.388 243.267L270.253 238.402H275.752V246.951H284.099L290.002 252.854L295.904 246.951H304.25V253.629L300.076 257.803L316.198 273.924L320.372 269.751H327.049V263.073L330.734 259.388L335.599 264.253V269.751L327.051 269.75V278.098L321.149 284L327.051 289.903V298.25L335.599 298.25V303.747L330.734 308.612L327.049 304.927V298.25H320.372L316.198 294.076L300.076 310.197L304.25 314.371V321.049H295.904L290.002 315.147L284.099 321.049H275.752V329.599H270.253L265.388 324.733L269.072 321.049H275.749V314.371L279.924 310.197L263.802 294.075L259.628 298.25H252.952V289.903L258.854 284ZM329.209 284L332.75 280.459V275.45H337.758L341.3 271.909L344.841 275.45H349.85L349.85 280.458L353.391 284L349.85 287.542L349.85 292.55H344.841L341.3 296.091L337.758 292.55H332.75V287.542L329.209 284ZM252.95 263.072V269.751H244.401V264.253L249.266 259.388L252.95 263.072ZM310.928 246.951H304.251L304.25 238.402H309.747L314.612 243.267L310.928 246.951ZM302.092 232.702L298.551 229.16L298.551 224.152L293.542 224.152L290.001 220.61L286.459 224.152H281.451V229.16L277.91 232.702L281.451 236.243V241.251H286.46L290.001 244.793L293.543 241.251H298.551L298.551 236.242L302.092 232.702ZM349.847 248.659C355.199 248.659 359.538 252.998 359.538 258.351C359.538 263.703 355.199 268.042 349.847 268.042C344.494 268.042 340.155 263.703 340.155 258.351C340.155 252.998 344.494 248.659 349.847 248.659ZM239.845 258.351C239.845 252.998 235.506 248.659 230.153 248.659C224.801 248.659 220.462 252.998 220.462 258.351C220.462 263.703 224.801 268.042 230.153 268.042C235.506 268.042 239.845 263.703 239.845 258.351ZM274.044 224.152C274.044 218.799 269.705 214.46 264.352 214.46C259 214.46 254.661 218.799 254.661 224.152C254.661 229.504 259 233.844 264.352 233.844C269.705 233.844 274.044 229.504 274.044 224.152ZM315.647 214.46C321 214.46 325.339 218.799 325.339 224.152C325.339 229.504 321 233.844 315.647 233.844C310.295 233.844 305.956 229.504 305.956 224.152C305.956 218.799 310.295 214.46 315.647 214.46ZM264.35 264.051C267.498 264.051 270.05 261.499 270.05 258.351C270.05 255.203 267.498 252.651 264.35 252.651C261.202 252.651 258.65 255.203 258.65 258.351C258.65 261.499 261.202 264.051 264.35 264.051ZM321.349 258.351C321.349 261.499 318.797 264.051 315.649 264.051C312.501 264.051 309.95 261.499 309.95 258.351C309.95 255.203 312.501 252.651 315.649 252.651C318.797 252.651 321.349 255.203 321.349 258.351ZM252.95 304.928V298.25H244.401V303.747L249.266 308.612L252.95 304.928ZM310.928 321.049H304.251V329.599H309.747L314.612 324.733L310.928 321.049ZM302.092 335.299L298.551 338.841L298.551 343.848L293.542 343.848L290.001 347.39L286.459 343.848H281.451V338.84L277.91 335.299L281.451 331.757V326.749H286.46L290.001 323.207L293.543 326.749H298.551L298.551 331.758L302.092 335.299ZM349.847 319.341C355.199 319.341 359.538 315.002 359.538 309.649C359.538 304.297 355.199 299.958 349.847 299.958C344.494 299.958 340.155 304.297 340.155 309.649C340.155 315.002 344.494 319.341 349.847 319.341ZM239.845 309.649C239.845 315.002 235.506 319.341 230.153 319.341C224.801 319.341 220.462 315.002 220.462 309.649C220.462 304.297 224.801 299.958 230.153 299.958C235.506 299.958 239.845 304.297 239.845 309.649ZM274.044 343.848C274.044 349.201 269.705 353.54 264.352 353.54C259 353.54 254.661 349.201 254.661 343.848C254.661 338.496 259 334.157 264.352 334.157C269.705 334.157 274.044 338.496 274.044 343.848ZM315.647 353.54C321 353.54 325.339 349.201 325.339 343.848C325.339 338.496 321 334.157 315.647 334.157C310.295 334.157 305.956 338.496 305.956 343.848C305.956 349.201 310.295 353.54 315.647 353.54ZM264.35 303.949C267.498 303.949 270.05 306.501 270.05 309.649C270.05 312.797 267.498 315.349 264.35 315.349C261.202 315.349 258.65 312.797 258.65 309.649C258.65 306.501 261.202 303.949 264.35 303.949ZM321.349 309.649C321.349 306.501 318.797 303.949 315.649 303.949C312.501 303.949 309.95 306.501 309.95 309.649C309.95 312.797 312.501 315.349 315.649 315.349C318.797 315.349 321.349 312.797 321.349 309.649Z" fill="white" fill-opacity="0.24"/>
<path fill-rule="evenodd" clip-rule="evenodd" d="M277.909 284L281.45 280.459V275.45H286.459L290 271.909L293.542 275.45H298.55V280.458L302.091 284L298.55 287.542V292.55H293.542L290 296.091L286.459 292.55H281.45V287.542L277.909 284ZM287.149 284C287.149 282.426 288.425 281.15 289.999 281.15C291.573 281.15 292.849 282.426 292.849 284C292.849 285.574 291.573 286.85 289.999 286.85C288.425 286.85 287.149 285.574 287.149 284Z" fill="white" fill-opacity="0.24"/>
<path d="M310.153 284L304.251 278.098V270.037L318.213 284L304.251 297.963V289.902L310.153 284Z" fill="white" fill-opacity="0.24"/>
<path d="M264.352 339.573C266.713 339.573 268.627 341.487 268.627 343.848C268.627 346.209 266.713 348.123 264.352 348.123C261.991 348.123 260.078 346.209 260.078 343.848C260.078 341.487 261.991 339.573 264.352 339.573Z" fill="white" fill-opacity="0.24"/>
<path d="M315.647 339.573C318.008 339.573 319.922 341.487 319.922 343.848C319.922 346.209 318.008 348.123 315.647 348.123C313.286 348.123 311.373 346.209 311.373 343.848C311.373 341.487 313.286 339.573 315.647 339.573Z" fill="white" fill-opacity="0.24"/>
<path d="M354.122 309.649C354.122 307.288 352.208 305.374 349.847 305.374C347.486 305.374 345.572 307.288 345.572 309.649C345.572 312.01 347.486 313.924 349.847 313.924C352.208 313.924 354.122 312.01 354.122 309.649Z" fill="white" fill-opacity="0.24"/>
<path d="M341.299 332.449C342.873 332.449 344.148 333.724 344.148 335.298C344.148 336.872 342.873 338.148 341.299 338.148C339.725 338.148 338.449 336.872 338.449 335.298C338.449 333.724 339.725 332.449 341.299 332.449Z" fill="white" fill-opacity="0.24"/>
<path d="M338.449 284C338.449 282.426 339.725 281.15 341.299 281.15C342.873 281.15 344.148 282.426 344.148 284C344.148 285.574 342.873 286.85 341.299 286.85C339.725 286.85 338.449 285.574 338.449 284Z" fill="white" fill-opacity="0.24"/>
<path d="M234.428 309.649C234.428 307.288 232.514 305.374 230.153 305.374C227.792 305.374 225.878 307.288 225.878 309.649C225.878 312.01 227.792 313.924 230.153 313.924C232.514 313.924 234.428 312.01 234.428 309.649Z" fill="white" fill-opacity="0.24"/>
<path d="M235.85 284C235.85 282.426 237.126 281.15 238.7 281.15C240.274 281.15 241.55 282.426 241.55 284C241.55 285.574 240.274 286.85 238.7 286.85C237.126 286.85 235.85 285.574 235.85 284Z" fill="white" fill-opacity="0.24"/>
<path d="M241.55 335.298C241.55 333.724 240.274 332.449 238.7 332.449C237.126 332.449 235.85 333.724 235.85 335.298C235.85 336.872 237.126 338.148 238.7 338.148C240.274 338.148 241.55 336.872 241.55 335.298Z" fill="white" fill-opacity="0.24"/>
<path d="M234.428 258.351C234.428 260.712 232.514 262.626 230.153 262.626C227.792 262.626 225.878 260.712 225.878 258.351C225.878 255.99 227.792 254.076 230.153 254.076C232.514 254.076 234.428 255.99 234.428 258.351Z" fill="white" fill-opacity="0.24"/>
<path d="M241.55 232.702C241.55 234.276 240.274 235.552 238.7 235.552C237.126 235.552 235.85 234.276 235.85 232.702C235.85 231.128 237.126 229.852 238.7 229.852C240.274 229.852 241.55 231.128 241.55 232.702Z" fill="white" fill-opacity="0.24"/>
<path d="M264.352 228.427C266.713 228.427 268.627 226.513 268.627 224.152C268.627 221.791 266.713 219.877 264.352 219.877C261.991 219.877 260.078 221.791 260.078 224.152C260.078 226.513 261.991 228.427 264.352 228.427Z" fill="white" fill-opacity="0.24"/>
<path d="M315.647 228.427C318.008 228.427 319.922 226.513 319.922 224.152C319.922 221.791 318.008 219.877 315.647 219.877C313.286 219.877 311.373 221.791 311.373 224.152C311.373 226.513 313.286 228.427 315.647 228.427Z" fill="white" fill-opacity="0.24"/>
<path d="M289.999 235.552C291.573 235.552 292.849 234.276 292.849 232.702C292.849 231.128 291.573 229.852 289.999 229.852C288.425 229.852 287.149 231.128 287.149 232.702C287.149 234.276 288.425 235.552 289.999 235.552Z" fill="white" fill-opacity="0.24"/>
<path d="M341.299 235.552C342.873 235.552 344.148 234.276 344.148 232.702C344.148 231.128 342.873 229.852 341.299 229.852C339.725 229.852 338.449 231.128 338.449 232.702C338.449 234.276 339.725 235.552 341.299 235.552Z" fill="white" fill-opacity="0.24"/>
<path d="M354.122 258.351C354.122 260.712 352.208 262.626 349.847 262.626C347.486 262.626 345.572 260.712 345.572 258.351C345.572 255.99 347.486 254.076 349.847 254.076C352.208 254.076 354.122 255.99 354.122 258.351Z" fill="white" fill-opacity="0.24"/>
<path d="M289.999 332.449C291.573 332.449 292.849 333.724 292.849 335.298C292.849 336.872 291.573 338.148 289.999 338.148C288.425 338.148 287.149 336.872 287.149 335.298C287.149 333.724 288.425 332.449 289.999 332.449Z" fill="white" fill-opacity="0.24"/>
<path d="M303.964 -50.2494L290.001 -64.2124L276.038 -50.2494H284.099L290.001 -56.1517L295.904 -50.2494H303.964Z" fill="white" fill-opacity="0.24"/>
<path d="M303.964 -21.7504L290.001 -7.78743L276.038 -21.7504H284.099L290.001 -15.8482L295.904 -21.7504H303.964Z" fill="white" fill-opacity="0.24"/>
<path d="M261.789 -36L275.752 -49.9631V-41.9021L269.85 -36L275.752 -30.0977V-22.0368L261.789 -36Z" fill="white" fill-opacity="0.24"/>
<path fill-rule="evenodd" clip-rule="evenodd" d="M355.55 -41.9024L361.452 -36L355.55 -30.0975V-24.8006L355.75 -24.6003H364.098V-16.253L370 -10.3502L364.098 -4.44833V3.8988H355.751L349.848 9.80122L343.946 3.8988H335.599V-4.44833L330.734 -9.31321L327.049 -5.62858V1.04887H320.372L316.687 4.7338L321.552 9.59863H329.899V17.9459L335.801 23.8482L329.899 29.7506V38.0977H321.552L315.649 44.0001L309.747 38.0977H301.4V29.548H295.904L290.002 35.4504L284.099 29.548H278.6V38.0977H270.253L264.351 44.0001L258.448 38.0977H250.101V29.7506L244.199 23.8482L250.101 17.9459V9.59863H258.449L263.313 4.73393L259.628 1.04887H252.95V-5.62919L249.266 -9.31308L244.401 -4.44833V3.8988H236.054L230.152 9.80122L224.249 3.8988H215.902V-4.44833L210 -10.3507L215.902 -16.253V-24.6003H224.453V-30.0975L218.551 -36L224.453 -41.9024V-47.3996H215.902V-55.7468L210 -61.6492L215.902 -67.5515V-75.8987H224.249L230.152 -81.8011L236.054 -75.8987H244.401V-67.5515L249.266 -62.6868L252.95 -66.3707V-73.0488H259.628L263.313 -76.7338L258.449 -81.5985H250.101V-89.9457L244.199 -95.8481L250.101 -101.75V-110.098H258.448L264.351 -116L270.253 -110.098H278.6V-101.548H284.099L290.002 -107.45L295.904 -101.548H301.4V-110.098H309.747L315.649 -116L321.552 -110.098H329.899V-101.75L335.801 -95.8481L329.899 -89.9457V-81.5985H321.552L316.687 -76.7337L320.372 -73.0488H327.049V-66.3713L330.734 -62.6867L335.599 -67.5515V-75.8987H343.946L349.848 -81.8011L355.751 -75.8987H364.098V-67.5515L370 -61.6492L364.098 -55.7468V-47.3996H355.75L355.55 -47.1993V-41.9024ZM226.611 -36L230.152 -39.5414V-44.5497H235.16L238.702 -48.0912L242.243 -44.5497H247.252V-39.5421L250.793 -36L247.252 -32.4578V-27.4502H242.243L238.702 -23.9087L235.16 -27.4502H230.152V-32.4584L226.611 -36ZM258.854 -36L252.952 -41.9024V-50.2495H259.628L263.802 -46.0752L279.924 -62.1967L275.749 -66.3713V-73.0488H269.072L265.388 -76.733L270.253 -81.5985H275.752V-73.0488H284.099L290.002 -67.1465L295.904 -73.0488H304.25V-66.3707L300.076 -62.1973L316.198 -46.0758L320.372 -50.2495H327.049V-56.9269L330.734 -60.6116L335.599 -55.7468V-50.2494L327.051 -50.2495V-41.9024L321.149 -36L327.051 -30.0975V-21.7504L335.599 -21.7504V-16.253L330.734 -11.3882L327.049 -15.0729V-21.7504H320.372L316.198 -25.9241L300.076 -9.80256L304.25 -5.62919V1.04887H295.904L290.002 -4.85339L284.099 1.04887H275.752V9.59863H270.253L265.388 4.73317L269.072 1.04887H275.749V-5.62858L279.924 -9.80317L263.802 -25.9247L259.628 -21.7504H252.952V-30.0975L258.854 -36ZM329.209 -36L332.75 -39.5415V-44.5497H337.758L341.3 -48.0912L344.841 -44.5497H349.85L349.85 -39.5421L353.391 -36L349.85 -32.4578L349.85 -27.4502H344.841L341.3 -23.9087L337.758 -27.4502H332.75V-32.4584L329.209 -36ZM252.95 -56.9275V-50.2495H244.401V-55.7468L249.266 -60.6115L252.95 -56.9275ZM310.928 -73.0488H304.251L304.25 -81.5985H309.747L314.612 -76.7332L310.928 -73.0488ZM302.092 -87.2984L298.551 -90.8404L298.551 -95.848L293.542 -95.848L290.001 -99.3895L286.459 -95.848H281.451V-90.8398L277.91 -87.2984L281.451 -83.757V-78.7486H286.46L290.001 -75.2072L293.543 -78.7486H298.551L298.551 -83.7576L302.092 -87.2984ZM349.847 -71.3407C355.199 -71.3407 359.538 -67.0016 359.538 -61.6491C359.538 -56.2966 355.199 -51.9576 349.847 -51.9576C344.494 -51.9576 340.155 -56.2966 340.155 -61.6491C340.155 -67.0016 344.494 -71.3407 349.847 -71.3407ZM239.845 -61.6491C239.845 -67.0016 235.506 -71.3407 230.153 -71.3407C224.801 -71.3407 220.462 -67.0016 220.462 -61.6491C220.462 -56.2966 224.801 -51.9576 230.153 -51.9576C235.506 -51.9576 239.845 -56.2966 239.845 -61.6491ZM274.044 -95.848C274.044 -101.201 269.705 -105.54 264.352 -105.54C259 -105.54 254.661 -101.201 254.661 -95.848C254.661 -90.4955 259 -86.1565 264.352 -86.1565C269.705 -86.1565 274.044 -90.4955 274.044 -95.848ZM315.647 -105.54C321 -105.54 325.339 -101.201 325.339 -95.848C325.339 -90.4955 321 -86.1565 315.647 -86.1565C310.295 -86.1565 305.956 -90.4955 305.956 -95.848C305.956 -101.201 310.295 -105.54 315.647 -105.54ZM264.35 -55.9493C267.498 -55.9493 270.05 -58.5012 270.05 -61.6491C270.05 -64.797 267.498 -67.3489 264.35 -67.3489C261.202 -67.3489 258.65 -64.797 258.65 -61.6491C258.65 -58.5012 261.202 -55.9493 264.35 -55.9493ZM321.349 -61.6491C321.349 -58.5012 318.797 -55.9493 315.649 -55.9493C312.501 -55.9493 309.95 -58.5012 309.95 -61.6491C309.95 -64.797 312.501 -67.3489 315.649 -67.3489C318.797 -67.3489 321.349 -64.797 321.349 -61.6491ZM252.95 -15.0723V-21.7504H244.401V-16.253L249.266 -11.3883L252.95 -15.0723ZM310.928 1.04887H304.251V9.59863H309.747L314.612 4.73328L310.928 1.04887ZM302.092 15.2985L298.551 18.8405L298.551 23.8482L293.542 23.8482L290.001 27.3897L286.459 23.8482H281.451V18.8399L277.91 15.2985L281.451 11.7571V6.7487H286.46L290.001 3.20737L293.543 6.7487H298.551L298.551 11.7577L302.092 15.2985ZM349.847 -0.65921C355.199 -0.65921 359.538 -4.99825 359.538 -10.3507C359.538 -15.7032 355.199 -20.0423 349.847 -20.0423C344.494 -20.0423 340.155 -15.7032 340.155 -10.3507C340.155 -4.99825 344.494 -0.65921 349.847 -0.65921ZM239.845 -10.3507C239.845 -4.99825 235.506 -0.65921 230.153 -0.65921C224.801 -0.65921 220.462 -4.99825 220.462 -10.3507C220.462 -15.7032 224.801 -20.0423 230.153 -20.0423C235.506 -20.0423 239.845 -15.7032 239.845 -10.3507ZM274.044 23.8481C274.044 29.2006 269.705 33.5397 264.352 33.5397C259 33.5397 254.661 29.2006 254.661 23.8481C254.661 18.4957 259 14.1566 264.352 14.1566C269.705 14.1566 274.044 18.4957 274.044 23.8481ZM315.647 33.5397C321 33.5397 325.339 29.2006 325.339 23.8481C325.339 18.4957 321 14.1566 315.647 14.1566C310.295 14.1566 305.956 18.4957 305.956 23.8481C305.956 29.2006 310.295 33.5397 315.647 33.5397ZM264.35 -16.0506C267.498 -16.0506 270.05 -13.4987 270.05 -10.3508C270.05 -7.20284 267.498 -4.65094 264.35 -4.65094C261.202 -4.65094 258.65 -7.20284 258.65 -10.3508C258.65 -13.4987 261.202 -16.0506 264.35 -16.0506ZM321.349 -10.3508C321.349 -13.4987 318.797 -16.0506 315.649 -16.0506C312.501 -16.0506 309.95 -13.4987 309.95 -10.3508C309.95 -7.20284 312.501 -4.65094 315.649 -4.65094C318.797 -4.65094 321.349 -7.20284 321.349 -10.3508Z" fill="white" fill-opacity="0.24"/>
<path fill-rule="evenodd" clip-rule="evenodd" d="M277.909 -36L281.45 -39.5414V-44.5497H286.459L290 -48.0912L293.542 -44.5497H298.55V-39.5421L302.091 -36L298.55 -32.4578V-27.4502H293.542L290 -23.9087L286.459 -27.4502H281.45V-32.4584L277.909 -36ZM287.149 -36C287.149 -37.574 288.425 -38.8499 289.999 -38.8499C291.573 -38.8499 292.849 -37.574 292.849 -36C292.849 -34.426 291.573 -33.15 289.999 -33.15C288.425 -33.15 287.149 -34.426 287.149 -36Z" fill="white" fill-opacity="0.24"/>
<path d="M310.153 -36L304.251 -41.9021V-49.9627L318.213 -36L304.251 -22.0372V-30.0977L310.153 -36Z" fill="white" fill-opacity="0.24"/>
<path d="M264.352 19.5733C266.713 19.5733 268.627 21.4872 268.627 23.8481C268.627 26.2091 266.713 28.123 264.352 28.123C261.991 28.123 260.078 26.2091 260.078 23.8481C260.078 21.4872 261.991 19.5733 264.352 19.5733Z" fill="white" fill-opacity="0.24"/>
<path d="M315.647 19.5733C318.008 19.5733 319.922 21.4872 319.922 23.8481C319.922 26.2091 318.008 28.123 315.647 28.123C313.286 28.123 311.373 26.2091 311.373 23.8481C311.373 21.4872 313.286 19.5733 315.647 19.5733Z" fill="white" fill-opacity="0.24"/>
<path d="M354.122 -10.3507C354.122 -12.7117 352.208 -14.6256 349.847 -14.6256C347.486 -14.6256 345.572 -12.7117 345.572 -10.3507C345.572 -7.98978 347.486 -6.07587 349.847 -6.07587C352.208 -6.07587 354.122 -7.98978 354.122 -10.3507Z" fill="white" fill-opacity="0.24"/>
<path d="M341.299 12.4485C342.873 12.4485 344.148 13.7245 344.148 15.2984C344.148 16.8724 342.873 18.1483 341.299 18.1483C339.725 18.1483 338.449 16.8724 338.449 15.2984C338.449 13.7245 339.725 12.4485 341.299 12.4485Z" fill="white" fill-opacity="0.24"/>
<path d="M338.449 -36C338.449 -37.5739 339.725 -38.8498 341.299 -38.8498C342.873 -38.8498 344.148 -37.5739 344.148 -36C344.148 -34.4261 342.873 -33.15 341.299 -33.15C339.725 -33.15 338.449 -34.4261 338.449 -36Z" fill="white" fill-opacity="0.24"/>
<path d="M234.428 -10.3507C234.428 -12.7117 232.514 -14.6256 230.153 -14.6256C227.792 -14.6256 225.878 -12.7117 225.878 -10.3507C225.878 -7.98978 227.792 -6.07587 230.153 -6.07587C232.514 -6.07587 234.428 -7.98978 234.428 -10.3507Z" fill="white" fill-opacity="0.24"/>
<path d="M235.85 -36C235.85 -37.574 237.126 -38.8499 238.7 -38.8499C240.274 -38.8499 241.55 -37.574 241.55 -36C241.55 -34.4261 240.274 -33.15 238.7 -33.15C237.126 -33.15 235.85 -34.4261 235.85 -36Z" fill="white" fill-opacity="0.24"/>
<path d="M241.55 15.2984C241.55 13.7245 240.274 12.4485 238.7 12.4485C237.126 12.4485 235.85 13.7245 235.85 15.2984C235.85 16.8724 237.126 18.1483 238.7 18.1483C240.274 18.1483 241.55 16.8724 241.55 15.2984Z" fill="white" fill-opacity="0.24"/>
<path d="M234.428 -61.6491C234.428 -59.2882 232.514 -57.3743 230.153 -57.3743C227.792 -57.3743 225.878 -59.2882 225.878 -61.6491C225.878 -64.0101 227.792 -65.924 230.153 -65.924C232.514 -65.924 234.428 -64.0101 234.428 -61.6491Z" fill="white" fill-opacity="0.24"/>
<path d="M241.55 -87.2983C241.55 -85.7243 240.274 -84.4484 238.7 -84.4484C237.126 -84.4484 235.85 -85.7243 235.85 -87.2983C235.85 -88.8723 237.126 -90.1482 238.7 -90.1482C240.274 -90.1482 241.55 -88.8723 241.55 -87.2983Z" fill="white" fill-opacity="0.24"/>
<path d="M264.352 -91.5731C266.713 -91.5731 268.627 -93.4871 268.627 -95.848C268.627 -98.209 266.713 -100.123 264.352 -100.123C261.991 -100.123 260.078 -98.209 260.078 -95.848C260.078 -93.4871 261.991 -91.5731 264.352 -91.5731Z" fill="white" fill-opacity="0.24"/>
<path d="M315.647 -91.5731C318.008 -91.5731 319.922 -93.4871 319.922 -95.848C319.922 -98.209 318.008 -100.123 315.647 -100.123C313.286 -100.123 311.373 -98.209 311.373 -95.848C311.373 -93.4871 313.286 -91.5731 315.647 -91.5731Z" fill="white" fill-opacity="0.24"/>
<path d="M289.999 -84.4484C291.573 -84.4484 292.849 -85.7243 292.849 -87.2983C292.849 -88.8723 291.573 -90.1482 289.999 -90.1482C288.425 -90.1482 287.149 -88.8723 287.149 -87.2983C287.149 -85.7243 288.425 -84.4484 289.999 -84.4484Z" fill="white" fill-opacity="0.24"/>
<path d="M341.299 -84.4484C342.873 -84.4484 344.148 -85.7243 344.148 -87.2983C344.148 -88.8723 342.873 -90.1482 341.299 -90.1482C339.725 -90.1482 338.449 -88.8723 338.449 -87.2983C338.449 -85.7243 339.725 -84.4484 341.299 -84.4484Z" fill="white" fill-opacity="0.24"/>
<path d="M354.122 -61.6491C354.122 -59.2882 352.208 -57.3743 349.847 -57.3743C347.486 -57.3743 345.572 -59.2882 345.572 -61.6491C345.572 -64.0101 347.486 -65.924 349.847 -65.924C352.208 -65.924 354.122 -64.0101 354.122 -61.6491Z" fill="white" fill-opacity="0.24"/>
<path d="M289.999 12.4485C291.573 12.4485 292.849 13.7245 292.849 15.2984C292.849 16.8724 291.573 18.1483 289.999 18.1483C288.425 18.1483 287.149 16.8724 287.149 15.2984C287.149 13.7245 288.425 12.4485 289.999 12.4485Z" fill="white" fill-opacity="0.24"/>
<path d="M303.964 109.751L290.001 95.7876L276.038 109.751H284.099L290.001 103.848L295.904 109.751H303.964Z" fill="white" fill-opacity="0.24"/>
<path d="M303.964 138.25L290.001 152.213L276.038 138.25H284.099L290.001 144.152L295.904 138.25H303.964Z" fill="white" fill-opacity="0.24"/>
<path d="M261.789 124L275.752 110.037V118.098L269.85 124L275.752 129.902V137.963L261.789 124Z" fill="white" fill-opacity="0.24"/>
<path fill-rule="evenodd" clip-rule="evenodd" d="M355.55 118.098L361.452 124L355.55 129.903V135.199L355.75 135.4H364.098V143.747L370 149.65L364.098 155.552V163.899H355.751L349.848 169.801L343.946 163.899H335.599V155.552L330.734 150.687L327.049 154.371V161.049H320.372L316.687 164.734L321.552 169.599H329.899V177.946L335.801 183.848L329.899 189.751V198.098H321.552L315.649 204L309.747 198.098H301.4V189.548H295.904L290.002 195.45L284.099 189.548H278.6V198.098H270.253L264.351 204L258.448 198.098H250.101V189.751L244.199 183.848L250.101 177.946V169.599H258.449L263.313 164.734L259.628 161.049H252.95V154.371L249.266 150.687L244.401 155.552V163.899H236.054L230.152 169.801L224.249 163.899H215.902V155.552L210 149.649L215.902 143.747V135.4H224.453V129.903L218.551 124L224.453 118.098V112.6H215.902V104.253L210 98.3508L215.902 92.4485V84.1013H224.249L230.152 78.1989L236.054 84.1013H244.401V92.4485L249.266 97.3132L252.95 93.6293V86.9512H259.628L263.313 83.2662L258.449 78.4015H250.101V70.0543L244.199 64.1519L250.101 58.2496V49.9024H258.448L264.351 44L270.253 49.9024H278.6V58.4522H284.099L290.002 52.5497L295.904 58.4522H301.4V49.9024H309.747L315.649 44L321.552 49.9024H329.899V58.2496L335.801 64.1519L329.899 70.0543V78.4015H321.552L316.687 83.2663L320.372 86.9512H327.049V93.6287L330.734 97.3133L335.599 92.4485V84.1013H343.946L349.848 78.1989L355.751 84.1013H364.098V92.4485L370 98.3508L364.098 104.253V112.6H355.75L355.55 112.801V118.098ZM226.611 124L230.152 120.459V115.45H235.16L238.702 111.909L242.243 115.45H247.252V120.458L250.793 124L247.252 127.542V132.55H242.243L238.702 136.091L235.16 132.55H230.152V127.542L226.611 124ZM258.854 124L252.952 118.098V109.751H259.628L263.802 113.925L279.924 97.8033L275.749 93.6287V86.9512H269.072L265.388 83.267L270.253 78.4015H275.752V86.9512H284.099L290.002 92.8535L295.904 86.9512H304.25V93.6293L300.076 97.8027L316.198 113.924L320.372 109.751H327.049V103.073L330.734 99.3884L335.599 104.253V109.751L327.051 109.75V118.098L321.149 124L327.051 129.903V138.25L335.599 138.25V143.747L330.734 148.612L327.049 144.927V138.25H320.372L316.198 134.076L300.076 150.197L304.25 154.371V161.049H295.904L290.002 155.147L284.099 161.049H275.752V169.599H270.253L265.388 164.733L269.072 161.049H275.749V154.371L279.924 150.197L263.802 134.075L259.628 138.25H252.952V129.903L258.854 124ZM329.209 124L332.75 120.459V115.45H337.758L341.3 111.909L344.841 115.45H349.85L349.85 120.458L353.391 124L349.85 127.542L349.85 132.55H344.841L341.3 136.091L337.758 132.55H332.75V127.542L329.209 124ZM252.95 103.072V109.751H244.401V104.253L249.266 99.3885L252.95 103.072ZM310.928 86.9512H304.251L304.25 78.4015H309.747L314.612 83.2668L310.928 86.9512ZM302.092 72.7016L298.551 69.1596L298.551 64.152L293.542 64.152L290.001 60.6105L286.459 64.152H281.451V69.1602L277.91 72.7016L281.451 76.243V81.2514H286.46L290.001 84.7928L293.543 81.2514H298.551L298.551 76.2424L302.092 72.7016ZM349.847 88.6593C355.199 88.6593 359.538 92.9984 359.538 98.3509C359.538 103.703 355.199 108.042 349.847 108.042C344.494 108.042 340.155 103.703 340.155 98.3509C340.155 92.9984 344.494 88.6593 349.847 88.6593ZM239.845 98.3509C239.845 92.9984 235.506 88.6593 230.153 88.6593C224.801 88.6593 220.462 92.9984 220.462 98.3509C220.462 103.703 224.801 108.042 230.153 108.042C235.506 108.042 239.845 103.703 239.845 98.3509ZM274.044 64.152C274.044 58.7995 269.705 54.4605 264.352 54.4605C259 54.4605 254.661 58.7995 254.661 64.152C254.661 69.5045 259 73.8435 264.352 73.8435C269.705 73.8435 274.044 69.5045 274.044 64.152ZM315.647 54.4605C321 54.4605 325.339 58.7995 325.339 64.152C325.339 69.5045 321 73.8435 315.647 73.8435C310.295 73.8435 305.956 69.5045 305.956 64.152C305.956 58.7995 310.295 54.4605 315.647 54.4605ZM264.35 104.051C267.498 104.051 270.05 101.499 270.05 98.3509C270.05 95.203 267.498 92.6511 264.35 92.6511C261.202 92.6511 258.65 95.203 258.65 98.3509C258.65 101.499 261.202 104.051 264.35 104.051ZM321.349 98.3509C321.349 101.499 318.797 104.051 315.649 104.051C312.501 104.051 309.95 101.499 309.95 98.3509C309.95 95.203 312.501 92.6511 315.649 92.6511C318.797 92.6511 321.349 95.203 321.349 98.3509ZM252.95 144.928V138.25H244.401V143.747L249.266 148.612L252.95 144.928ZM310.928 161.049H304.251V169.599H309.747L314.612 164.733L310.928 161.049ZM302.092 175.299L298.551 178.841L298.551 183.848L293.542 183.848L290.001 187.39L286.459 183.848H281.451V178.84L277.91 175.299L281.451 171.757V166.749H286.46L290.001 163.207L293.543 166.749H298.551L298.551 171.758L302.092 175.299ZM349.847 159.341C355.199 159.341 359.538 155.002 359.538 149.649C359.538 144.297 355.199 139.958 349.847 139.958C344.494 139.958 340.155 144.297 340.155 149.649C340.155 155.002 344.494 159.341 349.847 159.341ZM239.845 149.649C239.845 155.002 235.506 159.341 230.153 159.341C224.801 159.341 220.462 155.002 220.462 149.649C220.462 144.297 224.801 139.958 230.153 139.958C235.506 139.958 239.845 144.297 239.845 149.649ZM274.044 183.848C274.044 189.201 269.705 193.54 264.352 193.54C259 193.54 254.661 189.201 254.661 183.848C254.661 178.496 259 174.157 264.352 174.157C269.705 174.157 274.044 178.496 274.044 183.848ZM315.647 193.54C321 193.54 325.339 189.201 325.339 183.848C325.339 178.496 321 174.157 315.647 174.157C310.295 174.157 305.956 178.496 305.956 183.848C305.956 189.201 310.295 193.54 315.647 193.54ZM264.35 143.949C267.498 143.949 270.05 146.501 270.05 149.649C270.05 152.797 267.498 155.349 264.35 155.349C261.202 155.349 258.65 152.797 258.65 149.649C258.65 146.501 261.202 143.949 264.35 143.949ZM321.349 149.649C321.349 146.501 318.797 143.949 315.649 143.949C312.501 143.949 309.95 146.501 309.95 149.649C309.95 152.797 312.501 155.349 315.649 155.349C318.797 155.349 321.349 152.797 321.349 149.649Z" fill="white" fill-opacity="0.24"/>
<path fill-rule="evenodd" clip-rule="evenodd" d="M277.909 124L281.45 120.459V115.45H286.459L290 111.909L293.542 115.45H298.55V120.458L302.091 124L298.55 127.542V132.55H293.542L290 136.091L286.459 132.55H281.45V127.542L277.909 124ZM287.149 124C287.149 122.426 288.425 121.15 289.999 121.15C291.573 121.15 292.849 122.426 292.849 124C292.849 125.574 291.573 126.85 289.999 126.85C288.425 126.85 287.149 125.574 287.149 124Z" fill="white" fill-opacity="0.24"/>
<path d="M310.153 124L304.251 118.098V110.037L318.213 124L304.251 137.963V129.902L310.153 124Z" fill="white" fill-opacity="0.24"/>
<path d="M264.352 179.573C266.713 179.573 268.627 181.487 268.627 183.848C268.627 186.209 266.713 188.123 264.352 188.123C261.991 188.123 260.078 186.209 260.078 183.848C260.078 181.487 261.991 179.573 264.352 179.573Z" fill="white" fill-opacity="0.24"/>
<path d="M315.647 179.573C318.008 179.573 319.922 181.487 319.922 183.848C319.922 186.209 318.008 188.123 315.647 188.123C313.286 188.123 311.373 186.209 311.373 183.848C311.373 181.487 313.286 179.573 315.647 179.573Z" fill="white" fill-opacity="0.24"/>
<path d="M354.122 149.649C354.122 147.288 352.208 145.374 349.847 145.374C347.486 145.374 345.572 147.288 345.572 149.649C345.572 152.01 347.486 153.924 349.847 153.924C352.208 153.924 354.122 152.01 354.122 149.649Z" fill="white" fill-opacity="0.24"/>
<path d="M341.299 172.449C342.873 172.449 344.148 173.724 344.148 175.298C344.148 176.872 342.873 178.148 341.299 178.148C339.725 178.148 338.449 176.872 338.449 175.298C338.449 173.724 339.725 172.449 341.299 172.449Z" fill="white" fill-opacity="0.24"/>
<path d="M338.449 124C338.449 122.426 339.725 121.15 341.299 121.15C342.873 121.15 344.148 122.426 344.148 124C344.148 125.574 342.873 126.85 341.299 126.85C339.725 126.85 338.449 125.574 338.449 124Z" fill="white" fill-opacity="0.24"/>
<path d="M234.428 149.649C234.428 147.288 232.514 145.374 230.153 145.374C227.792 145.374 225.878 147.288 225.878 149.649C225.878 152.01 227.792 153.924 230.153 153.924C232.514 153.924 234.428 152.01 234.428 149.649Z" fill="white" fill-opacity="0.24"/>
<path d="M235.85 124C235.85 122.426 237.126 121.15 238.7 121.15C240.274 121.15 241.55 122.426 241.55 124C241.55 125.574 240.274 126.85 238.7 126.85C237.126 126.85 235.85 125.574 235.85 124Z" fill="white" fill-opacity="0.24"/>
<path d="M241.55 175.298C241.55 173.724 240.274 172.449 238.7 172.449C237.126 172.449 235.85 173.724 235.85 175.298C235.85 176.872 237.126 178.148 238.7 178.148C240.274 178.148 241.55 176.872 241.55 175.298Z" fill="white" fill-opacity="0.24"/>
<path d="M234.428 98.3509C234.428 100.712 232.514 102.626 230.153 102.626C227.792 102.626 225.878 100.712 225.878 98.3509C225.878 95.9899 227.792 94.076 230.153 94.076C232.514 94.076 234.428 95.9899 234.428 98.3509Z" fill="white" fill-opacity="0.24"/>
<path d="M241.55 72.7017C241.55 74.2757 240.274 75.5516 238.7 75.5516C237.126 75.5516 235.85 74.2757 235.85 72.7017C235.85 71.1277 237.126 69.8518 238.7 69.8518C240.274 69.8518 241.55 71.1277 241.55 72.7017Z" fill="white" fill-opacity="0.24"/>
<path d="M264.352 68.4269C266.713 68.4269 268.627 66.5129 268.627 64.152C268.627 61.791 266.713 59.8771 264.352 59.8771C261.991 59.8771 260.078 61.791 260.078 64.152C260.078 66.5129 261.991 68.4269 264.352 68.4269Z" fill="white" fill-opacity="0.24"/>
<path d="M315.647 68.4269C318.008 68.4269 319.922 66.5129 319.922 64.152C319.922 61.791 318.008 59.8771 315.647 59.8771C313.286 59.8771 311.373 61.791 311.373 64.152C311.373 66.5129 313.286 68.4269 315.647 68.4269Z" fill="white" fill-opacity="0.24"/>
<path d="M289.999 75.5516C291.573 75.5516 292.849 74.2757 292.849 72.7017C292.849 71.1277 291.573 69.8518 289.999 69.8518C288.425 69.8518 287.149 71.1277 287.149 72.7017C287.149 74.2757 288.425 75.5516 289.999 75.5516Z" fill="white" fill-opacity="0.24"/>
<path d="M341.299 75.5516C342.873 75.5516 344.148 74.2757 344.148 72.7017C344.148 71.1277 342.873 69.8518 341.299 69.8518C339.725 69.8518 338.449 71.1277 338.449 72.7017C338.449 74.2757 339.725 75.5516 341.299 75.5516Z" fill="white" fill-opacity="0.24"/>
<path d="M354.122 98.3509C354.122 100.712 352.208 102.626 349.847 102.626C347.486 102.626 345.572 100.712 345.572 98.3509C345.572 95.9899 347.486 94.076 349.847 94.076C352.208 94.076 354.122 95.9899 354.122 98.3509Z" fill="white" fill-opacity="0.24"/>
<path d="M289.999 172.449C291.573 172.449 292.849 173.724 292.849 175.298C292.849 176.872 291.573 178.148 289.999 178.148C288.425 178.148 287.149 176.872 287.149 175.298C287.149 173.724 288.425 172.449 289.999 172.449Z" fill="white" fill-opacity="0.24"/>
<path fill-rule="evenodd" clip-rule="evenodd" d="M87.576 58.255C87.911 58.39 88.2735 58.4575 88.6635 58.4575C88.9285 58.4575 89.1885 58.4225 89.4435 58.3525C89.7035 58.2775 89.9435 58.1725 90.1635 58.0375C90.3885 57.8975 90.5885 57.735 90.7635 57.55L90.246 57.025C90.056 57.25 89.8235 57.425 89.5485 57.55C89.2785 57.67 88.991 57.73 88.686 57.73C88.406 57.73 88.146 57.68 87.906 57.58C87.666 57.48 87.456 57.34 87.276 57.16C87.096 56.98 86.956 56.77 86.856 56.53C86.761 56.29 86.7135 56.03 86.7135 55.75C86.7135 55.465 86.761 55.2025 86.856 54.9625C86.956 54.7225 87.0935 54.515 87.2685 54.34C87.4435 54.16 87.6485 54.02 87.8835 53.92C88.1235 53.82 88.3835 53.77 88.6635 53.77C88.9685 53.77 89.261 53.8325 89.541 53.9575C89.821 54.0775 90.0585 54.255 90.2535 54.49L90.7785 53.95C90.6135 53.76 90.4185 53.5975 90.1935 53.4625C89.9735 53.3275 89.731 53.225 89.466 53.155C89.206 53.08 88.9385 53.0425 88.6635 53.0425C88.2785 53.0425 87.9185 53.1125 87.5835 53.2525C87.2485 53.3875 86.9535 53.58 86.6985 53.83C86.4485 54.075 86.2535 54.3625 86.1135 54.6925C85.9785 55.0175 85.911 55.37 85.911 55.75C85.911 56.13 85.9785 56.485 86.1135 56.815C86.2535 57.14 86.4485 57.4275 86.6985 57.6775C86.9535 57.9225 87.246 58.115 87.576 58.255ZM95.2792 58.4575C94.8992 58.4575 94.5442 58.39 94.2142 58.255C93.8842 58.115 93.5917 57.9225 93.3367 57.6775C93.0867 57.4275 92.8917 57.14 92.7517 56.815C92.6167 56.485 92.5492 56.13 92.5492 55.75C92.5492 55.37 92.6167 55.0175 92.7517 54.6925C92.8917 54.3625 93.0867 54.075 93.3367 53.83C93.5917 53.58 93.8842 53.3875 94.2142 53.2525C94.5442 53.1125 94.8992 53.0425 95.2792 53.0425C95.6592 53.0425 96.0142 53.1125 96.3442 53.2525C96.6792 53.3875 96.9717 53.58 97.2217 53.83C97.4717 54.075 97.6667 54.3625 97.8067 54.6925C97.9467 55.0175 98.0167 55.37 98.0167 55.75C98.0167 56.13 97.9467 56.485 97.8067 56.815C97.6667 57.14 97.4717 57.4275 97.2217 57.6775C96.9717 57.9225 96.6792 58.115 96.3442 58.255C96.0142 58.39 95.6592 58.4575 95.2792 58.4575ZM95.2867 57.73C95.5567 57.73 95.8067 57.68 96.0367 57.58C96.2717 57.48 96.4767 57.3425 96.6517 57.1675C96.8267 56.9875 96.9642 56.7775 97.0642 56.5375C97.1642 56.2925 97.2142 56.03 97.2142 55.75C97.2142 55.465 97.1642 55.2025 97.0642 54.9625C96.9642 54.7225 96.8267 54.515 96.6517 54.34C96.4767 54.16 96.2717 54.02 96.0367 53.92C95.8067 53.82 95.5567 53.77 95.2867 53.77C95.0117 53.77 94.7567 53.82 94.5217 53.92C94.2867 54.02 94.0817 54.16 93.9067 54.34C93.7317 54.515 93.5942 54.7225 93.4942 54.9625C93.3992 55.2025 93.3517 55.465 93.3517 55.75C93.3517 56.03 93.3992 56.2925 93.4942 56.5375C93.5942 56.7775 93.7317 56.9875 93.9067 57.1675C94.0817 57.3425 94.2867 57.48 94.5217 57.58C94.7567 57.68 95.0117 57.73 95.2867 57.73ZM100.196 58.375V53.125H102.573C102.923 53.125 103.228 53.19 103.488 53.32C103.753 53.45 103.958 53.6325 104.103 53.8675C104.253 54.0975 104.328 54.3675 104.328 54.6775C104.328 55.0225 104.231 55.32 104.036 55.57C103.841 55.82 103.578 56 103.248 56.11L104.418 58.375H103.548L102.461 56.2225H100.983V58.375H100.196ZM100.983 55.5625H102.513C102.823 55.5625 103.071 55.485 103.256 55.33C103.446 55.17 103.541 54.955 103.541 54.685C103.541 54.425 103.446 54.215 103.256 54.055C103.071 53.895 102.823 53.815 102.513 53.815H100.983V55.5625ZM80.3988 58.375V53.125H84.2688V53.815H81.1863V55.39H83.2113V56.0575H81.1863V57.685H84.2988V58.375H80.3988ZM75.4671 57.67H74.3871V53.83H75.4671C75.7421 53.83 75.9971 53.88 76.2321 53.98C76.4671 54.075 76.6721 54.21 76.8471 54.385C77.0271 54.555 77.1646 54.7575 77.2596 54.9925C77.3596 55.2275 77.4096 55.48 77.4096 55.75C77.4096 56.025 77.3596 56.28 77.2596 56.515C77.1646 56.745 77.0271 56.9475 76.8471 57.1225C76.6721 57.2925 76.4671 57.4275 76.2321 57.5275C75.9971 57.6225 75.7421 57.67 75.4671 57.67ZM73.5996 53.125V58.375H75.4521C75.8471 58.375 76.2121 58.31 76.5471 58.18C76.8871 58.045 77.1821 57.86 77.4321 57.625C77.6821 57.39 77.8746 57.115 78.0096 56.8C78.1496 56.48 78.2196 56.13 78.2196 55.75C78.2196 55.375 78.1496 55.0275 78.0096 54.7075C77.8696 54.3875 77.6746 54.11 77.4246 53.875C77.1746 53.64 76.8821 53.4575 76.5471 53.3275C76.2121 53.1925 75.8471 53.125 75.4521 53.125H73.5996Z" fill="white"/>
<path fill-rule="evenodd" clip-rule="evenodd" d="M110.642 58.0045C110.346 58.2957 110.102 58.5902 109.889 58.8882C109.109 59.9803 108.91 60.7763 109.041 61.3415C109.175 61.9191 109.636 62.1911 110.008 62.2655L110.158 61.9688C109.889 61.9149 109.506 61.645 109.416 61.2547C109.322 60.8519 109.444 60.1735 110.202 59.1118C110.378 58.8659 110.624 58.6172 110.927 58.3656C110.931 58.3688 110.935 58.3719 110.939 58.375C111.311 58.671 112.118 58.91 112.97 58.8437C113.832 58.7768 114.822 58.4065 115.924 57.6198C116.514 57.2262 117.324 56.5363 117.833 55.738C118.088 55.3374 118.275 54.8984 118.31 54.4479C118.322 54.3082 118.318 54.1685 118.298 54.0296C118.775 53.7158 119.197 53.4 119.535 53.0823C119.902 52.7362 120.184 52.3747 120.318 51.997C120.455 51.6099 120.379 51.2622 120.158 50.875L119.879 51.0185C120.042 51.3044 120.057 51.5824 119.956 51.8684C119.851 52.1638 119.618 52.4754 119.271 52.8023C118.997 53.06 118.613 53.319 118.172 53.5795C118.104 53.42 118.01 53.2631 117.888 53.1106L117.588 53.3509C117.699 53.4896 117.78 53.6306 117.835 53.773C117.501 53.9608 117.145 54.1493 116.787 54.3387C116.502 54.4896 116.216 54.641 115.939 54.793C115.494 55.0374 115.031 55.2835 114.567 55.5303C113.763 55.9577 112.955 56.3874 112.226 56.8149C111.733 57.1043 111.325 57.3973 110.98 57.6938C110.869 57.4843 110.781 57.2011 110.774 56.8524C110.768 56.4716 110.847 56.0217 111.074 55.529C111.417 55.5461 111.781 55.5458 112.146 55.5187C113.114 55.4471 114.132 55.1851 114.797 54.5206C115.426 53.8919 115.62 53.3724 115.499 52.9563C115.383 52.5515 115.128 52.3537 114.845 52.2812C114.583 52.1973 114.014 52.2366 113.469 52.5109C112.911 52.7917 112.218 53.3238 111.436 54.2615C111.191 54.5563 110.996 54.8468 110.844 55.1291C110.397 55.0948 109.999 55.0321 109.703 54.9661L109.619 55.3416C109.899 55.4037 110.26 55.4627 110.667 55.5001C110.461 55.9922 110.383 56.4526 110.39 56.8591C110.398 57.3221 110.492 57.7175 110.642 58.0045ZM111.294 58.0787C111.708 57.7722 112.196 57.4615 112.733 57.1467C113.457 56.7225 114.25 56.3005 115.048 55.8763C115.514 55.6286 115.981 55.3801 116.436 55.1301C116.959 54.8433 117.465 54.5545 117.932 54.2639C117.933 54.3151 117.931 54.3663 117.927 54.4175C117.898 54.7843 117.743 55.1626 117.508 55.5312C117.037 56.2703 116.272 56.9256 115.708 57.3015L115.703 57.3051C114.652 58.0555 113.757 58.3138 112.97 58.375C112.195 58.4352 111.574 58.2861 111.294 58.0787ZM112.118 55.1352C111.832 55.1563 111.547 55.1603 111.273 55.1521C111.397 54.9427 111.549 54.7274 111.732 54.5077C112.489 53.5993 113.096 53.2076 113.595 52.9563C114.102 52.7012 114.47 52.7017 114.611 52.75C114.752 52.7983 114.94 52.8969 115.002 53.1106C115.061 53.3163 115.127 53.6465 114.525 54.2486C113.959 54.8149 113.054 55.0658 112.118 55.1352Z" fill="white"/>
<path fill-rule="evenodd" clip-rule="evenodd" d="M132.464 58.4575C132.074 58.4575 131.712 58.39 131.377 58.255C131.047 58.115 130.754 57.9225 130.499 57.6775C130.249 57.4275 130.054 57.14 129.914 56.815C129.779 56.485 129.712 56.13 129.712 55.75C129.712 55.37 129.779 55.0175 129.914 54.6925C130.054 54.3625 130.249 54.075 130.499 53.83C130.754 53.58 131.049 53.3875 131.384 53.2525C131.719 53.1125 132.079 53.0425 132.464 53.0425C132.739 53.0425 133.007 53.08 133.267 53.155C133.532 53.225 133.774 53.3275 133.994 53.4625C134.219 53.5975 134.414 53.76 134.579 53.95L134.054 54.49C133.859 54.255 133.622 54.0775 133.342 53.9575C133.062 53.8325 132.769 53.77 132.464 53.77C132.184 53.77 131.924 53.82 131.684 53.92C131.449 54.02 131.244 54.16 131.069 54.34C130.894 54.515 130.757 54.7225 130.657 54.9625C130.562 55.2025 130.514 55.465 130.514 55.75C130.514 56.03 130.562 56.29 130.657 56.53C130.757 56.77 130.897 56.98 131.077 57.16C131.257 57.34 131.467 57.48 131.707 57.58C131.947 57.68 132.207 57.73 132.487 57.73C132.792 57.73 133.079 57.67 133.349 57.55C133.624 57.425 133.857 57.25 134.047 57.025L134.564 57.55C134.389 57.735 134.189 57.8975 133.964 58.0375C133.744 58.1725 133.504 58.2775 133.244 58.3525C132.989 58.4225 132.729 58.4575 132.464 58.4575ZM138.015 58.255C138.35 58.39 138.713 58.4575 139.103 58.4575C139.368 58.4575 139.628 58.4225 139.883 58.3525C140.143 58.2775 140.383 58.1725 140.603 58.0375C140.828 57.8975 141.028 57.735 141.203 57.55L140.685 57.025C140.495 57.25 140.263 57.425 139.988 57.55C139.718 57.67 139.43 57.73 139.125 57.73C138.845 57.73 138.585 57.68 138.345 57.58C138.105 57.48 137.895 57.34 137.715 57.16C137.535 56.98 137.395 56.77 137.295 56.53C137.2 56.29 137.153 56.03 137.153 55.75C137.153 55.465 137.2 55.2025 137.295 54.9625C137.395 54.7225 137.533 54.515 137.708 54.34C137.883 54.16 138.088 54.02 138.323 53.92C138.563 53.82 138.823 53.77 139.103 53.77C139.408 53.77 139.7 53.8325 139.98 53.9575C140.26 54.0775 140.498 54.255 140.693 54.49L141.218 53.95C141.053 53.76 140.858 53.5975 140.633 53.4625C140.413 53.3275 140.17 53.225 139.905 53.155C139.645 53.08 139.378 53.0425 139.103 53.0425C138.718 53.0425 138.358 53.1125 138.023 53.2525C137.688 53.3875 137.393 53.58 137.138 53.83C136.888 54.075 136.693 54.3625 136.553 54.6925C136.418 55.0175 136.35 55.37 136.35 55.75C136.35 56.13 136.418 56.485 136.553 56.815C136.693 57.14 136.888 57.4275 137.138 57.6775C137.393 57.9225 137.685 58.115 138.015 58.255ZM162.795 58.255C163.125 58.39 163.48 58.4575 163.86 58.4575C164.24 58.4575 164.595 58.39 164.925 58.255C165.26 58.115 165.552 57.9225 165.802 57.6775C166.052 57.4275 166.247 57.14 166.387 56.815C166.527 56.485 166.597 56.13 166.597 55.75C166.597 55.37 166.527 55.0175 166.387 54.6925C166.247 54.3625 166.052 54.075 165.802 53.83C165.552 53.58 165.26 53.3875 164.925 53.2525C164.595 53.1125 164.24 53.0425 163.86 53.0425C163.48 53.0425 163.125 53.1125 162.795 53.2525C162.465 53.3875 162.172 53.58 161.917 53.83C161.667 54.075 161.472 54.3625 161.332 54.6925C161.197 55.0175 161.13 55.37 161.13 55.75C161.13 56.13 161.197 56.485 161.332 56.815C161.472 57.14 161.667 57.4275 161.917 57.6775C162.172 57.9225 162.465 58.115 162.795 58.255ZM164.617 57.58C164.387 57.68 164.137 57.73 163.867 57.73C163.592 57.73 163.337 57.68 163.102 57.58C162.867 57.48 162.662 57.3425 162.487 57.1675C162.312 56.9875 162.175 56.7775 162.075 56.5375C161.98 56.2925 161.932 56.03 161.932 55.75C161.932 55.465 161.98 55.2025 162.075 54.9625C162.175 54.7225 162.312 54.515 162.487 54.34C162.662 54.16 162.867 54.02 163.102 53.92C163.337 53.82 163.592 53.77 163.867 53.77C164.137 53.77 164.387 53.82 164.617 53.92C164.852 54.02 165.057 54.16 165.232 54.34C165.407 54.515 165.545 54.7225 165.645 54.9625C165.745 55.2025 165.795 55.465 165.795 55.75C165.795 56.03 165.745 56.2925 165.645 56.5375C165.545 56.7775 165.407 56.9875 165.232 57.1675C165.057 57.3425 164.852 57.48 164.617 57.58ZM186.118 58.45C185.698 58.45 185.293 58.3675 184.903 58.2025C184.513 58.0375 184.168 57.805 183.868 57.505L184.348 56.95C184.633 57.23 184.923 57.4375 185.218 57.5725C185.518 57.7075 185.83 57.775 186.155 57.775C186.41 57.775 186.633 57.74 186.823 57.67C187.018 57.595 187.168 57.49 187.273 57.355C187.378 57.22 187.43 57.0675 187.43 56.8975C187.43 56.6625 187.348 56.4825 187.183 56.3575C187.018 56.2325 186.745 56.1375 186.365 56.0725L185.488 55.93C185.008 55.845 184.648 55.69 184.408 55.465C184.173 55.24 184.055 54.94 184.055 54.565C184.055 54.265 184.135 54.0025 184.295 53.7775C184.455 53.5475 184.68 53.37 184.97 53.245C185.265 53.12 185.605 53.0575 185.99 53.0575C186.37 53.0575 186.743 53.12 187.108 53.245C187.478 53.365 187.81 53.54 188.105 53.77L187.67 54.37C187.105 53.94 186.533 53.725 185.953 53.725C185.723 53.725 185.523 53.7575 185.353 53.8225C185.183 53.8875 185.05 53.98 184.955 54.1C184.86 54.215 184.813 54.35 184.813 54.505C184.813 54.72 184.885 54.885 185.03 55C185.175 55.11 185.415 55.19 185.75 55.24L186.598 55.3825C187.153 55.4725 187.56 55.635 187.82 55.87C188.08 56.105 188.21 56.4275 188.21 56.8375C188.21 57.1575 188.123 57.44 187.948 57.685C187.773 57.925 187.528 58.1125 187.213 58.2475C186.898 58.3825 186.533 58.45 186.118 58.45ZM178.281 58.375V53.125H182.151V53.815H179.068V55.39H181.093V56.0575H179.068V57.685H182.181V58.375H178.281ZM175.071 53.125V58.375H175.858V53.125H175.071ZM168.777 58.375V53.125H171.154C171.504 53.125 171.809 53.19 172.069 53.32C172.334 53.45 172.539 53.6325 172.684 53.8675C172.834 54.0975 172.909 54.3675 172.909 54.6775C172.909 55.0225 172.812 55.32 172.617 55.57C172.422 55.82 172.159 56 171.829 56.11L172.999 58.375H172.129L171.042 56.2225H169.564V58.375H168.777ZM169.564 55.5625H171.094C171.404 55.5625 171.652 55.485 171.837 55.33C172.027 55.17 172.122 54.955 172.122 54.685C172.122 54.425 172.027 54.215 171.837 54.055C171.652 53.895 171.404 53.815 171.094 53.815H169.564V55.5625ZM157.183 58.45C156.763 58.45 156.358 58.3675 155.968 58.2025C155.578 58.0375 155.233 57.805 154.933 57.505L155.413 56.95C155.698 57.23 155.988 57.4375 156.283 57.5725C156.583 57.7075 156.895 57.775 157.22 57.775C157.475 57.775 157.698 57.74 157.888 57.67C158.083 57.595 158.233 57.49 158.338 57.355C158.443 57.22 158.495 57.0675 158.495 56.8975C158.495 56.6625 158.413 56.4825 158.248 56.3575C158.083 56.2325 157.81 56.1375 157.43 56.0725L156.553 55.93C156.073 55.845 155.713 55.69 155.473 55.465C155.238 55.24 155.12 54.94 155.12 54.565C155.12 54.265 155.2 54.0025 155.36 53.7775C155.52 53.5475 155.745 53.37 156.035 53.245C156.33 53.12 156.67 53.0575 157.055 53.0575C157.435 53.0575 157.808 53.12 158.173 53.245C158.543 53.365 158.875 53.54 159.17 53.77L158.735 54.37C158.17 53.94 157.598 53.725 157.018 53.725C156.788 53.725 156.588 53.7575 156.418 53.8225C156.248 53.8875 156.115 53.98 156.02 54.1C155.925 54.215 155.878 54.35 155.878 54.505C155.878 54.72 155.95 54.885 156.095 55C156.24 55.11 156.48 55.19 156.815 55.24L157.663 55.3825C158.218 55.4725 158.625 55.635 158.885 55.87C159.145 56.105 159.275 56.4275 159.275 56.8375C159.275 57.1575 159.188 57.44 159.013 57.685C158.838 57.925 158.593 58.1125 158.278 58.2475C157.963 58.3825 157.598 58.45 157.183 58.45ZM149.945 58.2025C150.335 58.3675 150.74 58.45 151.16 58.45C151.575 58.45 151.94 58.3825 152.255 58.2475C152.57 58.1125 152.815 57.925 152.99 57.685C153.165 57.44 153.252 57.1575 153.252 56.8375C153.252 56.4275 153.122 56.105 152.862 55.87C152.602 55.635 152.195 55.4725 151.64 55.3825L150.792 55.24C150.457 55.19 150.217 55.11 150.072 55C149.927 54.885 149.855 54.72 149.855 54.505C149.855 54.35 149.902 54.215 149.997 54.1C150.092 53.98 150.225 53.8875 150.395 53.8225C150.565 53.7575 150.765 53.725 150.995 53.725C151.575 53.725 152.147 53.94 152.712 54.37L153.147 53.77C152.852 53.54 152.52 53.365 152.15 53.245C151.785 53.12 151.412 53.0575 151.032 53.0575C150.647 53.0575 150.307 53.12 150.012 53.245C149.722 53.37 149.497 53.5475 149.337 53.7775C149.177 54.0025 149.097 54.265 149.097 54.565C149.097 54.94 149.215 55.24 149.45 55.465C149.69 55.69 150.05 55.845 150.53 55.93L151.407 56.0725C151.787 56.1375 152.06 56.2325 152.225 56.3575C152.39 56.4825 152.472 56.6625 152.472 56.8975C152.472 57.0675 152.42 57.22 152.315 57.355C152.21 57.49 152.06 57.595 151.865 57.67C151.675 57.74 151.452 57.775 151.197 57.775C150.872 57.775 150.56 57.7075 150.26 57.5725C149.965 57.4375 149.675 57.23 149.39 56.95L148.91 57.505C149.21 57.805 149.555 58.0375 149.945 58.2025ZM143.323 58.375V53.125H147.193V53.815H144.111V55.39H146.136V56.0575H144.111V57.685H147.223V58.375H143.323ZM125.242 53.125L123.074 58.375H123.892L124.507 56.8375H126.854L127.462 58.375H128.317L126.172 53.125H125.242ZM126.599 56.185H124.762L125.684 53.875L126.599 56.185Z" fill="white"/>
<path d="M188.433 46.8515H182.225L183.729 45.0463V30.9217L182.225 29.4291H188.433L186.956 30.9217V45.0463L188.433 46.8515Z" fill="white"/>
<path d="M172.741 38.4275L176.187 44.1438C176.843 45.1831 177.363 45.4566 178.731 45.4566C178.32 46.4412 177.445 47.125 176.05 47.125C174.792 47.125 173.999 46.7147 173.151 45.1831L169.705 39.0018C169.486 39.0292 169.267 39.0292 169.049 39.0292H167.38V45.0463L168.966 46.8515H162.648L164.153 45.0463V30.9217L162.648 29.4291H169.049C173.288 29.4291 176.023 31.3983 176.023 34.2428C176.023 36.13 174.82 37.6343 172.741 38.4275ZM167.38 38.5095H168.775C171.209 38.5095 172.796 36.7864 172.796 34.2428C172.796 31.7265 171.209 29.9487 168.802 29.9487H167.38V38.5095Z" fill="white"/>
<path d="M149.635 47.125C144.575 47.125 141.074 44.046 141.074 38.1813C141.074 32.2346 144.575 29.1556 149.635 29.1556C154.668 29.1556 158.168 32.2346 158.168 38.1813C158.168 44.046 154.668 47.125 149.635 47.125ZM149.635 46.66C152.644 46.66 154.668 44.3742 154.668 38.1813C154.668 31.9064 152.671 29.6205 149.635 29.6205C146.572 29.6205 144.575 31.9064 144.575 38.1813C144.575 44.3742 146.599 46.66 149.635 46.66Z" fill="white"/>
<path d="M136.558 46.8515H130.35L131.854 45.0463V30.9217L130.35 29.4291H136.558L135.081 30.9217V45.0463L136.558 46.8515Z" fill="white"/>
<path d="M120.819 38.4275L124.265 44.1438C124.922 45.1831 125.441 45.4566 126.809 45.4566C126.399 46.4412 125.523 47.125 124.128 47.125C122.87 47.125 122.077 46.7147 121.229 45.1831L117.783 39.0018C117.564 39.0292 117.345 39.0292 117.127 39.0292H115.458V45.0463L117.045 46.8515H110.727L112.231 45.0463V30.9217L110.727 29.4291H117.127C121.366 29.4291 124.101 31.3983 124.101 34.2428C124.101 36.13 122.898 37.6343 120.819 38.4275ZM115.458 38.5095H116.853C119.287 38.5095 120.874 36.7864 120.874 34.2428C120.874 31.7265 119.287 29.9487 116.88 29.9487H115.458V38.5095Z" fill="white"/>
<path d="M99.5408 39.3574H97.6262V45.0463L99.6502 46.8515H92.8945L94.3988 45.0463V30.9217L92.8945 29.4291H99.5408C103.78 29.4291 106.515 31.3983 106.515 34.4069C106.515 37.4155 103.78 39.3574 99.5408 39.3574ZM99.2673 29.9487H97.6262V38.8377H99.2399C101.701 38.8377 103.288 37.1146 103.288 34.4069C103.288 31.7265 101.701 29.9487 99.2673 29.9487Z" fill="white"/>
<path d="M87.9686 45.0463L89.2541 46.8515H83.0455L84.5225 45.0463L82.9908 40.9437H76.536L74.9223 45.0463L76.4266 46.8515H73.0625L74.348 45.0463L80.584 29.4291C81.4404 29.4291 82.208 29.9577 82.5135 30.7578L87.9686 45.0463ZM79.8455 32.5744L76.7548 40.4241H82.7994L79.8455 32.5744Z" fill="white"/>
<path d="M47.8035 40.4376L44.3128 36.9469L40.822 40.4376H42.8372L44.3128 38.9621L45.7884 40.4376H47.8035Z" fill="white" fill-opacity="0.24"/>
<path d="M57.8496 31.1754C57.8496 31.5689 57.5306 31.8879 57.1371 31.8879C56.7437 31.8879 56.4247 31.5689 56.4247 31.1754C56.4247 30.7819 56.7437 30.4629 57.1371 30.4629C57.5306 30.4629 57.8496 30.7819 57.8496 31.1754Z" fill="white" fill-opacity="0.24"/>
<path d="M31.4875 31.8879C31.881 31.8879 32.2 31.5689 32.2 31.1754C32.2 30.7819 31.881 30.463 31.4875 30.463C31.094 30.463 30.775 30.7819 30.775 31.1754C30.775 31.5689 31.094 31.8879 31.4875 31.8879Z" fill="white" fill-opacity="0.24"/>
<path d="M47.8035 47.5624L44.3128 51.0531L40.822 47.5624H42.8372L44.3128 49.038L45.7884 47.5624H47.8035Z" fill="white" fill-opacity="0.24"/>
<path d="M57.8496 56.8246C57.8496 56.4311 57.5306 56.1121 57.1371 56.1121C56.7437 56.1121 56.4247 56.4311 56.4247 56.8246C56.4247 57.2181 56.7437 57.5371 57.1371 57.5371C57.5306 57.5371 57.8496 57.2181 57.8496 56.8246Z" fill="white" fill-opacity="0.24"/>
<path d="M31.4875 56.1121C31.881 56.1121 32.2 56.4311 32.2 56.8246C32.2 57.2181 31.881 57.5371 31.4875 57.5371C31.094 57.5371 30.775 57.2181 30.775 56.8246C30.775 56.4311 31.094 56.1121 31.4875 56.1121Z" fill="white" fill-opacity="0.24"/>
<path d="M37.2597 44L40.7504 40.5092V42.5245L39.2749 44L40.7504 45.4756V47.4908L37.2597 44Z" fill="white" fill-opacity="0.24"/>
<path fill-rule="evenodd" clip-rule="evenodd" d="M60.7 42.5244L62.1756 44L60.7 45.4756V46.7999L60.7501 46.8499H62.8369V48.9367L64.3125 50.4124L62.8369 51.8879V53.9747H60.7501L59.2745 55.4503L57.7989 53.9747H55.7121V51.8879L54.4959 50.6717L53.5748 51.5929V53.2622H51.9054L50.9842 54.1835L52.2004 55.3997H54.2872V57.4865L55.7628 58.9621L54.2872 60.4376V62.5244H52.2004L50.7248 64L49.2492 62.5244H47.1624V60.387H45.7885L44.3129 61.8626L42.8373 60.387H41.4626V62.5244H39.3758L37.9002 64L36.4246 62.5244H34.3378V60.4376L32.8622 58.9621L34.3378 57.4865V55.3997H36.4246L37.6408 54.1835L36.7195 53.2622H35.05V51.5927L34.1291 50.6717L32.9129 51.8879V53.9747H30.8261L29.3505 55.4503L27.8749 53.9747H25.7881V51.8879L24.3125 50.4123L25.7881 48.9367V46.8499H27.9258V45.4756L26.4502 44L27.9258 42.5244V41.1501H25.7881V39.0633L24.3125 37.5877L25.7881 36.1121V34.0253H27.8749L29.3505 32.5497L30.8261 34.0253H32.9129V36.1121L34.1291 37.3283L35.05 36.4073V34.7378H36.7195L37.6408 33.8166L36.4246 32.6004H34.3378V30.5136L32.8622 29.038L34.3378 27.5624V25.4756H36.4246L37.9002 24L39.3758 25.4756H41.4626V27.613H42.8373L44.3129 26.1374L45.7885 27.613H47.1624V25.4756H49.2492L50.7248 24L52.2004 25.4756H54.2872V27.5624L55.7628 29.038L54.2872 30.5136V32.6004H52.2004L50.9842 33.8166L51.9054 34.7378H53.5748V36.4072L54.4959 37.3283L55.7121 36.1121V34.0253H57.7989L59.2745 32.5497L60.7501 34.0253H62.8369V36.1121L64.3125 37.5877L62.8369 39.0633V41.1501H60.7501L60.7 41.2002V42.5244ZM28.4652 44L29.3506 43.1146V41.8626H30.6026L31.488 40.9772L32.3734 41.8626H33.6254V43.1145L34.5108 44L33.6254 44.8855V46.1375H32.3734L31.488 47.0228L30.6026 46.1375H29.3506V44.8854L28.4652 44ZM36.5261 44L35.0505 42.5244V40.4376H36.7195L37.7631 41.4812L41.7935 37.4508L40.7498 36.4072V34.7378H39.0805L38.1594 33.8167L39.3758 32.6004H40.7505V34.7378H42.8373L44.3129 36.2134L45.7885 34.7378H47.8749V36.4073L46.8316 37.4507L50.862 41.4811L51.9054 40.4376H53.5748V38.7683L54.4959 37.8471L55.7121 39.0633V40.4376L53.5748 40.4376L53.5752 42.5244L52.0997 44L53.5752 45.4756L53.5748 47.5624H55.7121V48.9367L54.4959 50.153L53.5748 49.2318V47.5624H51.9054L50.862 46.519L46.8316 50.5494L47.8749 51.5927V53.2622H45.7885L44.3129 51.7867L42.8373 53.2622H40.7505V55.3997H39.3758L38.1594 54.1833L39.0805 53.2622H40.7498V51.5929L41.7935 50.5492L37.7631 46.5188L36.7195 47.5624H35.0505V45.4756L36.5261 44ZM54.1147 44L55 43.1146V41.8626H56.2521L57.1374 40.9772L58.0229 41.8626H59.2749L59.2749 43.1145L60.1603 44L59.2749 44.8856L59.2749 46.1375H58.0229L57.1374 47.0228L56.2521 46.1375H55V44.8854L54.1147 44ZM35.05 38.7681L35.0505 40.4376H32.9129V39.0633L34.129 37.8471L35.05 38.7681ZM49.5445 34.7378H47.8749V32.6004H49.2492L50.4656 33.8167L49.5445 34.7378ZM47.3355 31.1754L46.4502 30.2899L46.4501 29.038L45.1981 29.038L44.3127 28.1526L43.4274 29.038H42.1753V30.29L41.2899 31.1754L42.1753 32.0608V33.3129H43.4274L44.3127 34.1982L45.1982 33.3129H46.4502L46.4503 32.0606L47.3355 31.1754ZM59.2742 35.1648C60.6123 35.1648 61.6971 36.2496 61.6971 37.5877C61.6971 38.9258 60.6123 40.0106 59.2742 40.0106C57.9361 40.0106 56.8513 38.9258 56.8513 37.5877C56.8513 36.2496 57.9361 35.1648 59.2742 35.1648ZM31.7736 37.5877C31.7736 36.2496 30.6889 35.1648 29.3508 35.1648C28.0126 35.1648 26.9279 36.2496 26.9279 37.5877C26.9279 38.9258 28.0126 40.0106 29.3508 40.0106C30.6889 40.0106 31.7736 38.9258 31.7736 37.5877ZM40.3235 29.038C40.3235 27.6999 39.2387 26.6151 37.9006 26.6151C36.5625 26.6151 35.4777 27.6999 35.4777 29.038C35.4777 30.3761 36.5625 31.4609 37.9006 31.4609C39.2387 31.4609 40.3235 30.3761 40.3235 29.038ZM50.7243 26.6151C52.0625 26.6151 53.1472 27.6999 53.1472 29.038C53.1472 30.3761 52.0625 31.4609 50.7243 31.4609C49.3862 31.4609 48.3015 30.3761 48.3015 29.038C48.3015 27.6999 49.3862 26.6151 50.7243 26.6151ZM37.8999 39.0127C38.6869 39.0127 39.3249 38.3747 39.3249 37.5877C39.3249 36.8007 38.6869 36.1628 37.8999 36.1628C37.1129 36.1628 36.475 36.8007 36.475 37.5877C36.475 38.3747 37.1129 39.0127 37.8999 39.0127ZM52.1498 37.5877C52.1498 38.3747 51.5118 39.0127 50.7248 39.0127C49.9379 39.0127 49.2999 38.3747 49.2999 37.5877C49.2999 36.8007 49.9379 36.1628 50.7248 36.1628C51.5118 36.1628 52.1498 36.8007 52.1498 37.5877ZM35.05 49.2319L35.0505 47.5624H32.9129V48.9367L34.129 50.1529L35.05 49.2319ZM49.5445 53.2622H47.8749L47.8753 55.3997H49.2492L50.4656 54.1833L49.5445 53.2622ZM47.3355 56.8246L46.4502 57.7101L46.4501 58.962L45.1981 58.962L44.3127 59.8474L43.4274 58.962H42.1753V57.71L41.2899 56.8246L42.1753 55.9393V54.6872H43.4274L44.3127 53.8018L45.1982 54.6872H46.4502L46.4503 55.9394L47.3355 56.8246ZM59.2742 52.8352C60.6123 52.8352 61.6971 51.7504 61.6971 50.4123C61.6971 49.0742 60.6123 47.9894 59.2742 47.9894C57.9361 47.9894 56.8513 49.0742 56.8513 50.4123C56.8513 51.7504 57.9361 52.8352 59.2742 52.8352ZM31.7736 50.4123C31.7736 51.7504 30.6889 52.8352 29.3508 52.8352C28.0126 52.8352 26.9279 51.7504 26.9279 50.4123C26.9279 49.0742 28.0126 47.9894 29.3508 47.9894C30.6889 47.9894 31.7736 49.0742 31.7736 50.4123ZM40.3235 58.962C40.3235 60.3002 39.2387 61.3849 37.9006 61.3849C36.5625 61.3849 35.4777 60.3002 35.4777 58.962C35.4777 57.6239 36.5625 56.5392 37.9006 56.5392C39.2387 56.5392 40.3235 57.6239 40.3235 58.962ZM50.7243 61.3849C52.0625 61.3849 53.1472 60.3002 53.1472 58.962C53.1472 57.6239 52.0625 56.5392 50.7243 56.5392C49.3862 56.5392 48.3015 57.6239 48.3015 58.962C48.3015 60.3002 49.3862 61.3849 50.7243 61.3849ZM37.8999 48.9874C38.6869 48.9874 39.3249 49.6253 39.3249 50.4123C39.3249 51.1993 38.6869 51.8373 37.8999 51.8373C37.1129 51.8373 36.475 51.1993 36.475 50.4123C36.475 49.6253 37.1129 48.9874 37.8999 48.9874ZM52.1498 50.4123C52.1498 49.6253 51.5118 48.9874 50.7248 48.9874C49.9379 48.9874 49.2999 49.6253 49.2999 50.4123C49.2999 51.1993 49.9379 51.8373 50.7248 51.8373C51.5118 51.8373 52.1498 51.1993 52.1498 50.4123Z" fill="white" fill-opacity="0.24"/>
<path d="M56.4247 44C56.4247 43.6065 56.7437 43.2875 57.1371 43.2875C57.5306 43.2875 57.8496 43.6065 57.8496 44C57.8496 44.3935 57.5306 44.7125 57.1371 44.7125C56.7437 44.7125 56.4247 44.3935 56.4247 44Z" fill="white" fill-opacity="0.24"/>
<path fill-rule="evenodd" clip-rule="evenodd" d="M41.2898 44L42.1751 43.1146V41.8626H43.4272L44.3125 40.9772L45.1979 41.8626H46.45V43.1145L47.3353 44L46.45 44.8855V46.1375H45.1979L44.3125 47.0228L43.4272 46.1375H42.1751V44.8854L41.2898 44ZM43.5998 44C43.5998 43.6065 43.9187 43.2875 44.3122 43.2875C44.7057 43.2875 45.0247 43.6065 45.0247 44C45.0247 44.3935 44.7057 44.7125 44.3122 44.7125C43.9187 44.7125 43.5998 44.3935 43.5998 44Z" fill="white" fill-opacity="0.24"/>
<path d="M49.3507 44L47.8752 42.5245V40.5093L51.3659 44L47.8752 47.4907V45.4756L49.3507 44Z" fill="white" fill-opacity="0.24"/>
<path d="M30.775 44C30.775 43.6065 31.094 43.2875 31.4875 43.2875C31.881 43.2875 32.2 43.6065 32.2 44C32.2 44.3935 31.881 44.7125 31.4875 44.7125C31.094 44.7125 30.775 44.3935 30.775 44Z" fill="white" fill-opacity="0.24"/>
<path d="M37.9006 30.1067C38.4908 30.1067 38.9693 29.6282 38.9693 29.038C38.9693 28.4478 38.4908 27.9693 37.9006 27.9693C37.3104 27.9693 36.8319 28.4478 36.8319 29.038C36.8319 29.6282 37.3104 30.1067 37.9006 30.1067Z" fill="white" fill-opacity="0.24"/>
<path d="M30.4195 37.5877C30.4195 38.178 29.941 38.6564 29.3508 38.6564C28.7605 38.6564 28.282 38.178 28.282 37.5877C28.282 36.9975 28.7605 36.519 29.3508 36.519C29.941 36.519 30.4195 36.9975 30.4195 37.5877Z" fill="white" fill-opacity="0.24"/>
<path d="M30.4195 50.4123C30.4195 49.8221 29.941 49.3436 29.3508 49.3436C28.7605 49.3436 28.282 49.8221 28.282 50.4123C28.282 51.0026 28.7605 51.481 29.3508 51.481C29.941 51.481 30.4195 51.0026 30.4195 50.4123Z" fill="white" fill-opacity="0.24"/>
<path d="M37.9006 57.8933C38.4908 57.8933 38.9693 58.3718 38.9693 58.962C38.9693 59.5523 38.4908 60.0308 37.9006 60.0308C37.3104 60.0308 36.8319 59.5523 36.8319 58.962C36.8319 58.3718 37.3104 57.8933 37.9006 57.8933Z" fill="white" fill-opacity="0.24"/>
<path d="M44.3122 56.1121C44.7057 56.1121 45.0247 56.4311 45.0247 56.8246C45.0247 57.2181 44.7057 57.5371 44.3122 57.5371C43.9187 57.5371 43.5998 57.2181 43.5998 56.8246C43.5998 56.4311 43.9187 56.1121 44.3122 56.1121Z" fill="white" fill-opacity="0.24"/>
<path d="M50.7243 57.8933C51.3146 57.8933 51.7931 58.3718 51.7931 58.962C51.7931 59.5523 51.3146 60.0308 50.7243 60.0308C50.1341 60.0308 49.6556 59.5523 49.6556 58.962C49.6556 58.3718 50.1341 57.8933 50.7243 57.8933Z" fill="white" fill-opacity="0.24"/>
<path d="M60.3429 50.4123C60.3429 49.8221 59.8644 49.3436 59.2742 49.3436C58.6839 49.3436 58.2055 49.8221 58.2055 50.4123C58.2055 51.0026 58.6839 51.481 59.2742 51.481C59.8644 51.481 60.3429 51.0026 60.3429 50.4123Z" fill="white" fill-opacity="0.24"/>
<path d="M60.3429 37.5877C60.3429 38.178 59.8644 38.6564 59.2742 38.6564C58.6839 38.6564 58.2055 38.178 58.2055 37.5877C58.2055 36.9975 58.6839 36.519 59.2742 36.519C59.8644 36.519 60.3429 36.9975 60.3429 37.5877Z" fill="white" fill-opacity="0.24"/>
<path d="M50.7243 30.1067C51.3146 30.1067 51.7931 29.6282 51.7931 29.038C51.7931 28.4478 51.3146 27.9693 50.7243 27.9693C50.1341 27.9693 49.6556 28.4478 49.6556 29.038C49.6556 29.6282 50.1341 30.1067 50.7243 30.1067Z" fill="white" fill-opacity="0.24"/>
<path d="M44.3122 31.8879C44.7057 31.8879 45.0247 31.5689 45.0247 31.1754C45.0247 30.7819 44.7057 30.4629 44.3122 30.4629C43.9187 30.4629 43.5998 30.7819 43.5998 31.1754C43.5998 31.5689 43.9187 31.8879 44.3122 31.8879Z" fill="white" fill-opacity="0.24"/>
</g>
</svg>
