<svg width="23" height="23" viewBox="0 0 23 23" fill="none" xmlns="http://www.w3.org/2000/svg">
<path d="M8.84375 6.5305C8.99615 6.36526 9.16283 6.21104 9.3438 6.06784C9.52477 5.91912 9.72479 5.78968 9.94386 5.67953C10.1629 5.56386 10.3963 5.47298 10.6439 5.40688C10.8963 5.34079 11.1702 5.30774 11.4655 5.30774C11.8512 5.30774 12.2084 5.37383 12.537 5.50603C12.8656 5.63271 13.149 5.81447 13.3871 6.05131C13.6252 6.28815 13.8109 6.57732 13.9443 6.91881C14.0824 7.2548 14.1514 7.63485 14.1514 8.05896C14.1514 8.48858 14.0967 8.85761 13.9871 9.16605C13.8776 9.4745 13.7395 9.74714 13.5728 9.98398C13.4061 10.2153 13.2228 10.4191 13.0228 10.5954C12.8275 10.7661 12.6418 10.9286 12.4656 11.0828C12.2893 11.2315 12.1393 11.383 12.0155 11.5372C11.8917 11.6914 11.8202 11.8594 11.8012 12.0412L11.6655 13.3383H10.7725L10.6868 11.9338C10.6677 11.6804 10.7082 11.4601 10.8082 11.2728C10.913 11.0801 11.0487 10.9011 11.2154 10.7358C11.3821 10.5706 11.5655 10.4081 11.7655 10.2484C11.9655 10.0886 12.1512 9.90963 12.3227 9.71134C12.4941 9.51306 12.637 9.28998 12.7513 9.04213C12.8704 8.78876 12.9299 8.48582 12.9299 8.13332C12.9299 7.89097 12.8894 7.6734 12.8084 7.48062C12.7275 7.28234 12.6156 7.11435 12.4727 6.97665C12.3298 6.83344 12.1608 6.72604 11.9655 6.65443C11.775 6.58283 11.5702 6.54703 11.3512 6.54703C11.0559 6.54703 10.8011 6.58834 10.5868 6.67096C10.3772 6.75357 10.1987 6.84721 10.051 6.95186C9.90338 7.051 9.78432 7.14464 9.69384 7.23277C9.60335 7.31539 9.52954 7.35669 9.47239 7.35669C9.34856 7.35669 9.25332 7.2906 9.18664 7.15841L8.84375 6.5305ZM10.2725 16.6348C10.2725 16.4861 10.2939 16.3484 10.3368 16.2217C10.3844 16.095 10.4487 15.9849 10.5296 15.8913C10.6106 15.7921 10.7058 15.715 10.8154 15.6599C10.9297 15.5993 11.0511 15.569 11.1797 15.569C11.3083 15.569 11.4274 15.5993 11.5369 15.6599C11.6464 15.715 11.7417 15.7921 11.8226 15.8913C11.9084 15.9849 11.975 16.0978 12.0227 16.23C12.075 16.3567 12.1012 16.4916 12.1012 16.6348C12.1012 16.7891 12.075 16.9295 12.0227 17.0562C11.975 17.1829 11.9084 17.2958 11.8226 17.3949C11.7417 17.4886 11.644 17.5602 11.5297 17.6097C11.4202 17.6648 11.3035 17.6924 11.1797 17.6924C11.0511 17.6924 10.9297 17.6648 10.8154 17.6097C10.7058 17.5602 10.6106 17.4886 10.5296 17.3949C10.4487 17.2958 10.3844 17.1829 10.3368 17.0562C10.2939 16.9295 10.2725 16.7891 10.2725 16.6348Z" fill="#FF5151"/>
<circle cx="11.5" cy="11.5" r="11" stroke="#FF5151"/>
</svg>
