<svg width="48" height="48" viewBox="0 0 48 48" fill="none" xmlns="http://www.w3.org/2000/svg">
<circle cx="24" cy="24" r="24" fill="#FF5151"/>
<path d="M33.6775 14.0968H28.2581V11.3871C28.2581 11.1733 28.0848 11 27.871 11H20.1291C19.9153 11 19.742 11.1733 19.742 11.3871V14.0968H14.3226C14.1089 14.0968 13.9355 14.2701 13.9355 14.4839V17.1935C13.9355 17.4073 14.1089 17.5806 14.3226 17.5806H15.5246L17.4213 34.6554C17.443 34.8518 17.609 35.0002 17.8065 35H30.1936C30.3909 35 30.5567 34.8516 30.5784 34.6554L32.4774 17.5806H33.6775C33.8913 17.5806 34.0646 17.4073 34.0646 17.1935V14.4839C34.0646 14.2701 33.8913 14.0968 33.6775 14.0968ZM22.5 14.0968H25H27.4839H26.7097V12.9355C26.7097 12.7217 26.5364 12.5484 26.3226 12.5484H21.6775C21.4637 12.5484 21.2904 12.7217 21.2904 12.9355V14.0968H20.5162H22.5Z" fill="white"/>
<path d="M24 31C24.5522 31 25 30.5896 25 30.0833V20.9167C25 20.4104 24.5522 20 24 20C23.4478 20 23 20.4104 23 20.9167V30.0833C23 30.5896 23.4478 31 24 31ZM24.5 20.9167C24.5 20.7479 24.5 20.5 24 20.6111C24.1841 20.6111 24.3333 20.7479 24.3333 20.9167V30.0833C24.3333 30.2521 24.1841 30.3889 24 30.3889C23.8159 30.3889 24.3333 30.6382 24.5 30.0833C24.6667 29.5285 24.5 20.9167 24.5 20.9167Z" fill="#FF5151"/>
<path d="M19.0085 21.0317L20.1217 30.1812C20.156 30.5084 20.3699 30.7923 20.6818 30.924C20.9934 31.0555 21.3543 31.0143 21.6258 30.8163C21.8972 30.6181 22.0371 30.2939 21.9915 29.968L20.8783 20.8188C20.844 20.4916 20.6301 20.2077 20.3182 20.076C20.0066 19.9445 19.6457 19.9857 19.3742 20.1837C19.1028 20.3819 18.9629 20.7058 19.0085 21.0317ZM19.7111 20.727C19.7694 20.6618 19.8542 20.6244 19.9433 20.6246C20.1011 20.6244 20.2337 20.7386 20.2519 20.89L21.3656 30.0402C21.3857 30.2051 21.1705 30.4805 21 30.5C21.1152 30.464 21.5202 30.2051 21.5 30.0402L20.3182 20.6246C20.3079 20.5393 20 20.5 19.712 20.7255L19.7111 20.727Z" fill="#FF5151"/>
<path d="M26.9425 31C27.4204 31 27.8226 30.6537 27.8787 30.1942L28.9934 21.0195C29.0544 20.519 28.6847 20.0655 28.1678 20.0064C27.6508 19.9473 27.1822 20.3052 27.1211 20.8056L26.0065 29.981C25.975 30.2397 26.0593 30.4993 26.2382 30.694C26.417 30.8887 26.6734 31 26.9425 31ZM28.5 21C28.5182 20.8481 28.2087 20.6834 28.3666 20.6836C28.4554 20.6836 28.2307 20.6485 28.2897 20.7126C28.3488 20.7768 28.3768 20.8623 28.3666 20.9478L27.2515 30.1228C27.2333 30.2746 27.1005 30.3891 26.9425 30.3889C26.8538 30.3889 27.227 30.4531 27.168 30.3889C27.1089 30.3248 27.3437 30.2083 27.3539 30.1228L28.5 21Z" fill="#FF5151"/>
</svg>
