<svg width="122" height="40" viewBox="0 0 122 40" fill="none" xmlns="http://www.w3.org/2000/svg">
<path d="M0.5 6C0.5 2.96243 2.96243 0.5 6 0.5C9.03757 0.5 11.5 2.96243 11.5 6V11.5H6C2.96243 11.5 0.5 9.03757 0.5 6Z" stroke="white" stroke-opacity="0.48"/>
<path d="M11.5 11.5H50.1993C54.472 11.5 58.4869 13.5444 61 17V17" stroke="white" stroke-opacity="0.48"/>
<path d="M121.5 6C121.5 2.96243 119.038 0.5 116 0.5C112.962 0.5 110.5 2.96243 110.5 6V11.5H116C119.038 11.5 121.5 9.03757 121.5 6Z" stroke="white" stroke-opacity="0.48"/>
<path d="M110.5 11.5H71.8007C67.528 11.5 63.5131 13.5444 61 17V17" stroke="white" stroke-opacity="0.48"/>
<path d="M65 21L61 17L57 21" stroke="white" stroke-opacity="0.48"/>
<path d="M56.7574 37.3015C54.4142 35.0369 54.4142 31.3652 56.7574 29.1005L61 25L65.2426 29.1005C67.5858 31.3652 67.5858 35.0369 65.2426 37.3015C62.8995 39.5662 59.1005 39.5662 56.7574 37.3015Z" stroke="white" stroke-opacity="0.48"/>
</svg>
