<svg width="185" height="60" viewBox="0 0 185 60" fill="none" xmlns="http://www.w3.org/2000/svg">
<rect x="90.0971" y="18.3979" width="35" height="47" rx="15.5" transform="rotate(-30 90.0971 18.3979)" stroke="#1D1D1D"/>
<path d="M113.251 23.5053C114.925 22.5388 117.065 23.1123 118.032 24.7864C118.998 26.4604 118.425 28.601 116.751 29.5675C115.077 30.534 112.936 29.9604 111.97 28.2864C111.003 26.6123 111.577 24.4718 113.251 23.5053Z" stroke="#1D1D1D"/>
<path d="M113.254 23.5038L109.004 16.1426" stroke="#1D1D1D"/>
<path d="M9 38L1 30M1 30L9 22M1 30H81" stroke="#1D1D1D" stroke-opacity="0.24"/>
<path d="M153 30H169" stroke="#1D1D1D" stroke-opacity="0.24"/>
<path opacity="0.24" d="M177 22.5C181.142 22.5 184.5 25.8579 184.5 30C184.5 34.1421 181.142 37.5 177 37.5C172.858 37.5 169.5 34.1421 169.5 30C169.5 25.8579 172.858 22.5 177 22.5Z" stroke="#1D1D1D"/>
</svg>
