<svg width="64" height="64" viewBox="0 0 64 64" fill="none" xmlns="http://www.w3.org/2000/svg">
<circle cx="32" cy="32" r="32" fill="#FF5151"/>
<path fill-rule="evenodd" clip-rule="evenodd" d="M25.4743 23C22.8322 23 20.6126 25.0434 20.3208 27.7444L19.0404 39.5971C18.6138 43.5462 21.6192 47 25.4823 47H39.5177C43.3808 47 46.3862 43.5462 45.9596 39.5971L44.6792 27.7444C44.3874 25.0434 42.1678 23 39.5257 23H25.4743Z" fill="white"/>
<path fill-rule="evenodd" clip-rule="evenodd" d="M26 20.4681C26 16.8959 28.9101 14 32.5 14C36.0899 14 39 16.8959 39 20.4681V30H36.9474V20.4681C36.9474 18.0239 34.9562 16.0426 32.5 16.0426C30.0438 16.0426 28.0526 18.0239 28.0526 20.4681V30H26V20.4681Z" fill="white"/>
</svg>
