<svg width="235" height="57" viewBox="0 0 235 57" fill="none" xmlns="http://www.w3.org/2000/svg">
<path fill-rule="evenodd" clip-rule="evenodd" d="M90.5942 48.8135C91.0715 49.0059 91.5881 49.1021 92.1439 49.1021C92.5215 49.1021 92.892 49.0522 93.2554 48.9525C93.6259 48.8456 93.9679 48.696 94.2814 48.5036C94.602 48.3041 94.887 48.0725 95.1364 47.8089L94.3989 47.0608C94.1282 47.3814 93.7969 47.6308 93.405 47.8089C93.0202 47.9799 92.6105 48.0654 92.1759 48.0654C91.7769 48.0654 91.4064 47.9942 91.0644 47.8517C90.7224 47.7092 90.4232 47.5097 90.1667 47.2532C89.9102 46.9967 89.7107 46.6974 89.5682 46.3554C89.4328 46.0134 89.3651 45.6429 89.3651 45.2439C89.3651 44.8378 89.4328 44.4637 89.5682 44.1217C89.7107 43.7797 89.9066 43.4841 90.156 43.2347C90.4054 42.9782 90.6975 42.7787 91.0324 42.6362C91.3744 42.4937 91.7449 42.4224 92.1439 42.4224C92.5785 42.4224 92.9953 42.5115 93.3943 42.6896C93.7933 42.8606 94.1317 43.1136 94.4096 43.4484L95.1577 42.6789C94.9226 42.4082 94.6447 42.1766 94.3241 41.9842C94.0106 41.7919 93.665 41.6458 93.2874 41.5461C92.9169 41.4392 92.5357 41.3857 92.1439 41.3857C91.5952 41.3857 91.0822 41.4855 90.6049 41.685C90.1275 41.8774 89.7071 42.1517 89.3437 42.5079C88.9878 42.8571 88.71 43.2667 88.5105 43.737C88.3181 44.2001 88.2219 44.7024 88.2219 45.2439C88.2219 45.7854 88.3181 46.2913 88.5105 46.7615C88.71 47.2247 88.9878 47.6344 89.3437 47.9906C89.7071 48.3397 90.1239 48.614 90.5942 48.8135ZM101.571 49.1021C101.03 49.1021 100.524 49.0059 100.053 48.8135C99.5832 48.614 99.1664 48.3397 98.803 47.9906C98.4468 47.6344 98.1689 47.2247 97.9694 46.7615C97.7771 46.2913 97.6809 45.7854 97.6809 45.2439C97.6809 44.7024 97.7771 44.2001 97.9694 43.737C98.1689 43.2667 98.4468 42.8571 98.803 42.5079C99.1664 42.1517 99.5832 41.8774 100.053 41.685C100.524 41.4855 101.03 41.3857 101.571 41.3857C102.113 41.3857 102.618 41.4855 103.089 41.685C103.566 41.8774 103.983 42.1517 104.339 42.5079C104.695 42.8571 104.973 43.2667 105.173 43.737C105.372 44.2001 105.472 44.7024 105.472 45.2439C105.472 45.7854 105.372 46.2913 105.173 46.7615C104.973 47.2247 104.695 47.6344 104.339 47.9906C103.983 48.3397 103.566 48.614 103.089 48.8135C102.618 49.0059 102.113 49.1021 101.571 49.1021ZM101.582 48.0654C101.967 48.0654 102.323 47.9942 102.651 47.8517C102.985 47.7092 103.278 47.5132 103.527 47.2639C103.776 47.0074 103.972 46.7081 104.115 46.3661C104.257 46.017 104.328 45.6429 104.328 45.2439C104.328 44.8378 104.257 44.4637 104.115 44.1217C103.972 43.7797 103.776 43.4841 103.527 43.2347C103.278 42.9782 102.985 42.7787 102.651 42.6362C102.323 42.4937 101.967 42.4224 101.582 42.4224C101.19 42.4224 100.827 42.4937 100.492 42.6362C100.157 42.7787 99.8647 42.9782 99.6153 43.2347C99.3659 43.4841 99.17 43.7797 99.0275 44.1217C98.8921 44.4637 98.8244 44.8378 98.8244 45.2439C98.8244 45.6429 98.8921 46.017 99.0275 46.3661C99.17 46.7081 99.3659 47.0074 99.6153 47.2639C99.8647 47.5132 100.157 47.7092 100.492 47.8517C100.827 47.9942 101.19 48.0654 101.582 48.0654ZM108.578 48.9845V41.5033H111.966C112.464 41.5033 112.899 41.5959 113.269 41.7812C113.647 41.9664 113.939 42.2265 114.146 42.5614C114.36 42.8891 114.466 43.2739 114.466 43.7156C114.466 44.2072 114.328 44.6312 114.05 44.9874C113.772 45.3437 113.398 45.6002 112.927 45.7569L114.595 48.9845H113.355L111.805 45.9172H109.7V48.9845H108.578ZM109.7 44.9767H111.88C112.322 44.9767 112.675 44.8663 112.938 44.6454C113.209 44.4174 113.344 44.1111 113.344 43.7263C113.344 43.3558 113.209 43.0566 112.938 42.8286C112.675 42.6006 112.322 42.4866 111.88 42.4866H109.7V44.9767ZM80.367 48.9845V41.5033H85.8817V42.4866H81.4891V44.7309H84.3748V45.6821H81.4891V48.0013H85.9245V48.9845H80.367ZM73.3394 47.9799H71.8004V42.5079H73.3394C73.7313 42.5079 74.0947 42.5792 74.4295 42.7217C74.7644 42.8571 75.0565 43.0494 75.3059 43.2988C75.5624 43.5411 75.7583 43.8296 75.8937 44.1645C76.0362 44.4994 76.1075 44.8592 76.1075 45.2439C76.1075 45.6358 76.0362 45.9992 75.8937 46.334C75.7583 46.6618 75.5624 46.9504 75.3059 47.1997C75.0565 47.442 74.7644 47.6344 74.4295 47.7769C74.0947 47.9122 73.7313 47.9799 73.3394 47.9799ZM70.6782 41.5033V48.9845H73.318C73.8809 48.9845 74.401 48.8919 74.8784 48.7067C75.3629 48.5143 75.7833 48.2507 76.1395 47.9158C76.4958 47.5809 76.7701 47.189 76.9625 46.7402C77.162 46.2842 77.2617 45.7854 77.2617 45.2439C77.2617 44.7096 77.162 44.2144 76.9625 43.7584C76.763 43.3024 76.4851 42.9069 76.1288 42.5721C75.7726 42.2372 75.3558 41.9771 74.8784 41.7919C74.401 41.5995 73.8809 41.5033 73.318 41.5033H70.6782Z" fill="#1C1C1C"/>
<path fill-rule="evenodd" clip-rule="evenodd" d="M123.464 48.4564C123.042 48.8713 122.694 49.2911 122.392 49.7157C121.28 51.2719 120.996 52.4061 121.183 53.2116C121.374 54.0347 122.031 54.4223 122.561 54.5283L122.774 54.1054C122.391 54.0288 121.846 53.6441 121.717 53.0878C121.584 52.514 121.757 51.5472 122.837 50.0342C123.087 49.6839 123.439 49.3295 123.87 48.9709C123.875 48.9755 123.882 48.9799 123.887 48.9844C124.417 49.4062 125.567 49.7467 126.782 49.6523C128.01 49.5569 129.42 49.0292 130.991 47.9082C131.831 47.3473 132.986 46.3641 133.711 45.2266C134.075 44.6557 134.34 44.0302 134.392 43.3883C134.407 43.1892 134.403 42.99 134.374 42.7921C135.054 42.345 135.655 41.8949 136.136 41.4424C136.66 40.9491 137.061 40.4339 137.253 39.8957C137.449 39.3442 137.339 38.8486 137.024 38.2969L136.626 38.5014C136.86 38.9087 136.88 39.3049 136.736 39.7124C136.586 40.1333 136.255 40.5774 135.761 41.0432C135.37 41.4105 134.822 41.7796 134.194 42.1509C134.097 41.9234 133.964 41.6999 133.79 41.4826L133.361 41.8251C133.52 42.0226 133.635 42.2235 133.714 42.4265C133.238 42.6941 132.73 42.9628 132.221 43.2326C131.814 43.4476 131.407 43.6634 131.012 43.8799C130.378 44.2283 129.718 44.579 129.057 44.9306C127.912 45.5397 126.76 46.152 125.722 46.7612C125.018 47.1736 124.437 47.5911 123.946 48.0136C123.787 47.715 123.662 47.3116 123.653 46.8147C123.643 46.272 123.756 45.6309 124.079 44.9288C124.568 44.9532 125.087 44.9528 125.608 44.9141C126.986 44.8121 128.438 44.4388 129.385 43.4919C130.281 42.596 130.557 41.8556 130.386 41.2627C130.219 40.6858 129.857 40.404 129.453 40.3008C129.08 40.1812 128.269 40.2371 127.492 40.628C126.697 41.0282 125.709 41.7863 124.596 43.1226C124.246 43.5427 123.968 43.9566 123.752 44.3589C123.116 44.3101 122.548 44.2208 122.125 44.1267L122.006 44.6617C122.405 44.7502 122.92 44.8343 123.499 44.8876C123.206 45.5889 123.094 46.2449 123.105 46.8242C123.117 47.484 123.25 48.0475 123.464 48.4564ZM124.393 48.5621C124.983 48.1254 125.679 47.6826 126.444 47.234C127.474 46.6295 128.606 46.0281 129.743 45.4236C130.406 45.0707 131.073 44.7167 131.721 44.3604C132.465 43.9517 133.188 43.5402 133.852 43.1261C133.853 43.199 133.851 43.2719 133.845 43.3449C133.804 43.8676 133.583 44.4067 133.248 44.932C132.577 45.9851 131.487 46.9189 130.683 47.4545L130.676 47.4597C129.178 48.5292 127.904 48.8972 126.782 48.9844C125.677 49.0702 124.793 48.8577 124.393 48.5621ZM125.567 44.3675C125.16 44.3977 124.754 44.4034 124.363 44.3917C124.54 44.0934 124.756 43.7865 125.017 43.4735C126.096 42.179 126.961 41.6208 127.672 41.2627C128.395 40.8992 128.919 40.9 129.119 40.9687C129.321 41.0375 129.589 41.1781 129.676 41.4826C129.761 41.7757 129.855 42.2463 128.997 43.1043C128.19 43.9112 126.902 44.2688 125.567 44.3675Z" fill="#1C1C1C"/>
<path fill-rule="evenodd" clip-rule="evenodd" d="M154.56 49.1021C154.004 49.1021 153.488 49.0059 153.01 48.8135C152.54 48.614 152.123 48.3397 151.76 47.9906C151.404 47.6344 151.126 47.2247 150.926 46.7615C150.734 46.2913 150.638 45.7854 150.638 45.2439C150.638 44.7024 150.734 44.2001 150.926 43.737C151.126 43.2667 151.404 42.8571 151.76 42.5079C152.123 42.1517 152.544 41.8774 153.021 41.685C153.498 41.4855 154.011 41.3857 154.56 41.3857C154.952 41.3857 155.333 41.4392 155.703 41.5461C156.081 41.6458 156.427 41.7919 156.74 41.9842C157.061 42.1766 157.339 42.4082 157.574 42.6789L156.826 43.4484C156.548 43.1136 156.209 42.8606 155.81 42.6896C155.411 42.5115 154.995 42.4224 154.56 42.4224C154.161 42.4224 153.79 42.4937 153.448 42.6362C153.114 42.7787 152.821 42.9782 152.572 43.2347C152.323 43.4841 152.127 43.7797 151.984 44.1217C151.849 44.4637 151.781 44.8378 151.781 45.2439C151.781 45.6429 151.849 46.0134 151.984 46.3554C152.127 46.6974 152.326 46.9967 152.583 47.2532C152.839 47.5097 153.138 47.7092 153.48 47.8517C153.822 47.9942 154.193 48.0654 154.592 48.0654C155.027 48.0654 155.436 47.9799 155.821 47.8089C156.213 47.6308 156.544 47.3814 156.815 47.0608L157.552 47.8089C157.303 48.0725 157.018 48.3041 156.697 48.5036C156.384 48.696 156.042 48.8456 155.671 48.9525C155.308 49.0522 154.938 49.1021 154.56 49.1021ZM162.47 48.8135C162.948 49.0059 163.464 49.1021 164.02 49.1021C164.398 49.1021 164.768 49.0522 165.132 48.9525C165.502 48.8456 165.844 48.696 166.158 48.5036C166.478 48.3041 166.763 48.0725 167.013 47.8089L166.275 47.0608C166.004 47.3814 165.673 47.6308 165.281 47.8089C164.897 47.9799 164.487 48.0654 164.052 48.0654C163.653 48.0654 163.283 47.9942 162.941 47.8517C162.599 47.7092 162.299 47.5097 162.043 47.2532C161.786 46.9967 161.587 46.6974 161.444 46.3554C161.309 46.0134 161.241 45.6429 161.241 45.2439C161.241 44.8378 161.309 44.4637 161.444 44.1217C161.587 43.7797 161.783 43.4841 162.032 43.2347C162.282 42.9782 162.574 42.7787 162.909 42.6362C163.251 42.4937 163.621 42.4224 164.02 42.4224C164.455 42.4224 164.872 42.5115 165.271 42.6896C165.67 42.8606 166.008 43.1136 166.286 43.4484L167.034 42.6789C166.799 42.4082 166.521 42.1766 166.2 41.9842C165.887 41.7919 165.541 41.6458 165.164 41.5461C164.793 41.4392 164.412 41.3857 164.02 41.3857C163.472 41.3857 162.959 41.4855 162.481 41.685C162.004 41.8774 161.583 42.1517 161.22 42.5079C160.864 42.8571 160.586 43.2667 160.386 43.737C160.194 44.2001 160.098 44.7024 160.098 45.2439C160.098 45.7854 160.194 46.2913 160.386 46.7615C160.586 47.2247 160.864 47.6344 161.22 47.9906C161.583 48.3397 162 48.614 162.47 48.8135ZM197.781 48.8135C198.251 49.0059 198.757 49.1021 199.299 49.1021C199.84 49.1021 200.346 49.0059 200.816 48.8135C201.294 48.614 201.71 48.3397 202.067 47.9906C202.423 47.6344 202.701 47.2247 202.9 46.7615C203.1 46.2913 203.2 45.7854 203.2 45.2439C203.2 44.7024 203.1 44.2001 202.9 43.737C202.701 43.2667 202.423 42.8571 202.067 42.5079C201.71 42.1517 201.294 41.8774 200.816 41.685C200.346 41.4855 199.84 41.3857 199.299 41.3857C198.757 41.3857 198.251 41.4855 197.781 41.685C197.311 41.8774 196.894 42.1517 196.531 42.5079C196.174 42.8571 195.896 43.2667 195.697 43.737C195.505 44.2001 195.408 44.7024 195.408 45.2439C195.408 45.7854 195.505 46.2913 195.697 46.7615C195.896 47.2247 196.174 47.6344 196.531 47.9906C196.894 48.3397 197.311 48.614 197.781 48.8135ZM200.378 47.8517C200.05 47.9942 199.694 48.0654 199.309 48.0654C198.917 48.0654 198.554 47.9942 198.219 47.8517C197.884 47.7092 197.592 47.5132 197.343 47.2639C197.093 47.0074 196.898 46.7081 196.755 46.3661C196.62 46.017 196.552 45.6429 196.552 45.2439C196.552 44.8378 196.62 44.4637 196.755 44.1217C196.898 43.7797 197.093 43.4841 197.343 43.2347C197.592 42.9782 197.884 42.7787 198.219 42.6362C198.554 42.4937 198.917 42.4224 199.309 42.4224C199.694 42.4224 200.05 42.4937 200.378 42.6362C200.713 42.7787 201.005 42.9782 201.254 43.2347C201.504 43.4841 201.7 43.7797 201.842 44.1217C201.985 44.4637 202.056 44.8378 202.056 45.2439C202.056 45.6429 201.985 46.017 201.842 46.3661C201.7 46.7081 201.504 47.0074 201.254 47.2639C201.005 47.5132 200.713 47.7092 200.378 47.8517ZM231.016 49.0914C230.418 49.0914 229.841 48.9739 229.285 48.7387C228.729 48.5036 228.238 48.1723 227.81 47.7448L228.494 46.9539C228.9 47.3529 229.314 47.6486 229.734 47.841C230.161 48.0334 230.607 48.1295 231.07 48.1295C231.433 48.1295 231.75 48.0797 232.021 47.9799C232.299 47.873 232.513 47.7234 232.662 47.531C232.812 47.3387 232.887 47.1214 232.887 46.8791C232.887 46.5442 232.769 46.2877 232.534 46.1096C232.299 45.9315 231.911 45.7961 231.369 45.7035L230.119 45.5004C229.435 45.3793 228.922 45.1584 228.58 44.8378C228.245 44.5172 228.077 44.0897 228.077 43.5553C228.077 43.1278 228.191 42.7537 228.419 42.4331C228.647 42.1054 228.968 41.8524 229.381 41.6743C229.802 41.4962 230.286 41.4071 230.835 41.4071C231.376 41.4071 231.907 41.4962 232.427 41.6743C232.954 41.8453 233.428 42.0947 233.849 42.4224L233.229 43.2774C232.424 42.6647 231.608 42.3583 230.781 42.3583C230.454 42.3583 230.169 42.4046 229.926 42.4972C229.684 42.5899 229.495 42.7217 229.36 42.8927C229.224 43.0566 229.157 43.2489 229.157 43.4698C229.157 43.7762 229.26 44.0113 229.467 44.1752C229.673 44.3319 230.015 44.4459 230.493 44.5172L231.7 44.7202C232.491 44.8485 233.072 45.0801 233.442 45.4149C233.813 45.7498 233.998 46.2094 233.998 46.7936C233.998 47.2496 233.874 47.6522 233.624 48.0013C233.375 48.3433 233.026 48.6105 232.577 48.8029C232.128 48.9952 231.608 49.0914 231.016 49.0914ZM219.849 48.9845V41.5033H225.364V42.4866H220.971V44.7309H223.857V45.6821H220.971V48.0013H225.406V48.9845H219.849ZM215.274 41.5033V48.9845H216.396V41.5033H215.274ZM206.305 48.9845V41.5033H209.693C210.192 41.5033 210.626 41.5959 210.997 41.7812C211.375 41.9664 211.667 42.2265 211.873 42.5614C212.087 42.8891 212.194 43.2739 212.194 43.7156C212.194 44.2072 212.055 44.6312 211.777 44.9874C211.499 45.3437 211.125 45.6002 210.655 45.7569L212.322 48.9845H211.082L209.533 45.9172H207.427V48.9845H206.305ZM207.427 44.9767H209.608C210.049 44.9767 210.402 44.8663 210.666 44.6454C210.936 44.4174 211.072 44.1111 211.072 43.7263C211.072 43.3558 210.936 43.0566 210.666 42.8286C210.402 42.6006 210.049 42.4866 209.608 42.4866H207.427V44.9767ZM189.784 49.0914C189.186 49.0914 188.608 48.9739 188.053 48.7387C187.497 48.5036 187.005 48.1723 186.578 47.7448L187.262 46.9539C187.668 47.3529 188.081 47.6486 188.502 47.841C188.929 48.0334 189.374 48.1295 189.838 48.1295C190.201 48.1295 190.518 48.0797 190.789 47.9799C191.067 47.873 191.28 47.7234 191.43 47.531C191.58 47.3387 191.654 47.1214 191.654 46.8791C191.654 46.5442 191.537 46.2877 191.302 46.1096C191.067 45.9315 190.678 45.7961 190.137 45.7035L188.886 45.5004C188.202 45.3793 187.689 45.1584 187.347 44.8378C187.012 44.5172 186.845 44.0897 186.845 43.5553C186.845 43.1278 186.959 42.7537 187.187 42.4331C187.415 42.1054 187.736 41.8524 188.149 41.6743C188.569 41.4962 189.054 41.4071 189.602 41.4071C190.144 41.4071 190.675 41.4962 191.195 41.6743C191.722 41.8453 192.196 42.0947 192.616 42.4224L191.996 43.2774C191.191 42.6647 190.375 42.3583 189.549 42.3583C189.221 42.3583 188.936 42.4046 188.694 42.4972C188.452 42.5899 188.263 42.7217 188.128 42.8927C187.992 43.0566 187.924 43.2489 187.924 43.4698C187.924 43.7762 188.028 44.0113 188.234 44.1752C188.441 44.3319 188.783 44.4459 189.26 44.5172L190.468 44.7202C191.259 44.8485 191.84 45.0801 192.21 45.4149C192.581 45.7498 192.766 46.2094 192.766 46.7936C192.766 47.2496 192.641 47.6522 192.392 48.0013C192.142 48.3433 191.793 48.6105 191.344 48.8029C190.896 48.9952 190.375 49.0914 189.784 49.0914ZM179.47 48.7387C180.026 48.9739 180.603 49.0914 181.201 49.0914C181.793 49.0914 182.313 48.9952 182.762 48.8029C183.21 48.6105 183.56 48.3433 183.809 48.0013C184.058 47.6522 184.183 47.2496 184.183 46.7936C184.183 46.2094 183.998 45.7498 183.627 45.4149C183.257 45.0801 182.676 44.8485 181.885 44.7202L180.677 44.5172C180.2 44.4459 179.858 44.3319 179.651 44.1752C179.445 44.0113 179.342 43.7762 179.342 43.4698C179.342 43.2489 179.409 43.0566 179.545 42.8927C179.68 42.7217 179.869 42.5899 180.111 42.4972C180.353 42.4046 180.638 42.3583 180.966 42.3583C181.793 42.3583 182.608 42.6647 183.413 43.2774L184.033 42.4224C183.613 42.0947 183.139 41.8453 182.612 41.6743C182.092 41.4962 181.561 41.4071 181.019 41.4071C180.471 41.4071 179.986 41.4962 179.566 41.6743C179.153 41.8524 178.832 42.1054 178.604 42.4331C178.376 42.7537 178.262 43.1278 178.262 43.5553C178.262 44.0897 178.43 44.5172 178.764 44.8378C179.106 45.1584 179.619 45.3793 180.303 45.5004L181.554 45.7035C182.095 45.7961 182.484 45.9315 182.719 46.1096C182.954 46.2877 183.071 46.5442 183.071 46.8791C183.071 47.1214 182.997 47.3387 182.847 47.531C182.697 47.7234 182.484 47.873 182.206 47.9799C181.935 48.0797 181.618 48.1295 181.255 48.1295C180.791 48.1295 180.346 48.0334 179.919 47.841C179.498 47.6486 179.085 47.3529 178.679 46.9539L177.995 47.7448C178.422 48.1723 178.914 48.5036 179.47 48.7387ZM170.034 48.9845V41.5033H175.548V42.4866H171.156V44.7309H174.041V45.6821H171.156V48.0013H175.591V48.9845H170.034ZM144.268 41.5033L141.179 48.9845H142.344L143.221 46.7936H146.566L147.431 48.9845H148.65L145.593 41.5033H144.268ZM146.202 45.8638H143.584L144.898 42.5721L146.202 45.8638Z" fill="#1C1C1C"/>
<path d="M234.317 32.5632H225.469L227.613 29.9909V9.86339L225.469 7.73633H234.317L232.212 9.86339V29.9909L234.317 32.5632Z" fill="#1C1C1C"/>
<path d="M211.956 20.559L216.867 28.7047C217.803 30.1857 218.543 30.5756 220.491 30.5756C219.907 31.9786 218.659 32.953 216.672 32.953C214.88 32.953 213.749 32.3684 212.541 30.1857L207.63 21.3775C207.318 21.4165 207.006 21.4165 206.695 21.4165H204.317V29.9909L206.577 32.5632H197.575L199.718 29.9909V9.86339L197.575 7.73633H206.695C212.736 7.73633 216.633 10.5425 216.633 14.5959C216.633 17.2851 214.918 19.4288 211.956 20.559ZM204.317 20.6759H206.305C209.774 20.6759 212.034 18.2206 212.034 14.5959C212.034 11.0102 209.774 8.47685 206.344 8.47685H204.317V20.6759Z" fill="#1C1C1C"/>
<path d="M179.028 32.9531C171.818 32.9531 166.83 28.5655 166.83 20.2084C166.83 11.7342 171.818 7.34668 179.028 7.34668C186.2 7.34668 191.189 11.7342 191.189 20.2084C191.189 28.5655 186.2 32.9531 179.028 32.9531ZM179.028 32.2905C183.316 32.2905 186.2 29.0332 186.2 20.2084C186.2 11.2665 183.355 8.00925 179.028 8.00925C174.664 8.00925 171.818 11.2665 171.818 20.2084C171.818 29.0332 174.703 32.2905 179.028 32.2905Z" fill="#1C1C1C"/>
<path d="M160.395 32.5632H151.547L153.691 29.9909V9.86339L151.547 7.73633H160.395L158.29 9.86339V29.9909L160.395 32.5632Z" fill="#1C1C1C"/>
<path d="M137.968 20.559L142.878 28.7047C143.814 30.1857 144.554 30.5756 146.503 30.5756C145.918 31.9786 144.671 32.953 142.684 32.953C140.891 32.953 139.761 32.3684 138.552 30.1857L133.641 21.3775C133.329 21.4165 133.018 21.4165 132.706 21.4165H130.328V29.9909L132.589 32.5632H123.586L125.73 29.9909V9.86339L123.586 7.73633H132.706C138.747 7.73633 142.644 10.5425 142.644 14.5959C142.644 17.2851 140.929 19.4288 137.968 20.559ZM130.328 20.6759H132.316C135.785 20.6759 138.045 18.2206 138.045 14.5959C138.045 11.0102 135.785 8.47685 132.355 8.47685H130.328V20.6759Z" fill="#1C1C1C"/>
<path d="M107.646 21.8841H104.918V29.9909L107.802 32.5632H98.1753L100.319 29.9909V9.86339L98.1753 7.73633H107.646C113.687 7.73633 117.585 10.5425 117.585 14.8298C117.585 19.117 113.687 21.8841 107.646 21.8841ZM107.257 8.47686H104.918V21.1437H107.218C110.726 21.1437 112.986 18.6882 112.986 14.8298C112.986 11.0102 110.726 8.47686 107.257 8.47686Z" fill="#1C1C1C"/>
<path d="M91.1549 29.9909L92.987 32.5632H84.1393L86.244 29.9909L84.0614 24.1447H74.8634L72.5639 29.9909L74.7074 32.5632H69.9136L71.7454 29.9909L80.6316 7.73633C81.852 7.73633 82.9459 8.48956 83.3811 9.62969L91.1549 29.9909ZM79.5793 12.2185L75.1752 23.4042H83.7886L79.5793 12.2185Z" fill="#1C1C1C"/>
<g opacity="0.48">
<path d="M33.4745 23.4235L28.5002 18.4492L23.5259 23.4235H26.3976L28.5003 21.3209L30.603 23.4235H33.4745Z" fill="#6C6050"/>
<path d="M47.7908 10.2248C47.7908 10.7855 47.3362 11.24 46.7755 11.24C46.2147 11.24 45.7603 10.7855 45.7603 10.2248C45.7603 9.66405 46.2147 9.20947 46.7755 9.20947C47.3362 9.20947 47.7908 9.66405 47.7908 10.2248Z" fill="#6C6050"/>
<path d="M10.2243 11.2401C10.785 11.2401 11.2395 10.7855 11.2395 10.2248C11.2395 9.66405 10.785 9.20947 10.2243 9.20947C9.66356 9.20947 9.20898 9.66405 9.20898 10.2248C9.20898 10.7855 9.66356 11.2401 10.2243 11.2401Z" fill="#6C6050"/>
<path d="M33.4745 33.5762L28.5002 38.5505L23.5259 33.5762H26.3976L28.5003 35.6788L30.603 33.5762H33.4745Z" fill="#6C6050"/>
<path d="M47.7908 46.7751C47.7908 46.2143 47.3362 45.7598 46.7755 45.7598C46.2147 45.7598 45.7603 46.2143 45.7603 46.7751C45.7603 47.3358 46.2147 47.7903 46.7755 47.7903C47.3362 47.7903 47.7908 47.3358 47.7908 46.7751Z" fill="#6C6050"/>
<path d="M10.2243 45.7598C10.785 45.7598 11.2395 46.2143 11.2395 46.7751C11.2395 47.3358 10.785 47.7903 10.2243 47.7903C9.66356 47.7903 9.20898 47.3358 9.20898 46.7751C9.20898 46.2143 9.66356 45.7598 10.2243 45.7598Z" fill="#6C6050"/>
<path d="M18.4502 28.5002L23.4246 23.5259V26.3976L21.3219 28.5002L23.4246 30.6029V33.4746L18.4502 28.5002Z" fill="#6C6050"/>
<path fill-rule="evenodd" clip-rule="evenodd" d="M51.8521 26.3972L53.9549 28.5L51.8521 30.6027V32.4898L51.9235 32.5611H54.8972V35.5348L56.9999 37.6377L54.8972 39.7402V42.7139H51.9235L49.8208 44.8166L47.7181 42.7139H44.7444V39.7402L43.0113 38.0071L41.6986 39.3198V41.6986H39.3198L38.0071 43.0113L39.7402 44.7445H42.7139V47.7182L44.8165 49.8209L42.7139 51.9235V54.8972H39.7402L37.6375 57L35.5347 54.8972H32.5611V51.8514H30.6033L28.5005 53.9542L26.3978 51.8514H24.4388V54.8972H21.4652L19.3624 57L17.2598 54.8972H14.286V51.9235L12.1834 49.8209L14.286 47.7182V44.7445H17.2598L18.9928 43.0114L17.68 41.6986H15.3009V39.3195L13.9886 38.0072L12.2555 39.7402V42.7139H9.28181L7.1791 44.8166L5.07637 42.7139H2.10271V39.7402L0 37.6375L2.10271 35.5348V32.5611H5.14888V30.6027L3.04617 28.5L5.14888 26.3973V24.4389H2.10271V21.4652L0 19.3624L2.10271 17.2598V14.286H5.07637L7.1791 12.1834L9.28181 14.286H12.2555V17.2598L13.9886 18.9928L15.3009 17.6804V15.3014H17.68L18.9928 13.9886L17.2598 12.2555H14.286V9.28181L12.1834 7.1791L14.286 5.07639V2.10274H17.2598L19.3624 0L21.4652 2.10274H24.4388V5.14857H26.3978L28.5005 3.04583L30.6033 5.14857H32.5611V2.10274H35.5347L37.6375 0L39.7402 2.10274H42.7139V5.07639L44.8165 7.1791L42.7139 9.28181V12.2555H39.7402L38.0071 13.9886L39.3198 15.3014H41.6986V17.6802L43.0113 18.9928L44.7444 17.2598V14.286H47.7181L49.8208 12.1834L51.9235 14.286H54.8972V17.2598L56.9999 19.3624L54.8972 21.4652V24.4389H51.9235L51.8521 24.5102V26.3972ZM5.9176 28.5L7.17922 27.2383V25.4541H8.96342L10.225 24.1925L11.4867 25.4541H13.2709V27.2381L14.5325 28.5L13.2709 29.7619V31.5458H11.4867L10.225 32.8075L8.96342 31.5458H7.17922V29.7616L5.9176 28.5ZM17.4044 28.5L15.3017 26.3973V23.4236H17.68L19.1671 24.9107L24.9104 19.1674L23.4232 17.6802V15.3014H21.0444L19.7319 13.9888L21.4651 12.2555H23.4241L23.4232 15.3014H26.3978L28.5005 17.404L30.6032 15.3014H33.5764V17.6804L32.0896 19.1672L37.833 24.9105L39.3198 23.4236H41.6986V21.0447L43.0113 19.732L44.7444 21.4652V23.4236H41.6986L41.6994 26.3972L39.5967 28.5L41.6994 30.6027L41.6986 33.5764H44.7444V35.5348L43.0113 37.2679L41.6986 35.9552V33.5764H39.3198L37.833 32.0895L32.0896 37.8328L33.5764 39.3195V41.6986H30.6032L28.5005 39.5959L26.3978 41.6986H23.4241V44.7445H21.4651L19.7319 43.0112L21.0444 41.6986H23.4241L23.4232 39.3198L24.9104 37.8325L19.1671 32.0893L17.68 33.5764H15.3017V30.6027L17.4044 28.5ZM42.4681 28.5L43.7297 27.2383V25.4541H45.5139L46.7755 24.1925L48.0372 25.4541H49.8213L49.8214 27.2381L51.083 28.5L49.8214 29.7619L49.8213 31.5458H48.0372L46.7755 32.8075L45.5139 31.5458H43.7297V29.7616L42.4681 28.5ZM15.3009 21.0445L15.3017 23.4236H12.2555V21.4652L13.9886 19.7321L15.3009 21.0445ZM35.9555 15.3014H33.5764V12.2555H35.5348L37.2681 13.9888L35.9555 15.3014ZM32.8077 10.2249L31.5462 8.96306L31.5461 7.17913L29.762 7.17912L28.5003 5.91747L27.2387 7.17912H25.4545V8.96333L24.1928 10.2249L25.4545 11.4866V13.2708H27.2387L28.5003 14.5324L29.7621 13.2708H31.5462L31.5463 11.4864L32.8077 10.2249ZM49.8203 15.9098C51.7272 15.9098 53.2729 17.4557 53.2729 19.3625C53.2729 21.2693 51.7272 22.8151 49.8203 22.8151C47.9135 22.8151 46.3677 21.2693 46.3677 19.3625C46.3677 17.4557 47.9135 15.9098 49.8203 15.9098ZM10.6321 19.3625C10.6321 17.4557 9.08632 15.9098 7.17951 15.9098C5.2727 15.9098 3.72691 17.4557 3.72691 19.3625C3.72691 21.2693 5.2727 22.8151 7.17951 22.8151C9.08632 22.8151 10.6321 21.2693 10.6321 19.3625ZM22.8156 7.17914C22.8156 5.27231 21.2698 3.72654 19.363 3.72654C17.4562 3.72654 15.9104 5.27231 15.9104 7.17914C15.9104 9.08596 17.4562 10.6317 19.363 10.6317C21.2698 10.6317 22.8156 9.08596 22.8156 7.17914ZM37.6369 3.72654C39.5437 3.72654 41.0895 5.27231 41.0895 7.17914C41.0895 9.08596 39.5437 10.6317 37.6369 10.6317C35.73 10.6317 34.1842 9.08596 34.1842 7.17914C34.1842 5.27231 35.73 3.72654 37.6369 3.72654ZM19.3621 21.393C20.4835 21.393 21.3926 20.4839 21.3926 19.3625C21.3926 18.241 20.4835 17.3319 19.3621 17.3319C18.2406 17.3319 17.3314 18.241 17.3314 19.3625C17.3314 20.4839 18.2406 21.393 19.3621 21.393ZM39.6681 19.3625C39.6681 20.4839 38.759 21.393 37.6375 21.393C36.5161 21.393 35.607 20.4839 35.607 19.3625C35.607 18.241 36.5161 17.3319 37.6375 17.3319C38.759 17.3319 39.6681 18.241 39.6681 19.3625ZM15.3009 35.9555L15.3017 33.5764H12.2555V35.5348L13.9886 37.2679L15.3009 35.9555ZM35.9555 41.6986H33.5764L33.577 44.7445H35.5348L37.2681 43.0112L35.9555 41.6986ZM32.8077 46.775L31.5462 48.0369L31.5461 49.8209H29.762L28.5003 51.0825L27.2387 49.8209H25.4545V48.0367L24.1928 46.775L25.4545 45.5135V43.7292H27.2387L28.5003 42.4676L29.7621 43.7292H31.5462L31.5463 45.5136L32.8077 46.775ZM49.8203 41.0901C51.7272 41.0901 53.2729 39.5443 53.2729 37.6375C53.2729 35.7307 51.7272 34.1849 49.8203 34.1849C47.9135 34.1849 46.3677 35.7307 46.3677 37.6375C46.3677 39.5443 47.9135 41.0901 49.8203 41.0901ZM10.6321 37.6375C10.6321 39.5443 9.08632 41.0901 7.17951 41.0901C5.2727 41.0901 3.72691 39.5443 3.72691 37.6375C3.72691 35.7307 5.2727 34.1849 7.17951 34.1849C9.08632 34.1849 10.6321 35.7307 10.6321 37.6375ZM22.8156 49.8209C22.8156 51.7277 21.2698 53.2735 19.363 53.2735C17.4562 53.2735 15.9104 51.7277 15.9104 49.8209C15.9104 47.914 17.4562 46.3683 19.363 46.3683C21.2698 46.3683 22.8156 47.914 22.8156 49.8209ZM37.6369 53.2735C39.5437 53.2735 41.0895 51.7277 41.0895 49.8209C41.0895 47.914 39.5437 46.3683 37.6369 46.3683C35.73 46.3683 34.1842 47.914 34.1842 49.8209C34.1842 51.7277 35.73 53.2735 37.6369 53.2735ZM19.3621 35.607C20.4835 35.607 21.3926 36.516 21.3926 37.6375C21.3926 38.759 20.4835 39.668 19.3621 39.668C18.2406 39.668 17.3314 38.759 17.3314 37.6375C17.3314 36.516 18.2406 35.607 19.3621 35.607ZM39.6681 37.6375C39.6681 36.516 38.759 35.607 37.6375 35.607C36.5161 35.607 35.607 36.516 35.607 37.6375C35.607 38.759 36.5161 39.668 37.6375 39.668C38.759 39.668 39.6681 38.759 39.6681 37.6375Z" fill="#6C6050"/>
<path d="M45.7603 28.5001C45.7603 27.9393 46.2148 27.4849 46.7755 27.4849C47.3362 27.4849 47.7908 27.9393 47.7908 28.5001C47.7908 29.0608 47.3362 29.5154 46.7755 29.5154C46.2148 29.5154 45.7603 29.0608 45.7603 28.5001Z" fill="#6C6050"/>
<path fill-rule="evenodd" clip-rule="evenodd" d="M24.1929 28.4999L25.4545 27.2382V25.454H27.2387L28.5004 24.1924L29.762 25.454H31.5462V27.238L32.8078 28.4999L31.5462 29.7618V31.5457H29.762L28.5004 32.8074L27.2387 31.5457H25.4545V29.7615L24.1929 28.4999ZM27.4846 28.4999C27.4846 27.9391 27.9392 27.4846 28.4999 27.4846C29.0607 27.4846 29.5151 27.9391 29.5151 28.4999C29.5151 29.0606 29.0607 29.5152 28.4999 29.5152C27.9392 29.5152 27.4846 29.0606 27.4846 28.4999Z" fill="#6C6050"/>
<path d="M35.6793 28.5001L33.5767 26.3975V23.5259L38.5509 28.5001L33.5767 33.4743V30.6028L35.6793 28.5001Z" fill="#6C6050"/>
<path d="M9.20898 28.5002C9.20898 27.9394 9.66356 27.4849 10.2243 27.4849C10.785 27.4849 11.2395 27.9394 11.2395 28.5002C11.2395 29.0609 10.785 29.5155 10.2243 29.5155C9.66356 29.5155 9.20898 29.0609 9.20898 28.5002Z" fill="#6C6050"/>
<path d="M37.6367 8.70208C38.4778 8.70208 39.1596 8.02025 39.1596 7.17917C39.1596 6.33808 38.4778 5.65625 37.6367 5.65625C36.7956 5.65625 36.1138 6.33808 36.1138 7.17917C36.1138 8.02025 36.7956 8.70208 37.6367 8.70208Z" fill="#6C6050"/>
<path d="M28.4992 11.2401C29.0599 11.2401 29.5144 10.7855 29.5144 10.2248C29.5144 9.66405 29.0599 9.20947 28.4992 9.20947C27.9385 9.20947 27.4839 9.66405 27.4839 10.2248C27.4839 10.7855 27.9385 11.2401 28.4992 11.2401Z" fill="#6C6050"/>
<path d="M19.3633 8.70208C20.2043 8.70208 20.8862 8.02025 20.8862 7.17917C20.8862 6.33808 20.2043 5.65625 19.3633 5.65625C18.5222 5.65625 17.8403 6.33808 17.8403 7.17917C17.8403 8.02025 18.5222 8.70208 19.3633 8.70208Z" fill="#6C6050"/>
<path d="M8.70257 19.3623C8.70257 20.2033 8.02074 20.8852 7.17965 20.8852C6.33857 20.8852 5.65674 20.2033 5.65674 19.3623C5.65674 18.5212 6.33857 17.8394 7.17965 17.8394C8.02074 17.8394 8.70257 18.5212 8.70257 19.3623Z" fill="#6C6050"/>
<path d="M8.70257 37.6376C8.70257 36.7965 8.02074 36.1147 7.17965 36.1147C6.33857 36.1147 5.65674 36.7965 5.65674 37.6376C5.65674 38.4787 6.33857 39.1606 7.17965 39.1606C8.02074 39.1606 8.70257 38.4787 8.70257 37.6376Z" fill="#6C6050"/>
<path d="M51.3432 37.6376C51.3432 36.7965 50.6614 36.1147 49.8203 36.1147C48.9792 36.1147 48.2974 36.7965 48.2974 37.6376C48.2974 38.4787 48.9792 39.1606 49.8203 39.1606C50.6614 39.1606 51.3432 38.4787 51.3432 37.6376Z" fill="#6C6050"/>
<path d="M37.6367 48.2979C38.4778 48.2979 39.1596 48.9797 39.1596 49.8208C39.1596 50.6618 38.4778 51.3437 37.6367 51.3437C36.7956 51.3437 36.1138 50.6618 36.1138 49.8208C36.1138 48.9797 36.7956 48.2979 37.6367 48.2979Z" fill="#6C6050"/>
<path d="M51.3432 19.3623C51.3432 20.2033 50.6614 20.8852 49.8203 20.8852C48.9792 20.8852 48.2974 20.2033 48.2974 19.3623C48.2974 18.5212 48.9792 17.8394 49.8203 17.8394C50.6614 17.8394 51.3432 18.5212 51.3432 19.3623Z" fill="#6C6050"/>
<path d="M28.4992 45.7598C29.0599 45.7598 29.5144 46.2143 29.5144 46.7751C29.5144 47.3358 29.0599 47.7903 28.4992 47.7903C27.9385 47.7903 27.4839 47.3358 27.4839 46.7751C27.4839 46.2143 27.9385 45.7598 28.4992 45.7598Z" fill="#6C6050"/>
<path d="M19.3633 48.2979C20.2043 48.2979 20.8862 48.9797 20.8862 49.8208C20.8862 50.6618 20.2043 51.3437 19.3633 51.3437C18.5222 51.3437 17.8403 50.6618 17.8403 49.8208C17.8403 48.9797 18.5222 48.2979 19.3633 48.2979Z" fill="#6C6050"/>
</g>
</svg>
