<svg width="231" height="46" viewBox="0 0 231 46" fill="none" xmlns="http://www.w3.org/2000/svg">
<path d="M231 35.6791H221.713L223.963 32.979V11.8515L221.713 9.61876H231L228.791 11.8515V32.979L231 35.6791Z" fill="white"/>
<path d="M207.528 23.0784L212.683 31.6289C213.665 33.1834 214.442 33.5926 216.488 33.5926C215.874 35.0654 214.565 36.0882 212.479 36.0882C210.597 36.0882 209.411 35.4745 208.142 33.1834L202.987 23.9376C202.66 23.9785 202.333 23.9785 202.006 23.9785H199.51V32.9789L201.882 35.6791H192.433L194.682 32.9789V11.8515L192.433 9.61876H202.006C208.347 9.61876 212.438 12.5643 212.438 16.8191C212.438 19.6419 210.637 21.8921 207.528 23.0784ZM199.51 23.2012H201.596C205.238 23.2012 207.61 20.6238 207.61 16.8191C207.61 13.0553 205.238 10.3961 201.637 10.3961H199.51V23.2012Z" fill="white"/>
<path d="M172.965 36.0883C165.396 36.0883 160.16 31.4827 160.16 22.7104C160.16 13.8153 165.396 9.20975 172.965 9.20975C180.493 9.20975 185.73 13.8153 185.73 22.7104C185.73 31.4827 180.493 36.0883 172.965 36.0883ZM172.965 35.3927C177.466 35.3927 180.493 31.9736 180.493 22.7104C180.493 13.3243 177.507 9.90524 172.965 9.90524C168.383 9.90524 165.396 13.3243 165.396 22.7104C165.396 31.9736 168.424 35.3927 172.965 35.3927Z" fill="white"/>
<path d="M153.406 35.6791H144.119L146.369 32.979V11.8515L144.119 9.61876H153.406L151.197 11.8515V32.979L153.406 35.6791Z" fill="white"/>
<path d="M129.865 23.0784L135.019 31.6289C136.001 33.1834 136.778 33.5926 138.824 33.5926C138.21 35.0654 136.901 36.0882 134.815 36.0882C132.933 36.0882 131.747 35.4745 130.478 33.1834L125.323 23.9376C124.996 23.9785 124.669 23.9785 124.342 23.9785H121.846V32.9789L124.219 35.6791H114.769L117.019 32.9789V11.8515L114.769 9.61876H124.342C130.683 9.61876 134.774 12.5643 134.774 16.8191C134.774 19.6419 132.973 21.8921 129.865 23.0784ZM121.846 23.2012H123.932C127.573 23.2012 129.946 20.6238 129.946 16.8191C129.946 13.0553 127.573 10.3961 123.973 10.3961H121.846V23.2012Z" fill="white"/>
<path d="M98.0362 24.4694H95.1727V32.979L98.1999 35.6791H88.0952L90.3454 32.979V11.8515L88.0952 9.61876H98.0362C104.377 9.61876 108.468 12.5643 108.468 17.0646C108.468 21.5648 104.377 24.4694 98.0362 24.4694ZM97.6277 10.3961H95.1727V23.6922H97.5866C101.269 23.6922 103.642 21.1147 103.642 17.0646C103.642 13.0553 101.269 10.3961 97.6277 10.3961Z" fill="white"/>
<path d="M80.7257 32.979L82.6485 35.6791H73.3617L75.5709 32.979L73.2799 26.8423H63.6249L61.2112 32.979L63.4612 35.6791H58.4292L60.352 32.979L69.6797 9.61876C70.9608 9.61876 72.109 10.4094 72.5658 11.6062L80.7257 32.979ZM68.5752 14.3236L63.9522 26.065H72.9935L68.5752 14.3236Z" fill="white"/>
<path d="M26.3531 19.0035L22.4371 15.0874L18.521 19.0035H20.7818L22.4372 17.3481L24.0924 19.0035H26.3531Z" fill="white" fill-opacity="0.48"/>
<path d="M37.6234 8.61313C37.6234 9.05456 37.2657 9.41241 36.8242 9.41241C36.3828 9.41241 36.0249 9.05456 36.0249 8.61313C36.0249 8.17169 36.3828 7.81384 36.8242 7.81384C37.2657 7.81384 37.6234 8.17169 37.6234 8.61313Z" fill="white" fill-opacity="0.48"/>
<path d="M8.0493 9.41242C8.49072 9.41242 8.84858 9.05457 8.84858 8.61314C8.84858 8.1717 8.49072 7.81384 8.0493 7.81384C7.60785 7.81384 7.25 8.1717 7.25 8.61314C7.25 9.05457 7.60785 9.41242 8.0493 9.41242Z" fill="white" fill-opacity="0.48"/>
<path d="M26.3531 26.996L22.4371 30.9121L18.521 26.996H20.7818L22.4372 28.6513L24.0924 26.996H26.3531Z" fill="white" fill-opacity="0.48"/>
<path d="M37.6234 37.3868C37.6234 36.9453 37.2657 36.5876 36.8242 36.5876C36.3828 36.5876 36.0249 36.9453 36.0249 37.3868C36.0249 37.8282 36.3828 38.1861 36.8242 38.1861C37.2657 38.1861 37.6234 37.8282 37.6234 37.3868Z" fill="white" fill-opacity="0.48"/>
<path d="M8.0493 36.5876C8.49072 36.5876 8.84858 36.9453 8.84858 37.3868C8.84858 37.8282 8.49072 38.1861 8.0493 38.1861C7.60785 38.1861 7.25 37.8282 7.25 37.3868C7.25 36.9453 7.60785 36.5876 8.0493 36.5876Z" fill="white" fill-opacity="0.48"/>
<path d="M14.5249 23.0004L18.441 19.0843V21.3451L16.7857 23.0004L18.441 24.6558V26.9166L14.5249 23.0004Z" fill="white" fill-opacity="0.48"/>
<path fill-rule="evenodd" clip-rule="evenodd" d="M40.8211 21.3446L42.4765 23L40.8211 24.6555V26.141L40.8773 26.1972H43.2184V28.5383L44.8738 30.1937L43.2184 31.849V34.19H40.8774L39.2219 35.8455L37.5665 34.19H35.2255V31.849L33.8611 30.4846L32.8277 31.518V33.3908H30.9549L29.9214 34.4242L31.2858 35.7887H33.6269V38.1297L35.2823 39.7851L33.6269 41.4405V43.7815H31.2859L29.6305 45.4369L27.975 43.7815H25.634V41.3837H24.0927L22.4373 43.039L20.7819 41.3837H19.2397V43.7815H16.8987L15.2432 45.4369L13.5879 43.7815H11.2469V41.4405L9.59149 39.7851L11.2469 38.1297V35.7887H13.588L14.9523 34.4243L13.9188 33.3908H12.0458V31.5178L11.0127 30.4847L9.64823 31.849V34.19H7.30722L5.65182 35.8455L3.99643 34.19H1.65538V31.849L0 30.1936L1.65538 28.5383V26.1972H4.05351V24.6555L2.39813 23L4.05351 21.3446V19.8028H1.65538V17.4618L0 15.8064L1.65538 14.151V11.81H3.99643L5.65182 10.1546L7.30722 11.81H9.64823V14.151L11.0127 15.5154L12.0458 14.4822V12.6093H13.9188L14.9523 11.5758L13.588 10.2114H11.2469V7.87033L9.59149 6.21494L11.2469 4.55957V2.21852H13.5879L15.2432 0.563122L16.8987 2.21852H19.2397V4.61639H20.7819L22.4373 2.96099L24.0927 4.61639H25.634V2.21852H27.975L29.6305 0.563122L31.2859 2.21852H33.6269V4.55957L35.2823 6.21494L33.6269 7.87033V10.2114H31.2858L29.9214 11.5758L30.9549 12.6093H32.8277V14.482L33.8611 15.5154L35.2255 14.151V11.81H37.5665L39.2219 10.1546L40.8774 11.81H43.2184V14.151L44.8738 15.8064L43.2184 17.4618V19.8028H40.8773L40.8211 19.859V21.3446ZM4.65868 23L5.65192 22.0068V20.6022H7.05653L8.04974 19.6089L9.04304 20.6022H10.4476V22.0066L11.4408 23L10.4476 23.9935V25.3979H9.04304L8.04974 26.3911L7.05653 25.3979H5.65192V23.9933L4.65868 23ZM13.7017 23L12.0464 21.3446V19.0036H13.9187L15.0895 20.1743L19.611 15.6529L18.4401 14.482V12.6093H16.5674L15.5341 11.576L16.8986 10.2114H18.4409L18.4401 12.6093H20.782L22.4373 14.2647L24.0927 12.6093H26.4334V14.4822L25.2629 15.6527L29.7844 20.1742L30.9549 19.0036H32.8277V17.1308L33.8611 16.0974L35.2255 17.4618V19.0036H32.8277L32.8282 21.3446L31.1729 23L32.8282 24.6555L32.8277 26.9965H35.2255V28.5383L33.8611 29.9026L32.8277 28.8692V26.9965H30.9549L29.7844 25.8259L25.2629 30.3473L26.4334 31.5178V33.3908H24.0927L22.4373 31.7354L20.782 33.3908H18.4409V35.7887H16.8986L15.5341 34.4241L16.5674 33.3908H18.4409L18.4401 31.518L19.611 30.3472L15.0895 25.8257L13.9187 26.9965H12.0464V24.6555L13.7017 23ZM33.4334 23L34.4267 22.0068V20.6022H35.8312L36.8244 19.6089L37.8177 20.6022H39.2224V22.0066L40.2156 23L39.2224 23.9935V25.3979H37.8177L36.8244 26.3911L35.8312 25.3979H34.4267V23.9933L33.4334 23ZM12.0458 17.1306L12.0464 19.0036H9.64823V17.4618L11.0126 16.0974L12.0458 17.1306ZM28.3063 12.6093H26.4334V10.2114H27.9751L29.3397 11.576L28.3063 12.6093ZM25.8282 8.61281L24.835 7.61941V6.21496H23.4304L22.4372 5.22171L21.4439 6.21496H20.0393V7.61958L19.046 8.61281L20.0393 9.60604V11.0107H21.444L22.4372 12.0039L23.4306 11.0107H24.835L24.8352 9.60586L25.8282 8.61281ZM39.2215 13.0883C40.7227 13.0883 41.9397 14.3052 41.9397 15.8065C41.9397 17.3076 40.7227 18.5245 39.2215 18.5245C37.7204 18.5245 36.5035 17.3076 36.5035 15.8065C36.5035 14.3052 37.7204 13.0883 39.2215 13.0883ZM8.37024 15.8065C8.37024 14.3052 7.15331 13.0883 5.65215 13.0883C4.15098 13.0883 2.93405 14.3052 2.93405 15.8065C2.93405 17.3076 4.15098 18.5245 5.65215 18.5245C7.15331 18.5245 8.37024 17.3076 8.37024 15.8065ZM17.9618 6.21497C17.9618 4.7138 16.7449 3.49687 15.2437 3.49687C13.7426 3.49687 12.5257 4.7138 12.5257 6.21497C12.5257 7.71614 13.7426 8.93307 15.2437 8.93307C16.7449 8.93307 17.9618 7.71614 17.9618 6.21497ZM29.63 3.49687C31.1312 3.49687 32.3481 4.7138 32.3481 6.21497C32.3481 7.71614 31.1312 8.93307 29.63 8.93307C28.1288 8.93307 26.9119 7.71614 26.9119 6.21497C26.9119 4.7138 28.1288 3.49687 29.63 3.49687ZM15.243 17.405C16.1259 17.405 16.8416 16.6893 16.8416 15.8065C16.8416 14.9236 16.1259 14.2078 15.243 14.2078C14.3601 14.2078 13.6444 14.9236 13.6444 15.8065C13.6444 16.6893 14.3601 17.405 15.243 17.405ZM31.2291 15.8065C31.2291 16.6893 30.5134 17.405 29.6305 17.405C28.7476 17.405 28.032 16.6893 28.032 15.8065C28.032 14.9236 28.7476 14.2078 29.6305 14.2078C30.5134 14.2078 31.2291 14.9236 31.2291 15.8065ZM12.0458 28.8694L12.0464 26.9965H9.64823V28.5383L11.0126 29.9026L12.0458 28.8694ZM28.3063 33.3908H26.4334L26.4337 35.7887H27.9751L29.3397 34.4241L28.3063 33.3908ZM25.8282 37.3873L24.835 38.3807V39.7851H23.4304L22.4372 40.7783L21.4439 39.7851H20.0393V38.3805L19.046 37.3873L20.0393 36.394V34.9893H21.444L22.4372 33.9961L23.4306 34.9893H24.835L24.8352 36.3942L25.8282 37.3873ZM39.2215 32.9117C40.7227 32.9117 41.9397 31.6948 41.9397 30.1936C41.9397 28.6924 40.7227 27.4755 39.2215 27.4755C37.7204 27.4755 36.5035 28.6924 36.5035 30.1936C36.5035 31.6948 37.7204 32.9117 39.2215 32.9117ZM8.37024 30.1936C8.37024 31.6948 7.15331 32.9117 5.65215 32.9117C4.15098 32.9117 2.93405 31.6948 2.93405 30.1936C2.93405 28.6924 4.15098 27.4755 5.65215 27.4755C7.15331 27.4755 8.37024 28.6924 8.37024 30.1936ZM17.9618 39.785C17.9618 41.2862 16.7449 42.5032 15.2437 42.5032C13.7426 42.5032 12.5257 41.2862 12.5257 39.785C12.5257 38.2839 13.7426 37.067 15.2437 37.067C16.7449 37.067 17.9618 38.2839 17.9618 39.785ZM29.63 42.5032C31.1312 42.5032 32.3481 41.2862 32.3481 39.785C32.3481 38.2839 31.1312 37.067 29.63 37.067C28.1288 37.067 26.9119 38.2839 26.9119 39.785C26.9119 41.2862 28.1288 42.5032 29.63 42.5032ZM15.243 28.595C16.1259 28.595 16.8416 29.3107 16.8416 30.1936C16.8416 31.0765 16.1259 31.7922 15.243 31.7922C14.3601 31.7922 13.6444 31.0765 13.6444 30.1936C13.6444 29.3107 14.3601 28.595 15.243 28.595ZM31.2291 30.1936C31.2291 29.3107 30.5134 28.595 29.6305 28.595C28.7476 28.595 28.032 29.3107 28.032 30.1936C28.032 31.0765 28.7476 31.7922 29.6305 31.7922C30.5134 31.7922 31.2291 31.0765 31.2291 30.1936Z" fill="white" fill-opacity="0.48"/>
<path d="M36.0249 23.0004C36.0249 22.5589 36.3828 22.2012 36.8242 22.2012C37.2657 22.2012 37.6234 22.5589 37.6234 23.0004C37.6234 23.4418 37.2657 23.7997 36.8242 23.7997C36.3828 23.7997 36.0249 23.4418 36.0249 23.0004Z" fill="white" fill-opacity="0.48"/>
<path fill-rule="evenodd" clip-rule="evenodd" d="M19.0459 23.0003L20.0391 22.0071V20.6025H21.4437L22.437 19.6093L23.4303 20.6025H24.8349V22.0069L25.8281 23.0003L24.8349 23.9938V25.3982H23.4303L22.437 26.3915L21.4437 25.3982H20.0391V23.9936L19.0459 23.0003ZM21.6374 23.0003C21.6374 22.5589 21.9952 22.201 22.4367 22.201C22.8781 22.201 23.236 22.5589 23.236 23.0003C23.236 23.4418 22.8781 23.7996 22.4367 23.7996C21.9952 23.7996 21.6374 23.4418 21.6374 23.0003Z" fill="white" fill-opacity="0.48"/>
<path d="M28.089 23.0003L26.4336 21.345V19.0843L30.3496 23.0003L26.4336 26.9163V24.6557L28.089 23.0003Z" fill="white" fill-opacity="0.48"/>
<path d="M7.25 22.9996C7.25 22.5581 7.60786 22.2002 8.0493 22.2002C8.49072 22.2002 8.84857 22.5581 8.84858 22.9996C8.84857 23.441 8.49072 23.7989 8.0493 23.7989C7.60786 23.7989 7.25 23.441 7.25 22.9996Z" fill="white" fill-opacity="0.48"/>
<path d="M29.63 7.41349C30.2922 7.41349 30.829 6.87671 30.829 6.21456C30.829 5.55241 30.2922 5.01562 29.63 5.01562C28.9679 5.01562 28.4312 5.55241 28.4312 6.21456C28.4312 6.87671 28.9679 7.41349 29.63 7.41349Z" fill="white" fill-opacity="0.48"/>
<path d="M22.4365 9.41242C22.878 9.41242 23.2358 9.05456 23.2358 8.61313C23.2358 8.1717 22.878 7.81384 22.4365 7.81384C21.9951 7.81384 21.6372 8.1717 21.6372 8.61313C21.6372 9.05456 21.9951 9.41242 22.4365 9.41242Z" fill="white" fill-opacity="0.48"/>
<path d="M15.2438 7.41349C15.906 7.41349 16.4428 6.87671 16.4428 6.21456C16.4428 5.55241 15.906 5.01562 15.2438 5.01562C14.5816 5.01562 14.0449 5.55241 14.0449 6.21456C14.0449 6.87671 14.5816 7.41349 15.2438 7.41349Z" fill="white" fill-opacity="0.48"/>
<path d="M6.85148 15.8061C6.85148 16.4682 6.3147 17.005 5.65255 17.005C4.9904 17.005 4.45361 16.4682 4.45361 15.8061C4.45361 15.144 4.9904 14.6072 5.65255 14.6072C6.3147 14.6072 6.85148 15.144 6.85148 15.8061Z" fill="white" fill-opacity="0.48"/>
<path d="M6.85148 30.1935C6.85148 29.5313 6.3147 28.9945 5.65255 28.9945C4.9904 28.9945 4.45361 29.5313 4.45361 30.1935C4.45361 30.8556 4.9904 31.3923 5.65255 31.3923C6.3147 31.3923 6.85148 30.8556 6.85148 30.1935Z" fill="white" fill-opacity="0.48"/>
<path d="M40.4203 30.1935C40.4203 29.5313 39.8835 28.9945 39.2213 28.9945C38.5592 28.9945 38.0225 29.5313 38.0225 30.1935C38.0225 30.8556 38.5592 31.3923 39.2213 31.3923C39.8835 31.3923 40.4203 30.8556 40.4203 30.1935Z" fill="white" fill-opacity="0.48"/>
<path d="M29.63 38.586C30.2922 38.586 30.829 39.1228 30.829 39.7849C30.829 40.4471 30.2922 40.9839 29.63 40.9839C28.9679 40.9839 28.4312 40.4471 28.4312 39.7849C28.4312 39.1228 28.9679 38.586 29.63 38.586Z" fill="white" fill-opacity="0.48"/>
<path d="M40.4203 15.8061C40.4203 16.4682 39.8835 17.005 39.2213 17.005C38.5592 17.005 38.0225 16.4682 38.0225 15.8061C38.0225 15.144 38.5592 14.6072 39.2213 14.6072C39.8835 14.6072 40.4203 15.144 40.4203 15.8061Z" fill="white" fill-opacity="0.48"/>
<path d="M22.4365 36.5876C22.878 36.5876 23.2358 36.9453 23.2358 37.3868C23.2358 37.8282 22.878 38.1861 22.4365 38.1861C21.9951 38.1861 21.6372 37.8282 21.6372 37.3868C21.6372 36.9453 21.9951 36.5876 22.4365 36.5876Z" fill="white" fill-opacity="0.48"/>
<path d="M15.2438 38.586C15.906 38.586 16.4428 39.1228 16.4428 39.7849C16.4428 40.4471 15.906 40.9839 15.2438 40.9839C14.5816 40.9839 14.0449 40.4471 14.0449 39.7849C14.0449 39.1228 14.5816 38.586 15.2438 38.586Z" fill="white" fill-opacity="0.48"/>
</svg>
