<svg width="62" height="40" viewBox="0 0 62 40" fill="none" xmlns="http://www.w3.org/2000/svg">
<path d="M31.2365 5.70312H31.2293L31.2325 5.70564C27.0039 9.03481 24.2886 14.2008 24.2886 20C24.2886 25.798 27.0031 30.9632 31.2293 34.2918H31.2365C35.4641 30.9626 38.1781 25.798 38.1781 20C38.1781 14.2005 35.462 9.03481 31.2325 5.70564C31.2336 5.7048 31.2354 5.70396 31.2365 5.70312Z" fill="white" fill-opacity="0.48"/>
<path d="M24.2893 20.0002C24.2893 14.201 27.0047 9.03499 31.2333 5.70582C28.0324 3.18209 24.0737 1.81238 19.9978 1.81838C9.95732 1.81838 1.81836 9.95854 1.81836 20.0002C1.81836 30.0418 9.95732 38.182 19.9978 38.182C24.0738 38.188 28.0326 36.8183 31.2333 34.2945C27.0053 30.9659 24.2893 25.7997 24.2893 20.0002Z" fill="white" fill-opacity="0.24"/>
<path d="M60.6503 19.9997C60.6503 30.0413 52.5113 38.1815 42.4708 38.1815C38.3944 38.1874 34.4352 36.8178 31.2339 34.294C35.4634 30.9649 38.1787 25.7992 38.1787 19.9997C38.1787 14.2002 35.4634 9.0345 31.2339 5.70533C34.4351 3.18168 38.3942 1.81199 42.4706 1.81789C52.511 1.81789 60.6503 9.95805 60.6503 19.9997Z" fill="white" fill-opacity="0.64"/>
</svg>
