<svg width="74" height="44" viewBox="0 0 74 44" fill="none" xmlns="http://www.w3.org/2000/svg">
<path d="M64.3377 12.1904H50.9253C51.7066 16.6178 56.0038 20.7848 60.6916 20.7848H71.3695C71.4998 20.3942 71.4997 19.7431 71.4997 19.3524C71.4997 15.4459 68.2443 12.1904 64.3377 12.1904Z" fill="#262626"/>
<path d="M52.0977 21.5669V32.375H58.6086V26.6454H64.3381C67.4634 26.6454 70.198 24.4317 71.1095 21.5669H52.0977Z" fill="#262626"/>
<path d="M29.1792 12.1904V32.244H34.9088C34.9088 32.244 36.3412 32.244 37.1225 30.8116C41.029 23.1287 42.201 20.7848 42.201 20.7848H42.9823V32.244H49.4932V12.1904H43.7636C43.7636 12.1904 42.3312 12.3207 41.5499 13.6228C38.2945 20.264 36.4714 23.6496 36.4714 23.6496H35.6901V12.1904H29.1792Z" fill="#262626"/>
<path d="M1.8335 32.3749V12.3213H8.3444C8.3444 12.3213 10.1675 12.3213 11.2092 15.1861C13.8136 22.7387 14.074 23.7805 14.074 23.7805C14.074 23.7805 14.5949 21.9574 16.9388 15.1861C17.9805 12.3213 19.8036 12.3213 19.8036 12.3213H26.3145V32.3749H19.8036V21.5668H19.0223L15.3762 32.3749H12.5114L8.8653 21.5668H8.08399V32.3749H1.8335Z" fill="#262626"/>
</svg>
