<svg width="587" height="281" viewBox="0 0 587 281" fill="none" xmlns="http://www.w3.org/2000/svg">
<rect opacity="0.24" x="8.22852" y="9.14844" width="570.543" height="262.704" stroke="#1D1D1D"/>
<path opacity="0.24" d="M0.5 241.614V38.7849L35.1364 0.5H551.864L586.5 38.7849V241.614L551.861 280.5H35.1387L0.5 241.614Z" stroke="#1D1D1D"/>
<path opacity="0.24" d="M0.5 4.36431C0.5 2.23011 2.23011 0.5 4.36431 0.5C6.49851 0.5 8.22862 2.23011 8.22862 4.36431V9.14807H4.82403C2.43594 9.14807 0.5 7.21213 0.5 4.82403V4.36431Z" stroke="#1D1D1D"/>
<path opacity="0.24" d="M0.5 276.176C0.5 273.787 2.43594 271.852 4.82404 271.852H8.22862V276.635C8.22862 278.77 6.49851 280.5 4.36431 280.5C2.23011 280.5 0.5 278.77 0.5 276.635V276.176Z" stroke="#1D1D1D"/>
<path opacity="0.24" d="M578.771 271.852H582.176C584.564 271.852 586.5 273.787 586.5 276.176V276.635C586.5 278.77 584.77 280.5 582.636 280.5C580.502 280.5 578.771 278.77 578.771 276.635V271.852Z" stroke="#1D1D1D"/>
<path opacity="0.24" d="M578.771 4.36431C578.771 2.23011 580.502 0.5 582.636 0.5C584.77 0.5 586.5 2.23011 586.5 4.36431V4.82403C586.5 7.21213 584.564 9.14807 582.176 9.14807H578.771V4.36431Z" stroke="#1D1D1D"/>
</svg>
