<svg width="96" height="96" viewBox="0 0 96 96" fill="none" xmlns="http://www.w3.org/2000/svg">
<circle cx="48" cy="48" r="47.5" stroke="white" stroke-opacity="0.48"/>
<circle cx="48" cy="48" r="3.5" stroke="white"/>
<path d="M53.5 26C53.5 29.0376 51.0376 31.5 48 31.5C44.9624 31.5 42.5 29.0376 42.5 26" stroke="white"/>
<path d="M67.4461 36.3329C65.2983 38.4807 61.8159 38.4807 59.668 36.3329C57.5201 34.185 57.5201 30.7026 59.668 28.5547" stroke="white"/>
<path d="M70 53.5C66.9624 53.5 64.5 51.0376 64.5 48C64.5 44.9624 66.9624 42.5 70 42.5" stroke="white"/>
<path d="M59.6671 67.4452C57.5193 65.2973 57.5193 61.8149 59.6671 59.667C61.815 57.5191 65.2974 57.5191 67.4453 59.667" stroke="white"/>
<path d="M53.5 70C53.5 66.9624 51.0376 64.5 48 64.5C44.9624 64.5 42.5 66.9624 42.5 70" stroke="white"/>
<path d="M36.3329 67.4452C38.4807 65.2973 38.4807 61.8149 36.3329 59.667C34.185 57.5191 30.7026 57.5191 28.5547 59.667" stroke="white"/>
<path d="M26 53.5C29.0376 53.5 31.5 51.0376 31.5 48C31.5 44.9624 29.0376 42.5 26 42.5" stroke="white"/>
<path d="M28.5539 36.3329C30.7017 38.4807 34.1841 38.4807 36.332 36.3329C38.4799 34.185 38.4799 30.7026 36.332 28.5547" stroke="white"/>
<path d="M48 24V37V42.5V43.875V44.5625M48 72V59V53.5V52.125V51.4375" stroke="white"/>
<path d="M64.9688 31.0293L55.7764 40.2217L51.8873 44.1108L50.915 45.083L50.4289 45.5692M31.0276 64.9704L40.22 55.778L44.1091 51.8889L45.0814 50.9167L45.5675 50.4305" stroke="white"/>
<path d="M72 48L59 48L53.5 48L52.125 48L51.4375 48M24 48L37 48L42.5 48L43.875 48L44.5625 48" stroke="white"/>
<path d="M64.9688 64.9707L55.7764 55.7783L51.8873 51.8892L50.915 50.917L50.4289 50.4308M31.0276 31.0296L40.22 40.222L44.1091 44.1111L45.0814 45.0833L45.5675 45.5695" stroke="white"/>
<path d="M54.0117 36.333L59.6686 41.9899" stroke="white"/>
<path d="M59.668 54.0107L54.0111 59.6676" stroke="white"/>
<path d="M36.332 54.0107L41.9889 59.6676" stroke="white"/>
<path d="M41.9883 36.333L36.3314 41.9899" stroke="white"/>
<path d="M45 38.5H51" stroke="white"/>
<path d="M57.5 45L57.5 51" stroke="white"/>
<path d="M45 57.5H51" stroke="white"/>
<path d="M38.5 45L38.5 51" stroke="white"/>
</svg>
