<svg width="96" height="96" viewBox="0 0 96 96" fill="none" xmlns="http://www.w3.org/2000/svg">
<path d="M50.25 46.625H68.5V70H27.5V36.5H38.7202C41.0966 36.5 43.3324 37.6262 44.7469 39.5358L49.8482 46.4226L49.9981 46.625H50.25Z" stroke="white"/>
<path d="M25.5 58.5H70.5" stroke="white"/>
<path d="M25.5 46.5H70.5" stroke="white"/>
<path d="M31.25 63.75C31.25 62.7835 32.0335 62 33 62C33.9665 62 34.75 62.7835 34.75 63.75V70H31.25V63.75Z" stroke="white"/>
<path d="M31.25 52.125C31.25 51.1585 32.0335 50.375 33 50.375C33.9665 50.375 34.75 51.1585 34.75 52.125V58.375H31.25V52.125Z" stroke="white"/>
<path d="M31.25 41.625C31.25 40.6585 32.0335 39.875 33 39.875C33.9665 39.875 34.75 40.6585 34.75 41.625V46.375H31.25V41.625Z" stroke="white"/>
<path d="M38.75 63.75C38.75 62.7835 39.5335 62 40.5 62C41.4665 62 42.25 62.7835 42.25 63.75V70H38.75V63.75Z" stroke="white"/>
<path d="M38.75 52.125C38.75 51.1585 39.5335 50.375 40.5 50.375C41.4665 50.375 42.25 51.1585 42.25 52.125V58.375H38.75V52.125Z" stroke="white"/>
<path d="M38.75 41.625C38.75 40.6585 39.5335 39.875 40.5 39.875C41.4665 39.875 42.25 40.6585 42.25 41.625V46.375H38.75V41.625Z" stroke="white"/>
<path d="M46.25 63.75C46.25 62.7835 47.0335 62 48 62C48.9665 62 49.75 62.7835 49.75 63.75V70H46.25V63.75Z" stroke="white"/>
<path d="M46.25 52.125C46.25 51.1585 47.0335 50.375 48 50.375C48.9665 50.375 49.75 51.1585 49.75 52.125V58.375H46.25V52.125Z" stroke="white"/>
<path d="M53.75 63.75C53.75 62.7835 54.5335 62 55.5 62C56.4665 62 57.25 62.7835 57.25 63.75V70H53.75V63.75Z" stroke="white"/>
<path d="M53.75 52.125C53.75 51.1585 54.5335 50.375 55.5 50.375C56.4665 50.375 57.25 51.1585 57.25 52.125V58.375H53.75V52.125Z" stroke="white"/>
<path d="M61.25 63.75C61.25 62.7835 62.0335 62 63 62C63.9665 62 64.75 62.7835 64.75 63.75V70H61.25V63.75Z" stroke="white"/>
<path d="M61.25 52.125C61.25 51.1585 62.0335 50.375 63 50.375C63.9665 50.375 64.75 51.1585 64.75 52.125V58.375H61.25V52.125Z" stroke="white"/>
<circle cx="62" cy="34" r="7.5" stroke="white"/>
<circle cx="48" cy="48" r="47.5" stroke="white" stroke-opacity="0.48"/>
</svg>
