<svg width="64" height="64" viewBox="0 0 64 64" fill="none" xmlns="http://www.w3.org/2000/svg">
<g clip-path="url(#clip0_245_39985)">
<path d="M63.5 32C63.5 49.3969 49.3969 63.5 32 63.5C14.6031 63.5 0.5 49.3969 0.5 32C0.5 14.6031 14.6031 0.5 32 0.5C49.3969 0.5 63.5 14.6031 63.5 32Z" stroke="#3A79F3"/>
<path d="M49.8087 22.8334C50.0682 21.9679 49.8087 21.332 48.5736 21.332H44.4893C43.4508 21.332 42.972 21.8814 42.7124 22.4871C42.7124 22.4871 40.6354 27.5497 37.693 30.8383C36.7411 31.7902 36.3084 32.093 35.7891 32.093C35.5295 32.093 35.1537 31.7902 35.1537 30.9248V22.8334C35.1537 21.7949 34.8523 21.332 33.9868 21.332H27.5687C26.9197 21.332 26.5294 21.814 26.5294 22.2708C26.5294 23.2553 28.0005 23.4823 28.1521 26.2517V32.2662C28.1521 33.5849 27.914 33.824 27.3948 33.824C26.0102 33.824 22.6421 28.7387 20.6446 22.9199C20.2531 21.7889 19.8605 21.332 18.8166 21.332H14.7324C13.5654 21.332 13.332 21.8814 13.332 22.4871C13.332 23.5689 14.7167 28.9344 19.7792 36.0307C23.1543 40.8769 27.9094 43.5038 32.2364 43.5038C34.8326 43.5038 35.1538 42.9204 35.1538 41.9153V38.2526C35.1538 37.0857 35.3997 36.8528 36.2219 36.8528C36.8276 36.8528 37.8661 37.1557 40.2893 39.4923C43.0585 42.2615 43.5151 43.5038 45.0727 43.5038H49.157C50.324 43.5038 50.9074 42.9204 50.5708 41.7689C50.2025 40.6213 48.8803 38.9563 47.1259 36.9826C46.1739 35.8576 44.7461 34.6461 44.3133 34.0402C43.7076 33.2614 43.8806 32.9152 44.3133 32.2229C44.3133 32.2229 49.2894 25.2132 49.8087 22.8334Z" fill="#3A79F3"/>
</g>
<defs>
<clipPath id="clip0_245_39985">
<rect width="64" height="64" fill="white"/>
</clipPath>
</defs>
</svg>
