<svg width="64" height="64" viewBox="0 0 64 64" fill="none" xmlns="http://www.w3.org/2000/svg">
<g clip-path="url(#clip0_607_6343)">
<path d="M63.5 32C63.5 49.3969 49.3969 63.5 32 63.5C14.6031 63.5 0.5 49.3969 0.5 32C0.5 14.6031 14.6031 0.5 32 0.5C49.3969 0.5 63.5 14.6031 63.5 32Z" stroke="#1D1D1D" stroke-opacity="0.24"/>
<path d="M17.9877 31.7918C17.9877 31.7918 29.9877 26.867 34.1494 25.1328C35.7449 24.4392 41.1552 22.2195 41.1552 22.2195C41.1552 22.2195 43.6524 21.2485 43.4443 23.6068C43.3749 24.578 42.82 27.9767 42.2651 31.6531C41.4327 36.8554 40.531 42.5432 40.531 42.5432C40.531 42.5432 40.3922 44.1386 39.2131 44.4161C38.0339 44.6935 36.0916 43.445 35.7449 43.1675C35.4673 42.9595 30.5425 39.838 28.7391 38.312C28.2535 37.8958 27.6986 37.0635 28.8084 36.0924C31.3055 33.8034 34.2882 30.9595 36.0916 29.156C36.924 28.3236 37.7564 26.3814 34.2882 28.7397C29.3634 32.1386 24.5079 35.3294 24.5079 35.3294C24.5079 35.3294 23.398 36.023 21.3171 35.3987C19.2361 34.7745 16.8084 33.9421 16.8084 33.9421C16.8084 33.9421 15.1438 32.9016 17.9877 31.7918Z" fill="#1D1D1D"/>
</g>
<defs>
<clipPath id="clip0_607_6343">
<rect width="64" height="64" fill="white"/>
</clipPath>
</defs>
</svg>
