<svg width="64" height="64" viewBox="0 0 64 64" fill="none" xmlns="http://www.w3.org/2000/svg">
<g clip-path="url(#clip0_245_39981)">
<path d="M63.5 32C63.5 49.3969 49.3969 63.5 32 63.5C14.6031 63.5 0.5 49.3969 0.5 32C0.5 14.6031 14.6031 0.5 32 0.5C49.3969 0.5 63.5 14.6031 63.5 32Z" stroke="url(#paint0_linear_245_39981)"/>
<path fill-rule="evenodd" clip-rule="evenodd" d="M31.997 22.6714C26.8423 22.6714 22.6636 26.8501 22.6636 32.0048C22.6636 37.1594 26.8423 41.3381 31.997 41.3381C37.1516 41.3381 41.3303 37.1594 41.3303 32.0048C41.3303 26.8501 37.1516 22.6714 31.997 22.6714ZM16.4414 32.0048C16.4414 23.4137 23.4059 16.4492 31.997 16.4492C40.5881 16.4492 47.5525 23.4137 47.5525 32.0048C47.5525 40.5959 40.5881 47.5603 31.997 47.5603C23.4059 47.5603 16.4414 40.5959 16.4414 32.0048Z" fill="url(#paint1_linear_245_39981)"/>
<path d="M47.5525 19.5543C49.2707 19.5543 50.6636 18.1614 50.6636 16.4431C50.6636 14.7249 49.2707 13.332 47.5525 13.332C45.8343 13.332 44.4414 14.7249 44.4414 16.4431C44.4414 18.1614 45.8343 19.5543 47.5525 19.5543Z" fill="url(#paint2_linear_245_39981)"/>
</g>
<defs>
<linearGradient id="paint0_linear_245_39981" x1="32" y1="0" x2="32" y2="64" gradientUnits="userSpaceOnUse">
<stop offset="0.182292" stop-color="#9A40DF"/>
<stop offset="0.380208" stop-color="#BE2989"/>
<stop offset="0.588542" stop-color="#EA0D21"/>
<stop offset="0.802083" stop-color="#F17112"/>
<stop offset="1" stop-color="#F9D802"/>
</linearGradient>
<linearGradient id="paint1_linear_245_39981" x1="31.997" y1="16.4492" x2="31.997" y2="47.5603" gradientUnits="userSpaceOnUse">
<stop offset="0.182292" stop-color="#9A40DF"/>
<stop offset="0.380208" stop-color="#BE2989"/>
<stop offset="0.588542" stop-color="#EA0D21"/>
<stop offset="0.802083" stop-color="#F17112"/>
<stop offset="1" stop-color="#F9D802"/>
</linearGradient>
<linearGradient id="paint2_linear_245_39981" x1="47.5525" y1="13.332" x2="47.5525" y2="19.5543" gradientUnits="userSpaceOnUse">
<stop offset="0.182292" stop-color="#9A40DF"/>
<stop offset="0.380208" stop-color="#BE2989"/>
<stop offset="0.588542" stop-color="#EA0D21"/>
<stop offset="0.802083" stop-color="#F17112"/>
<stop offset="1" stop-color="#F9D802"/>
</linearGradient>
<clipPath id="clip0_245_39981">
<rect width="64" height="64" fill="white"/>
</clipPath>
</defs>
</svg>
