<svg width="64" height="64" viewBox="0 0 64 64" fill="none" xmlns="http://www.w3.org/2000/svg">
<g clip-path="url(#clip0_245_39978)">
<path d="M63.5 32C63.5 49.3969 49.3969 63.5 32 63.5C14.6031 63.5 0.5 49.3969 0.5 32C0.5 14.6031 14.6031 0.5 32 0.5C49.3969 0.5 63.5 14.6031 63.5 32Z" stroke="#469BFF"/>
<path d="M13.3156 31.7263C13.3156 31.7263 29.3156 25.1599 34.8646 22.8477C36.9919 21.9229 44.2057 18.9633 44.2057 18.9633C44.2057 18.9633 47.5352 17.6686 47.2577 20.813C47.1652 22.1078 46.4253 26.6396 45.6855 31.5413C44.5756 38.4778 43.3733 46.0615 43.3733 46.0615C43.3733 46.0615 43.1883 48.1887 41.6161 48.5587C40.0439 48.9286 37.4542 47.2639 36.9919 46.8939C36.6218 46.6165 30.0554 42.4546 27.6508 40.4199C27.0034 39.865 26.2635 38.7553 27.7432 37.4604C31.0728 34.4084 35.0496 30.6165 37.4542 28.2119C38.5641 27.102 39.6739 24.5125 35.0496 27.6569C28.4832 32.1887 22.0092 36.4431 22.0092 36.4431C22.0092 36.4431 20.5294 37.3679 17.7549 36.5355C14.9802 35.7032 11.7432 34.5933 11.7432 34.5933C11.7432 34.5933 9.5237 33.2061 13.3156 31.7263Z" fill="#469BFF"/>
</g>
<defs>
<clipPath id="clip0_245_39978">
<rect width="64" height="64" fill="white"/>
</clipPath>
</defs>
</svg>
