<svg width="1809" height="14" viewBox="0 0 1809 14" fill="none" xmlns="http://www.w3.org/2000/svg">
<path d="M1788.33 10.9961L1783.96 6.99609L1788.33 2.99609" stroke="#6C6050"/>
<path d="M1806.14 2.75345C1803.67 0.410306 1799.66 0.410308 1797.18 2.75345L1792.7 6.99609L1797.18 11.2387C1799.66 13.5819 1803.67 13.5819 1806.14 11.2387C1808.62 8.89559 1808.62 5.0966 1806.14 2.75345Z" stroke="#6C6050"/>
<path d="M25.0352 6.99609H1783.96" stroke="#6C6050"/>
<path d="M20.665 10.9961L25.035 6.99609L20.665 2.99609" stroke="#6C6050"/>
<path d="M2.8556 2.75345C5.32974 0.410306 9.3411 0.410308 11.8152 2.75345L16.295 6.99609L11.8152 11.2387C9.34109 13.5819 5.32973 13.5819 2.8556 11.2387C0.381468 8.89559 0.381468 5.0966 2.8556 2.75345Z" stroke="#6C6050"/>
</svg>
