<svg width="362" height="14" viewBox="0 0 362 14" fill="none" xmlns="http://www.w3.org/2000/svg">
<path d="M345 11L342 7L345 3" stroke="#6C6050"/>
<path d="M359.544 2.75736C357.603 0.414212 354.456 0.414214 352.515 2.75736L349 7L352.515 11.2426C354.456 13.5858 357.603 13.5858 359.544 11.2426C361.485 8.89949 361.485 5.1005 359.544 2.75736Z" stroke="#6C6050"/>
<path d="M22 7L342 7" stroke="#6C6050"/>
<path d="M18 11L22 7L18 3" stroke="#6C6050"/>
<path d="M2.57717 2.75736C4.68005 0.414212 8.0895 0.414214 10.1924 2.75736L14 7L10.1924 11.2426C8.0895 13.5858 4.68005 13.5858 2.57717 11.2426C0.474279 8.89949 0.474279 5.1005 2.57717 2.75736Z" stroke="#6C6050"/>
</svg>
