<svg width="74" height="44" viewBox="0 0 74 44" fill="none" xmlns="http://www.w3.org/2000/svg">
<path d="M2.49756 12.7931L2.59941 12.3857H11.3587C12.5809 12.3857 13.4976 12.7931 13.8031 14.1172L15.7383 23.2839C13.8031 18.395 9.32163 14.4228 2.49756 12.7931Z" fill="white" fill-opacity="0.64"/>
<path fill-rule="evenodd" clip-rule="evenodd" d="M42.3226 33.6726C48.3319 33.6726 52.2023 30.8207 52.2023 26.5429C52.2023 24.0985 50.6745 22.367 47.4152 20.8392C45.48 19.9226 44.2578 19.2096 44.2578 18.2929C44.2578 17.4781 45.2763 16.5615 47.4152 16.4596C49.3504 16.4596 50.6745 16.867 51.693 17.2744L52.1004 17.6818L52.9152 13.2004C51.7948 12.6911 49.9615 12.2837 47.8226 12.2837C42.2208 12.2837 38.2486 15.0337 38.2486 19.1078C38.2486 22.0615 41.1004 23.6911 43.2393 24.7096C45.48 25.7281 46.193 26.3392 46.193 27.2559C46.193 28.6818 44.4615 29.2929 42.8319 29.2929C40.5911 29.2929 39.3689 28.9874 37.5356 28.1726L36.8226 27.867L36.0078 32.5522C37.3319 33.1633 39.7763 33.6726 42.3226 33.6726ZM63.099 12.5881H67.4786L72.1638 33.264H66.8675C66.8675 33.264 66.3583 30.9214 66.1545 30.2084H58.9231C58.7194 30.8195 57.7008 33.3658 57.7008 33.3658H51.7934L60.1453 14.3195C60.7564 12.9955 61.7749 12.5881 63.099 12.5881ZM62.7934 20.1251C62.7934 20.1251 61.062 24.7084 60.5527 25.9306V26.0325H65.2379C65.0342 25.014 63.9138 20.0232 63.9138 20.0232L63.5064 18.1899C63.3027 18.9029 62.7934 20.2269 62.7934 20.1251ZM28.0626 12.5896L19.2015 33.2656H13.1922L8.09961 15.9508C11.7663 18.2933 14.8218 21.96 15.9422 24.5063L16.5533 26.6452L22.0533 12.4878H28.0626V12.5896ZM36.0078 12.4878H30.406L26.8411 33.2656H32.443L36.0078 12.4878Z" fill="white" fill-opacity="0.48"/>
</svg>
